<?xml version="1.0" encoding="iso-8859-1"?>
<!-- Generator: Adobe Illustrator 19.0.0, SVG Export Plug-In . SVG Version: 6.00 Build 0)  -->
<svg version="1.1" id="Capa_1" xmlns="http://www.w3.org/2000/svg" xmlns:xlink="http://www.w3.org/1999/xlink" x="0px" y="0px"
	 viewBox="0 0 480 480" style="enable-background:new 0 0 480 480;" xml:space="preserve">
<g>
	<g>
		<path d="M454.893,226.168c-3.091-54.587-42.556-100.247-96.12-111.208C356.051,50.772,303.275,0.105,239.029,0H93.293
			C81.095-0.011,70.828,9.13,69.429,21.248l-44.304,384c-1.52,13.167,7.922,25.074,21.09,26.594
			c0.918,0.106,1.842,0.159,2.766,0.158h76.608l-3.36,20.056c-2.178,13.075,6.655,25.44,19.73,27.618
			c1.308,0.218,2.632,0.327,3.958,0.326h78.984c12.105,0.001,22.315-9.013,23.816-21.024L262.093,352h72.936
			c66.274,0.003,120.003-53.72,120.006-119.994C455.035,230.059,454.988,228.113,454.893,226.168z M127.965,416H48.981
			c-2.276,0.008-4.445-0.966-5.952-2.672v0c-1.53-1.7-2.253-3.977-1.984-6.248l44.32-384c0.466-4.028,3.873-7.07,7.928-7.08h145.736
			c54.479,0.087,99.67,42.177,103.624,96.512c-3.568-0.304-7.2-0.512-10.8-0.512H189.285c-12.19,0.001-22.442,9.139-23.84,21.248
			l-7.656,66.352c-0.506,4.39,2.642,8.358,7.032,8.864c4.39,0.506,8.358-2.642,8.864-7.032l7.656-66.352
			c0.467-4.034,3.883-7.078,7.944-7.08h142.544c3.621,0,7.203,0.173,10.744,0.52c-4.468,53.894-49.466,95.386-103.544,95.48h-65.872
			c-12.105-0.001-22.315,9.013-23.816,21.024L127.965,416z M410.301,303.76l0.016-0.032C390.754,324.42,363.505,336.1,335.029,336
			h-80c-4.034,0.001-7.436,3.005-7.936,7.008l-14.248,113.984c-0.501,4.006-3.907,7.011-7.944,7.008h-78.984
			c-4.418-0.002-7.998-3.585-7.996-8.004c0-0.438,0.036-0.876,0.108-1.308l4.888-29.368c0-0.056,0-0.112,0-0.16
			c0-0.048,0-0.112,0.048-0.168l22.248-177.984c0.501-4.006,3.907-7.011,7.944-7.008h65.872
			c61.847-0.081,113.526-47.107,119.424-108.672c45.045,10.51,77.793,49.422,80.456,95.6
			C440.392,255.39,430.038,283.198,410.301,303.76z"/>
	</g>
</g>
<g>
</g>
<g>
</g>
<g>
</g>
<g>
</g>
<g>
</g>
<g>
</g>
<g>
</g>
<g>
</g>
<g>
</g>
<g>
</g>
<g>
</g>
<g>
</g>
<g>
</g>
<g>
</g>
<g>
</g>
</svg>
