<svg id="visual" viewBox="0 0 900 600" width="900" height="600" xmlns="http://www.w3.org/2000/svg" xmlns:xlink="http://www.w3.org/1999/xlink" version="1.1"><path d="M0 367L21.5 364.8C43 362.7 86 358.3 128.8 372C171.7 385.7 214.3 417.3 257.2 429C300 440.7 343 432.3 385.8 426C428.7 419.7 471.3 415.3 514.2 402.3C557 389.3 600 367.7 642.8 368.2C685.7 368.7 728.3 391.3 771.2 392.7C814 394 857 374 878.5 364L900 354L900 601L878.5 601C857 601 814 601 771.2 601C728.3 601 685.7 601 642.8 601C600 601 557 601 514.2 601C471.3 601 428.7 601 385.8 601C343 601 300 601 257.2 601C214.3 601 171.7 601 128.8 601C86 601 43 601 21.5 601L0 601Z" fill="#184a7e"></path><path d="M0 455L21.5 460.2C43 465.3 86 475.7 128.8 474.5C171.7 473.3 214.3 460.7 257.2 458.8C300 457 343 466 385.8 472C428.7 478 471.3 481 514.2 472.8C557 464.7 600 445.3 642.8 437.8C685.7 430.3 728.3 434.7 771.2 443.7C814 452.7 857 466.3 878.5 473.2L900 480L900 601L878.5 601C857 601 814 601 771.2 601C728.3 601 685.7 601 642.8 601C600 601 557 601 514.2 601C471.3 601 428.7 601 385.8 601C343 601 300 601 257.2 601C214.3 601 171.7 601 128.8 601C86 601 43 601 21.5 601L0 601Z" fill="#1d5794"></path><path d="M0 495L21.5 499C43 503 86 511 128.8 518.3C171.7 525.7 214.3 532.3 257.2 536.3C300 540.3 343 541.7 385.8 538.7C428.7 535.7 471.3 528.3 514.2 522.7C557 517 600 513 642.8 514.5C685.7 516 728.3 523 771.2 524.7C814 526.3 857 522.7 878.5 520.8L900 519L900 601L878.5 601C857 601 814 601 771.2 601C728.3 601 685.7 601 642.8 601C600 601 557 601 514.2 601C471.3 601 428.7 601 385.8 601C343 601 300 601 257.2 601C214.3 601 171.7 601 128.8 601C86 601 43 601 21.5 601L0 601Z" fill="#2264ab"></path></svg>