<svg id="visual" viewBox="0 0 900 600" width="900" height="600" xmlns="http://www.w3.org/2000/svg" xmlns:xlink="http://www.w3.org/1999/xlink" version="1.1"><path d="M0 356L21.5 364.3C43 372.7 86 389.3 128.8 386.7C171.7 384 214.3 362 257.2 371.7C300 381.3 343 422.7 385.8 428.2C428.7 433.7 471.3 403.3 514.2 386.5C557 369.7 600 366.3 642.8 368C685.7 369.7 728.3 376.3 771.2 372.5C814 368.7 857 354.3 878.5 347.2L900 340L900 601L878.5 601C857 601 814 601 771.2 601C728.3 601 685.7 601 642.8 601C600 601 557 601 514.2 601C471.3 601 428.7 601 385.8 601C343 601 300 601 257.2 601C214.3 601 171.7 601 128.8 601C86 601 43 601 21.5 601L0 601Z" fill="#184a7e"></path><path d="M0 461L21.5 460.2C43 459.3 86 457.7 128.8 468.5C171.7 479.3 214.3 502.7 257.2 505C300 507.3 343 488.7 385.8 480.2C428.7 471.7 471.3 473.3 514.2 474.8C557 476.3 600 477.7 642.8 470.5C685.7 463.3 728.3 447.7 771.2 449C814 450.3 857 468.7 878.5 477.8L900 487L900 601L878.5 601C857 601 814 601 771.2 601C728.3 601 685.7 601 642.8 601C600 601 557 601 514.2 601C471.3 601 428.7 601 385.8 601C343 601 300 601 257.2 601C214.3 601 171.7 601 128.8 601C86 601 43 601 21.5 601L0 601Z" fill="#2264ab"></path></svg>