<svg id="visual" viewBox="0 0 900 600" width="900" height="600" xmlns="http://www.w3.org/2000/svg" xmlns:xlink="http://www.w3.org/1999/xlink" version="1.1"><rect x="0" y="0" width="900" height="600" fill="#001220"></rect><g fill="#2264ab"><circle r="83" cx="592" cy="395"></circle><circle r="6" cx="372" cy="537"></circle><circle r="9" cx="288" cy="94"></circle><circle r="18" cx="587" cy="154"></circle><circle r="22" cx="6" cy="411"></circle><circle r="11" cx="880" cy="80"></circle><circle r="41" cx="328" cy="290"></circle><circle r="27" cx="811" cy="438"></circle><circle r="78" cx="135" cy="240"></circle><circle r="62" cx="730" cy="260"></circle><circle r="80" cx="12" cy="61"></circle><circle r="39" cx="586" cy="574"></circle><circle r="37" cx="691" cy="17"></circle><circle r="55" cx="92" cy="558"></circle><circle r="27" cx="215" cy="428"></circle><circle r="25" cx="758" cy="598"></circle><circle r="43" cx="477" cy="20"></circle><circle r="42" cx="896" cy="257"></circle></g></svg>