<svg xmlns="http://www.w3.org/2000/svg" fill="#FFFFFF" xmlns:xlink="http://www.w3.org/1999/xlink" version="1.1" x="0px" y="0px" viewBox="0 0 40 50" enable-background="new 0 0 40 40" xml:space="preserve"><path fill-rule="evenodd" clip-rule="evenodd" d="M19.4,27c-1.9,0.1-3.4,0.7-3.4,1.5c0,0.8,1.8,1.5,4,1.5  c2.2,0,4-0.7,4-1.5c0-0.7-1.5-1.4-3.4-1.5c1.1-2.3,4.4-8.9,5.9-12.5c0,0,0.5-1.3,0.5-2.2C27,8.8,23.9,6,20,6c-3.9,0-7,2.8-7,6.3  c0,0.9,0.5,2.2,0.5,2.2C15,18.1,18.3,24.7,19.4,27z M20,11c1.1,0,2,0.9,2,2c0,1.1-0.9,2-2,2c-1.1,0-2-0.9-2-2C18,11.9,18.9,11,20,11  z M31,24h-6l-1,2h6l3,6H7l3-6h6l-1-2H9L3,34h34L31,24z"/></svg>