<svg xmlns="http://www.w3.org/2000/svg" xmlns:xlink="http://www.w3.org/1999/xlink" version="1.1" x="0px" y="0px" viewBox="0 0 64 80" enable-background="new 0 0 64 64" xml:space="preserve"><g><g><path d="M3.267,22.431c0.144-0.502,0.287-1.004,0.433-1.505c0.532-1.823,1.481-3.396,2.772-4.787    c0.863-0.93,1.879-1.664,2.942-2.306c1.546-0.934,3.541-0.604,4.693,0.895c1.261,1.642,2.491,3.309,3.733,4.966    c0.716,0.955,1.424,1.917,2.144,2.869c1.283,1.697,1.077,3.815-0.573,5.184c-1.039,0.862-2.144,1.643-3.227,2.45    c-0.302,0.225-0.629,0.415-0.945,0.621c1.169,3.212,2.482,6.241,4.37,8.99c2.915,4.244,5.909,6.682,9.152,9.05    c0.888-0.675,1.787-1.363,2.69-2.046c0.457-0.345,0.909-0.697,1.38-1.023c1.394-0.963,3.011-0.997,4.359,0.011    c0.523,0.391,0.923,0.963,1.325,1.494c1.779,2.351,3.53,4.723,5.309,7.074c0.506,0.669,0.704,1.43,0.82,2.231    c-0.048,0.338-0.097,0.676-0.145,1.014c-0.241,0.432-0.413,0.927-0.737,1.285c-1.02,1.129-2.256,2.006-3.621,2.663    c-2.512,1.208-5.128,1.524-7.86,0.818c-2.922-0.756-5.602-2.034-8.131-3.648c-1.986-1.267-3.821-2.737-5.543-4.341    c-2.16-2.013-4.138-4.199-5.924-6.55C10.951,45.56,9.3,43.224,7.819,40.77c-1.686-2.794-3.154-5.684-4.055-8.837    c-0.522-1.825-0.836-3.679-0.831-5.582c0.002-0.534,0.001-1.069,0.002-1.603C3.046,23.976,3.157,23.203,3.267,22.431z"/></g><g><g><circle cx="36.812" cy="16.5" r="2.888"/><circle cx="44.643" cy="16.5" r="2.888"/><circle cx="52.475" cy="16.5" r="2.888"/></g><path d="M44.643,1.25c-9.056,0-16.424,6.958-16.424,15.51c0,3.934,1.562,7.68,4.402,10.566l-0.651,1.302    c-0.687,1.372-0.482,3.007,0.523,4.166l0.048,0.055c0.716,0.794,1.74,1.249,2.808,1.249c0.456,0,0.903-0.081,1.328-0.241    l4.937-1.852c0.993,0.175,2.012,0.264,3.029,0.264c9.056,0,16.424-6.958,16.424-15.51C61.067,8.208,53.699,1.25,44.643,1.25z     M34.062,29.674l1.443-2.887l-0.24-0.201c-2.991-2.506-4.706-6.087-4.706-9.827c0-7.262,6.318-13.171,14.085-13.171    c7.766,0,14.085,5.908,14.085,13.171c0,7.262-6.318,13.171-14.085,13.171c-1.051,0-2.099-0.109-3.115-0.324l-0.113-0.024    l-5.559,2.085c-0.163,0.061-0.333,0.092-0.506,0.092c-0.407,0-0.797-0.174-1.071-0.476C33.88,30.839,33.795,30.207,34.062,29.674z    "/></g></g></svg>