<svg xmlns="http://www.w3.org/2000/svg" fill="#FFFFFF" xmlns:xlink="http://www.w3.org/1999/xlink" version="1.1" x="0px" y="0px" viewBox="0 0 160 200" style="enable-background:new 0 0 160 160;" xml:space="preserve"><path d="M153.252,18.309c-0.013-0.075-0.025-0.141-0.04-0.203c-0.057-0.258-0.132-0.485-0.223-0.684l-0.07-0.171  c-0.086-0.166-0.243-0.395-0.419-0.607l-0.253-0.275c-0.027-0.034-0.056-0.067-0.087-0.095c-0.052-0.048-0.107-0.087-0.181-0.136  l-0.255-0.188c-0.242-0.156-0.493-0.281-0.767-0.377l-0.142-0.036c-0.215-0.064-0.431-0.105-0.661-0.128l-0.202-0.019  c-0.261-0.014-0.522,0.005-0.824,0.065l-0.063,0.021c-0.247,0.059-0.479,0.14-0.691,0.242l-0.181,0.072L8.593,86.921  c-1.225,0.625-1.968,1.915-1.894,3.286c0.072,1.315,0.88,2.473,2.076,2.994l43.934,16.683l12.921,32.934  c0.104,0.189,0.212,0.354,0.347,0.52l0.065,0.068c0.111,0.128,0.234,0.251,0.357,0.355l0.163,0.133  c0.105,0.081,0.204,0.146,0.305,0.206l0.193,0.116c0.095,0.048,0.202,0.093,0.308,0.134l0.119,0.05  c0.211,0.078,0.349,0.108,0.475,0.133l0.14,0.033c0.179,0.031,0.355,0.048,0.537,0.048c0.224,0,0.455-0.024,0.703-0.074l0.155-0.036  c0.215-0.053,0.404-0.116,0.568-0.189l0.144-0.058c0.131-0.064,0.32-0.185,0.512-0.325l0.134-0.104  c0.213-0.174,0.373-0.328,0.5-0.485l17.518-21.521l51.172,12.222c0.99,0.233,2.031,0.025,2.849-0.57  c0.824-0.597,1.343-1.52,1.423-2.533l8.987-111.846C153.313,18.836,153.299,18.603,153.252,18.309z M145.382,30.871l-7.671,95.465  L84.983,113.74L145.382,30.871z M128.072,33.847l-75.72,68.465l-33.61-12.759L128.072,33.847z M76.457,114.075l-0.212-0.133  c-0.071,0.103-0.132,0.215-0.198,0.342l-0.075,0.138c-0.02,0.034-0.039,0.067-0.051,0.095l-7.165,17.307l-10.103-25.83  l68.546-61.982l-50.892,69.83c-0.018,0.031-0.036,0.063-0.057,0.093L76.457,114.075z"/></svg>