<svg xmlns="http://www.w3.org/2000/svg" xmlns:xlink="http://www.w3.org/1999/xlink" xml:space="preserve" version="1.1" style="shape-rendering:geometricPrecision;text-rendering:geometricPrecision;image-rendering:optimizeQuality;" viewBox="0 0 433.38 370.4625" x="0px" y="0px" fill-rule="evenodd" clip-rule="evenodd"><defs><style type="text/css">
   
    .fil0 {fill: #09A98F;fill-rule:nonzero}
   
  </style></defs><g><path class="fil0" d="M34.49 0l364.41 0c18.99,0 34.48,15.5 34.48,34.49l0 227.4c0,18.98 -15.49,34.48 -34.48,34.48l-364.41 0c-18.99,0 -34.49,-15.5 -34.49,-34.48l0 -227.4c0,-18.99 15.5,-34.49 34.49,-34.49zm-0.01 20.52l167.7 172.67c8.55,8.8 20.49,8.8 29.03,0l167.7 -172.67 -0.01 0 -364.41 0 -0.01 0zm378.39 14.98l-104.39 107.5 104.39 114.18 0 -221.68zm-118.64 122.17l-48.36 49.79c-16.63,17.12 -41.73,17.12 -58.35,0l-48.36 -49.79 -107.74 117.84c0.99,0.23 2.02,0.35 3.07,0.35l364.41 0c1.05,0 2.08,-0.12 3.06,-0.35l-107.73 -117.84zm-169.32 -14.67l-104.39 -107.5 0 221.68 104.39 -114.18z"/></g></svg>