<svg xmlns="http://www.w3.org/2000/svg" xmlns:xlink="http://www.w3.org/1999/xlink" viewBox="-2683 15757 116.924 120">
  <defs>
    <style>
      .cls-1 {
        fill: url(#linear-gradient);
      }
    </style>
    <linearGradient id="linear-gradient" x2="1.121" y2="1" gradientUnits="objectBoundingBox">
      <stop offset="0" stop-color="#ff9600"/>
      <stop offset="1" stop-color="#de0063"/>
    </linearGradient>
  </defs>
  <path id="Path_794" data-name="Path 794" class="cls-1" d="M88.821,119.727h0l-59.182-.293a1.174,1.174,0,1,1,0-2.348h0l59.084.293c.978-.2,9.978-1.859,14.967-6.945,12.619-11.641,8.8-48.03,7.337-61.823v-.2c-.293-2.837-.587-4.989-.783-6.75-.978-7.63-1.174-8.8,2.641-19.955,2.543-7.63,1.761-9.489,1.467-9.88-.2-.2-.391-.2-.88-.2a1.935,1.935,0,0,1-.978-.2c-.1-.1-.489-.293-6.456-5.38-4.989-3.522-8.8-4.7-11.054-3.424-2.935,1.761-3.032,7.826-2.837,9.978a1.178,1.178,0,0,1-2.348.2c0-.391-.978-9.391,3.913-12.228,3.13-1.859,7.728-.685,13.6,3.522a.1.1,0,0,1,.1.1c2.446,2.054,5.087,4.3,5.967,4.989a3.312,3.312,0,0,1,2.739,1.076c.88,1.174,1.663,3.619-1.174,12.032-3.619,10.662-3.522,11.445-2.543,18.879.2,1.761.489,4.011.783,6.847v.2c1.663,15.358,5.478,51.356-8.021,63.681-5.869,5.869-15.945,7.532-16.336,7.532C88.919,119.727,88.821,119.727,88.821,119.727ZM20.151,116.5a.733.733,0,0,1-.489-.1A34.764,34.764,0,0,1,0,85.1,34.811,34.811,0,0,1,67.692,73.653a26.681,26.681,0,0,1,13.891-6.847c.2-1.663.685-4.6.685-4.6.293-2.348.685-4.7,1.174-6.945a98.607,98.607,0,0,1,2.935-11.054c.293-.88.685-1.761,1.076-2.641,1.076-2.543,2.152-5.087,1.467-7.239a10.076,10.076,0,0,0-2.837-3.913c-1.467-1.565-3.228-3.326-3.717-6.163-.391-2.446,0-4.4,1.272-5.674,1.565-1.663,4.4-2.152,8.315-1.663h.293c4.891.685,5.674.1,5.771-.1h0a2.1,2.1,0,0,0-.489-.978,1.194,1.194,0,0,1,1.956-1.369c.88,1.369,1.076,2.543.489,3.522-1.174,1.859-4.6,1.663-8.119,1.174H91.56c-3.13-.391-5.282-.1-6.261.978a4.162,4.162,0,0,0-.685,3.619c.391,2.152,1.663,3.522,3.13,4.989a13.155,13.155,0,0,1,3.326,4.793c.978,2.935-.391,6.163-1.565,8.9a21.126,21.126,0,0,0-.978,2.446,73.4,73.4,0,0,0-2.837,10.76c-.489,2.25-.88,4.6-1.174,6.847,0,0-.685,4.3-.783,5.478a1.14,1.14,0,0,1-.978.978,24.534,24.534,0,0,0-14.771,7.728,1.258,1.258,0,0,1-1.174.391,1.194,1.194,0,0,1-.88-.783A32.4,32.4,0,0,0,2.348,85.1,32.084,32.084,0,0,0,7.728,103,32.569,32.569,0,0,0,20.64,114.249a1.271,1.271,0,0,1,.587,1.565A1.058,1.058,0,0,1,20.151,116.5Z" transform="translate(-2683 15757.273)"/>
</svg>
