<?xml version="1.0"?>
<svg xmlns="http://www.w3.org/2000/svg" id="Layer_1" data-name="Layer 1" viewBox="0 0 512 512" width="512" height="512"><title>Mobile Hand</title><path d="M344.682,92.581h9.078a6,6,0,0,0,0-12h-9.078a6,6,0,0,0,0,12Z"/><path d="M314.034,314.42a15.723,15.723,0,1,0,15.723,15.724A15.741,15.741,0,0,0,314.034,314.42Zm0,19.446a3.723,3.723,0,1,1,3.723-3.722A3.727,3.727,0,0,1,314.034,333.866Z"/><path d="M429.551,245.081a28.929,28.929,0,0,0-1.879-48.226,28.918,28.918,0,0,0-1.285-52.5,28.926,28.926,0,0,0-18.846-53.828V64.705a27.908,27.908,0,0,0-27.877-27.877H248.4a27.909,27.909,0,0,0-27.877,27.877v89.18L138.64,235.67a65.5,65.5,0,0,0-17.61,61.58l.14.6a26.962,26.962,0,0,1-7.182,25.366c-16.985,16.961-44.6,44.574-44.6,44.574l8.486,8.486s27.611-27.611,44.593-44.57a38.883,38.883,0,0,0,10.39-36.578l-.14-.6a53.573,53.573,0,0,1,14.4-50.368l73.406-73.315v47.486l-40.361,31.958a6,6,0,0,0,7.449,9.408l44.531-35.259h.381v-.3L288.3,179.97l3.942,3.941a26.754,26.754,0,0,1,0,37.834l-39.164,39.164A32.54,32.54,0,0,0,243.6,282.06c-.007.115-.01.317-.01.432a49.78,49.78,0,0,0,4.754,20.76,24.957,24.957,0,0,1,1.766,6.039v.6h.1a57.014,57.014,0,0,1,.5,11.324A76.508,76.508,0,0,1,228,371.934,61.962,61.962,0,0,1,183.9,390.2h-.51a6,6,0,0,0,0,12h.51a73.874,73.874,0,0,0,52.585-21.781A91.384,91.384,0,0,0,250.473,362.4h86.221l-39.03,55.548a44.616,44.616,0,0,1-59.684,12.38c-10.73-6.567-26.1-4.744-35,4.153L172.528,464.93a6,6,0,1,0,8.485,8.484l30.453-30.453c4.889-4.889,14.352-6.012,20.25-2.4a56.638,56.638,0,0,0,75.766-15.716L351.359,362.4h28.305a27.908,27.908,0,0,0,27.877-27.877v-30.73a28.721,28.721,0,0,0,11.3-3.473l10.326-4.557.091-.041c.155-.072.316-.155.469-.241a28.916,28.916,0,0,0-.175-50.4ZM419.235,237.2,398.1,246.091a16.93,16.93,0,0,1-13.13-31.211l21.135-8.892A16.93,16.93,0,1,1,419.235,237.2Zm11.271-72.862a16.929,16.929,0,0,1-9.04,22.17l-31.7,13.338a16.932,16.932,0,0,1-22.171-9.041h0a16.95,16.95,0,0,1,9.04-22.171l31.7-13.338a16.931,16.931,0,0,1,22.17,9.041Zm-11.735-60.966a16.93,16.93,0,0,1,.173,31.282l-42.272,17.785A16.95,16.95,0,0,1,354.5,143.4h0a16.928,16.928,0,0,1,9.04-22.17l42.272-17.785A16.823,16.823,0,0,1,418.771,103.371ZM261.566,269.4l39.165-39.165a38.752,38.752,0,0,0,0-54.8l-7.72-7.72a6,6,0,0,0-7.967-.462l-52.518,41.584V92.581h89.043a6,6,0,0,0,0-12H232.526V64.705A15.9,15.9,0,0,1,248.4,48.828H379.664a15.9,15.9,0,0,1,15.877,15.877V80.581H377.233a6,6,0,0,0,0,12h18.308v2.165l-36.652,15.42A28.928,28.928,0,0,0,343.44,148.05h0a28.878,28.878,0,0,0,18.545,16.53,28.964,28.964,0,0,0-5.456,30.876h0a28.71,28.71,0,0,0,14.229,14.9,28.926,28.926,0,0,0,9.85,46.918c.354.145.71.276,1.067.406a28.9,28.9,0,0,0,5.48,40.212H259.093a37.9,37.9,0,0,1-3.508-15.307A20.555,20.555,0,0,1,261.566,269.4Zm118.1,81H256.426a86.5,86.5,0,0,0,6.262-28.656,71.878,71.878,0,0,0-.392-11.849H395.541v24.628A15.9,15.9,0,0,1,379.664,350.4Zm44.368-65.489-10.3,4.546a5.768,5.768,0,0,0-.538.272,16.931,16.931,0,0,1-16.954-29.31l10.3-4.545a6.014,6.014,0,0,0,.538-.271,16.93,16.93,0,0,1,16.954,29.308Z"/></svg>
