<svg height="452pt" viewBox="0 -24 452 452" width="452pt" xmlns="http://www.w3.org/2000/svg"><path d="m36.398438 319.800781h127.652343v72.011719h-27.941406c-3.3125 0-6 2.6875-6 6 0 3.316406 2.6875 6 6 6h185.042969c3.3125 0 6-2.683594 6-6 0-3.3125-2.6875-6-6-6h-33.199219v-72.011719h127.652344c20.089843-.023437 36.371093-16.304687 36.394531-36.394531v-247.011719c-.023438-20.089843-16.304688-36.3710935-36.394531-36.394531h-379.207031c-20.089844.0195312-36.3750005 16.300781-36.398438 36.394531v247.011719c.0234375 20.09375 16.308594 36.371094 36.398438 36.394531zm239.554687 72.011719h-99.898437v-72.011719h99.898437zm-263.953125-355.417969c.015625-13.46875 10.929688-24.382812 24.398438-24.394531h379.210937c13.464844.019531 24.375 10.929688 24.390625 24.394531v216.097657c-.730469-.304688-1.519531-.460938-2.3125-.460938h-423.375c-.792969 0-1.582031.15625-2.3125.460938zm0 227.175781c.730469.308594 1.519531.464844 2.3125.464844h423.375c.792969 0 1.582031-.15625 2.3125-.464844v19.835938c-.015625 13.46875-10.929688 24.378906-24.394531 24.394531h-379.207031c-13.46875-.011719-24.382813-10.925781-24.398438-24.394531zm0 0"/><path d="m40.398438 193.898438h122.15625c12.523437 23.398437 36.90625 38 63.445312 38s50.921875-14.601563 63.445312-38h122.15625c5.738282-.003907 10.390626-4.65625 10.398438-10.398438v-47.199219c-.007812-5.742187-4.660156-10.394531-10.398438-10.402343h-122.15625c-12.523437-23.394532-36.90625-38-63.445312-38s-50.921875 14.605468-63.445312 38h-122.15625c-5.738282.007812-10.390626 4.660156-10.398438 10.402343v47.199219c.007812 5.742188 4.660156 10.394531 10.398438 10.398438zm254.152343-56h115.449219v44h-115.449219c4.597657-14.304688 4.597657-29.695313 0-44zm-68.550781-38c33.136719 0 60 26.863281 60 60 0 33.136718-26.863281 60-60 60s-60-26.863282-60-60c.039062-33.121094 26.878906-59.960938 60-60zm-184 38h115.449219c-4.597657 14.304687-4.597657 29.695312 0 44h-115.449219zm0 0"/><path d="m119.347656 148.636719c-6.21875 0-11.261718 5.042969-11.261718 11.261719 0 6.222656 5.042968 11.261718 11.261718 11.261718 6.222656 0 11.265625-5.039062 11.265625-11.261718-.007812-6.21875-5.046875-11.253907-11.265625-11.261719zm0 12c-.40625 0-.734375-.332031-.734375-.738281s.328125-.738282.734375-.738282c.410156 0 .738282.332032.738282.738282s-.332032.738281-.738282.738281zm0 0"/><path d="m332.652344 171.160156c6.21875 0 11.261718-5.039062 11.261718-11.261718 0-6.21875-5.042968-11.261719-11.261718-11.261719-6.222656 0-11.265625 5.042969-11.265625 11.261719.007812 6.21875 5.046875 11.257812 11.265625 11.261718zm0-12c.40625 0 .734375.332032.734375.738282s-.328125.738281-.734375.738281c-.410156 0-.738282-.332031-.738282-.738281s.332032-.734376.738282-.738282zm0 0"/><path d="m66.023438 148.636719c-6.21875 0-11.261719 5.042969-11.261719 11.261719 0 6.222656 5.042969 11.265624 11.261719 11.261718 6.222656 0 11.261718-5.039062 11.261718-11.261718-.003906-6.21875-5.042968-11.253907-11.261718-11.261719zm0 12c-.40625 0-.738282-.332031-.738282-.738281s.332032-.738282.738282-.738282.738281.332032.738281.738282-.332031.738281-.738281.738281zm0 0"/><path d="m385.976562 171.160156c6.21875 0 11.261719-5.042968 11.261719-11.261718s-5.042969-11.261719-11.261719-11.261719c-6.222656 0-11.261718 5.042969-11.261718 11.261719.003906 6.21875 5.042968 11.257812 11.261718 11.261718zm0-12c.40625 0 .738282.332032.738282.738282s-.332032.738281-.738282.738281-.738281-.332031-.738281-.738281.332031-.738282.738281-.738282zm0 0"/><path d="m214.121094 181.851562c2.34375 2.339844 6.144531 2.339844 8.484375 0l35.417969-35.417968c1.535156-1.511719 2.144531-3.730469 1.589843-5.8125-.550781-2.085938-2.179687-3.710938-4.261719-4.265625-2.082031-.550781-4.300781.058593-5.8125 1.59375l-31.175781 31.171875-15.898437-15.898438c-2.34375-2.34375-6.140625-2.34375-8.484375 0s-2.34375 6.140625 0 8.484375zm0 0"/></svg>