<?xml version="1.0" encoding="utf-8"?>
<!-- Generator: Adobe Illustrator 18.0.0, SVG Export Plug-In . SVG Version: 6.00 Build 0)  -->
<!DOCTYPE svg PUBLIC "-//W3C//DTD SVG 1.1//EN" "http://www.w3.org/Graphics/SVG/1.1/DTD/svg11.dtd">
<svg version="1.1" id="Layer_1" xmlns="http://www.w3.org/2000/svg" xmlns:xlink="http://www.w3.org/1999/xlink" x="0px" y="0px"
	 viewBox="0 0 64 64" enable-background="new 0 0 64 64" xml:space="preserve">
<g>
	<g>
		<g>
			<path fill="#FF6A4D" d="M32,0c17.7,0,32,14.3,32,32S49.7,64,32,64C14.3,64,0,49.7,0,32S14.3,0,32,0z"/>
		</g>
	</g>
	<g>
		<g>
			<polygon fill="#FFC533" points="51.6,32 40.3,20.6 39.3,19.6 44.9,14 58,27.1 52.4,32.8 			"/>
		</g>
	</g>
	<g>
		<g>
			<polygon fill="#FFFFFF" points="40.3,20.6 51.6,32 48.5,35.2 47.7,34.3 38,24.4 37.3,23.7 			"/>
		</g>
	</g>
	<g>
		<g>
			<path fill="#F9DAC5" d="M26.1,29.8l2.9-3l0.5-0.5c0.5-0.5,1.3-0.8,2.1-0.8l4.3,0.3c0.4,0,0.8-0.1,1-0.4l1.1-1.1l9.6,9.9l-0.7,0.8
				c-0.2,0.2-0.5,0.5-0.7,0.7L43,40l0,0l-6.7-6.8c-2.1,0-4-0.8-4.8-1.9l0,0L27.7,35c-0.3,0.3-0.7,0.5-1.2,0.5
				c-0.7,0-1.4-0.4-1.9-0.9c-0.8-0.8-0.9-2.3-0.1-3.2L26.1,29.8z"/>
		</g>
	</g>
	<g>
		<g>
			<path fill="#E2BB9F" d="M44.3,41.3L43,40l-6.7-6.8c-2.1,0-4-0.8-4.8-1.9l0,0L27.7,35c-0.3,0.3-0.7,0.5-1.2,0.5
				c-0.7,0-1.4-0.4-1.9-0.9c-0.8-0.8-0.9-2.3-0.1-3.2l1.6-1.6l2.9-3l0.5-0.5l-2.1-0.7c-0.2-0.1-0.4-0.3-0.6-0.4l-1.1-1.1l-9.6,9.3
				l3,5.2l0.5,0.5l1-1c0.7-0.7,1.9-0.7,2.6,0c0.3,0.4,0.5,0.8,0.5,1.3c0,0.5-0.2,1-0.5,1.3l-0.9,0.9l0.3,0.3l1.4-1.4
				c0.7-0.7,1.8-0.7,2.5,0l0.1,0.1c0.7,0.7,0.7,1.9,0,2.6l-1.4,1.4l0.3,0.3l1.2-1.2c0.7-0.7,1.8-0.7,2.5,0l0.1,0.1
				c0.7,0.7,0.7,1.9,0,2.6l-1.2,1.2l0.3,0.3l0.6-0.6c0.7-0.7,1.9-0.7,2.6,0.1c0.3,0.4,0.5,0.8,0.5,1.2c0,0.5-0.2,1-0.6,1.4l-0.5,0.5
				l0.1,0.1l1,0.9c0.3,0.3,0.9,0.5,1.4,0.5c0.5,0,1.1-0.2,1.4-0.5c0.7-0.7,0.7-2.1,0-2.8l0,0l0.5,0.5c0.4,0.4,1.1,0.6,1.7,0.6
				c0.5,0,1-0.1,1.2-0.4c0.7-0.7,0.7-1.7,0.3-2.4c0.3,0.4,1,0.6,1.6,0.6c0.5,0,1-0.1,1.3-0.5c0.7-0.7,0.7-2.1,0.1-2.7l0,0
				c0.4,0.3,0.8,0.4,1.3,0.4c0.5,0,1-0.2,1.4-0.5C45,43.5,45,42,44.3,41.3z"/>
		</g>
	</g>
	<g>
		<g>
			<path fill="#F9DAC5" d="M31.5,47.4c-0.7-0.8-1.8-0.8-2.6-0.1l-0.6,0.6l-0.7,0.6c-0.4,0.4-0.6,0.9-0.6,1.4c0,0.5,0.2,0.9,0.5,1.3
				c0.7,0.8,1.8,0.8,2.5,0.1l0.8-0.8l0.5-0.5c0.4-0.4,0.6-0.9,0.6-1.4C32,48.2,31.8,47.7,31.5,47.4z"/>
		</g>
	</g>
	<g>
		<g>
			<path fill="#FFF4EE" d="M26.6,30.4l2.2,2.4l-1.4,1.4c-0.6,0.6-1.6,0.6-2.2-0.1L25.1,34c-0.6-0.6-0.5-1.7,0.1-2.2L26.6,30.4z"/>
		</g>
	</g>
	<g>
		<g>
			<path fill="#F9DAC5" d="M29.2,43.8L29.2,43.8c-0.8-0.8-1.9-0.8-2.6-0.1l-1.2,1.2l-1.2,1.2c-0.7,0.7-0.7,1.9,0,2.6l0.1,0.1
				c0.7,0.7,1.8,0.7,2.5,0l1.2-1.2l1.2-1.2C29.9,45.7,29.9,44.5,29.2,43.8z"/>
		</g>
	</g>
	<g>
		<g>
			<polygon fill="#FFFFFF" points="26.5,23.4 25.8,24.1 16.2,33.4 15.2,34.3 12.4,31.4 23.5,20.4 			"/>
		</g>
	</g>
	<g>
		<g>
			<path fill="#F9DAC5" d="M26.5,40.7L26.5,40.7c-0.8-0.8-1.9-0.8-2.6-0.1L22.5,42l-1.6,1.6c-0.7,0.7-0.7,1.9,0,2.6l0.1,0.1
				c0.7,0.7,1.9,0.7,2.5,0l1.6-1.7l1.4-1.4C27.2,42.6,27.2,41.4,26.5,40.7z"/>
		</g>
	</g>
	<g>
		<g>
			<path fill="#363949" d="M12.4,31.4l-0.8,0.9L6,26.7L18.6,14l5.6,5.6l-0.8,0.8L12.4,31.4z"/>
		</g>
	</g>
	<g>
		<g>
			<path fill="#F9DAC5" d="M23.2,38.1c-0.7-0.7-1.9-0.8-2.6,0l-1,1l-0.5,0.5c-0.4,0.4-0.5,0.9-0.5,1.3c0,0.5,0.2,0.9,0.5,1.3
				c0.7,0.7,1.9,0.8,2.6,0l0.6-0.6l0.9-0.9c0.4-0.4,0.5-0.9,0.5-1.3C23.7,39,23.5,38.5,23.2,38.1z"/>
		</g>
	</g>
	<g>
		<g>
			<path fill="#FFFFFF" d="M12.6,25.7c0.5,0.5,0.5,1.4,0,1.9c-0.5,0.5-1.4,0.5-1.9,0c-0.5-0.5-0.5-1.4,0-1.9
				C11.2,25.2,12,25.2,12.6,25.7z"/>
		</g>
	</g>
	<g>
		<g>
			<path fill="#FFF4EE" d="M22.7,38.7c0.4,0.5,0.5,1.2,0.1,1.5l-0.9,0.9l-1.6-1.8l0.9-0.9C21.5,38,22.2,38.1,22.7,38.7L22.7,38.7z"
				/>
		</g>
	</g>
	<g>
		<g>
			<path fill="#FFF4EE" d="M31.1,47.9c0.4,0.5,0.5,1.1,0.2,1.4L30.6,50L29,48.1l0.7-0.7C30,47.2,30.6,47.3,31.1,47.9L31.1,47.9z"/>
		</g>
	</g>
	<g>
		<g>
			<path fill="#FFF4EE" d="M28.8,44.3c0.4,0.5,0.5,1.1,0.1,1.5L28,46.6l-1.7-1.8l0.8-0.8c0.4-0.3,1-0.3,1.4,0.2L28.8,44.3z"/>
		</g>
	</g>
	<g>
		<g>
			<path fill="#FFF4EE" d="M26.2,41c0.4,0.5,0.4,1.2,0,1.7l-1,1l-1.7-1.9l1.1-1c0.4-0.4,1.2-0.4,1.6,0.1L26.2,41z"/>
		</g>
	</g>
</g>
</svg>
