<svg id="Capa_1" data-name="Capa 1" xmlns="http://www.w3.org/2000/svg" viewBox="0 0 608 154.38"><defs><style>.cls-1{fill:#b80f0f;}.cls-2{fill:#fff;}</style></defs><title>logotipo-el-ttrueque</title><path class="cls-1" d="M47.46,42.38V34a34,34,0,0,0-34-34H0V42.38Z"/><path class="cls-2" d="M98.57,0V0A40.14,40.14,0,0,0,59,40.15v74.08a40.15,40.15,0,0,0,40.15,40.15V55a12.6,12.6,0,0,1,12.59-12.59h35V0Z"/><circle class="cls-1" cx="134.25" cy="131.12" r="23.26"/><path class="cls-2" d="M227.73,44.5H209.48V30.22h52.33V44.5H243.57V91H227.73Z"/><path class="cls-2" d="M298.86,77.76V91a39.45,39.45,0,0,1-9.31,1.11c-13,0-20.27-6.27-20.27-18.7V58.23h-7V45h7V33.91h15.85V45h12.34V58.23H285.13V71.86c0,4.43,2.12,6.08,7.92,6.08Z"/><path class="cls-2" d="M337.56,59h-3.78c-7.28,0-11,3.31-11,11V91H307V45h14.46v4.88A14.52,14.52,0,0,1,333,44.22a14.13,14.13,0,0,1,4.52.74Z"/><path class="cls-2" d="M343.92,45h15.85V70.85a6.68,6.68,0,1,0,13.35,0V45H389v24.6c0,13.54-9.49,22.57-22.48,22.57s-22.57-9-22.57-22.57Z"/><path class="cls-2" d="M412.75,73.52c1.75,3.5,5.16,5.25,10.32,5.25a22.9,22.9,0,0,0,12.07-3.59L440.85,86a29.59,29.59,0,0,1-18.33,6.17c-15,0-25.89-10.5-25.89-24.14s10.87-24.13,24.6-24.13c13.26,0,22,9.94,22,21.83a31.1,31.1,0,0,1-1,7.83ZM428.23,63.2c-.09-4.14-3.5-6.91-7.65-6.91-4,0-7.19,2.49-8.38,6.91Z"/><path class="cls-2" d="M498.71,45v62.65H482.87V87.89c-3,2.86-6.91,4.24-11.79,4.24C458.36,92.13,449,81.91,449,67.9s9.21-24,22.11-24c5.89,0,10.31,1.93,13.17,5.89V45Zm-24.5,13.27c-5.07,0-9,3.59-9,9.76s4.15,9.77,9,9.77,8.93-3.59,8.93-9.86S479.09,58.23,474.21,58.23Z"/><path class="cls-2" d="M508.68,45h15.84V70.85a6.68,6.68,0,1,0,13.36,0V45h15.85v24.6c0,13.54-9.49,22.57-22.49,22.57s-22.56-9-22.56-22.57Z"/><path class="cls-2" d="M577.5,73.52c1.75,3.5,5.16,5.25,10.32,5.25a22.87,22.87,0,0,0,12.07-3.59L605.6,86a29.55,29.55,0,0,1-18.33,6.17c-15,0-25.89-10.5-25.89-24.14S572.25,43.86,586,43.86c13.26,0,22,9.94,22,21.83a30.65,30.65,0,0,1-1,7.83ZM593,63.2c-.09-4.14-3.5-6.91-7.64-6.91-4,0-7.19,2.49-8.39,6.91Z"/><path class="cls-2" d="M205.56,124.54h3.27l3.52,9.49,3.52-9.49h3.19l-5.44,13.56H211Z"/><path class="cls-2" d="M221.12,124.54h10.17v2.63h-7.22v2.74h6.35v2.63h-6.35v2.83h7.31V138H221.12Z"/><path class="cls-2" d="M234,124.54h2.74l6.31,8.29v-8.29H246V138h-2.52l-6.52-8.57V138H234Z"/><path class="cls-2" d="M249.19,124.54h5.25c4.24,0,7.16,2.9,7.16,6.69v0c0,3.79-2.92,6.74-7.16,6.74h-5.25Zm3,2.67v8.12h2.29a3.83,3.83,0,0,0,4.06-4v0a3.86,3.86,0,0,0-4.06-4.06Z"/><path class="cls-2" d="M264.22,124.54h10.16v2.63h-7.22v2.74h6.35v2.63h-6.35v2.83h7.32V138H264.22Z"/><path class="cls-2" d="M277.1,124.54h6.16a5.37,5.37,0,0,1,3.92,1.36,4.24,4.24,0,0,1,1.16,3.08v0a4.19,4.19,0,0,1-2.89,4.18l3.29,4.81h-3.46l-2.89-4.31h-2.33V138h-3Zm6,6.54c1.44,0,2.27-.77,2.27-1.9v0c0-1.27-.89-1.93-2.33-1.93h-2.95v3.87Z"/><path class="cls-2" d="M300.55,132.69l-5.17-8.15h3.46l3.21,5.4,3.28-5.4h3.36l-5.17,8.1V138h-3Z"/><path class="cls-2" d="M315.69,131.31v0a6.84,6.84,0,0,1,7-7,7,7,0,0,1,5.31,2.07l-1.89,2.18A4.94,4.94,0,0,0,322.7,127a4,4,0,0,0-3.91,4.19v0a4,4,0,0,0,3.91,4.24,4.87,4.87,0,0,0,3.54-1.58l1.89,1.9a6.88,6.88,0,0,1-5.53,2.41A6.8,6.8,0,0,1,315.69,131.31Z"/><path class="cls-2" d="M329.49,131.31v0a7,7,0,0,1,7.19-7,6.89,6.89,0,0,1,7.13,6.92v0a7.16,7.16,0,0,1-14.32,0Zm11.23,0v0a4.09,4.09,0,0,0-4.08-4.23,4,4,0,0,0-4.05,4.19v0a4.1,4.1,0,0,0,4.09,4.24A4,4,0,0,0,340.72,131.31Z"/><path class="cls-2" d="M346.43,124.54h3.2l3.54,5.69,3.54-5.69h3.19V138H357v-8.8L353.17,135h-.08l-3.75-5.7V138h-2.91Z"/><path class="cls-2" d="M363.11,124.54h5.51c3.21,0,5.16,1.9,5.16,4.65v0c0,3.12-2.43,4.73-5.45,4.73h-2.25v4h-3Zm5.32,6.79a2.08,2.08,0,0,0,2.34-2v0c0-1.33-.92-2-2.4-2h-2.29v4.12Z"/><path class="cls-2" d="M376,124.54h6.16A5.39,5.39,0,0,1,386,125.9a4.23,4.23,0,0,1,1.15,3.08v0a4.19,4.19,0,0,1-2.88,4.18L387.6,138h-3.47l-2.89-4.31h-2.32V138h-3Zm6,6.54c1.44,0,2.27-.77,2.27-1.9v0c0-1.27-.88-1.93-2.33-1.93h-2.94v3.87Z"/><path class="cls-2" d="M394.47,124.44h2.74L403,138h-3.1l-1.23-3H393l-1.23,3h-3Zm3.12,7.93L395.8,128,394,132.37Z"/><path class="cls-2" d="M405,124.54h6.16a5.39,5.39,0,0,1,3.93,1.36,4.24,4.24,0,0,1,1.16,3.08v0a4.19,4.19,0,0,1-2.89,4.18l3.29,4.81h-3.46l-2.89-4.31H408V138h-3Zm6,6.54c1.44,0,2.28-.77,2.28-1.9v0c0-1.27-.89-1.93-2.33-1.93H408v3.87Z"/><path class="cls-2" d="M423.77,136.05l1.76-2.1a6.17,6.17,0,0,0,4,1.63c1.21,0,1.94-.48,1.94-1.27v0c0-.75-.46-1.13-2.71-1.71-2.71-.69-4.47-1.44-4.47-4.12v0c0-2.44,2-4.06,4.72-4.06a7.77,7.77,0,0,1,5,1.72l-1.53,2.23A6.33,6.33,0,0,0,429,127c-1.13,0-1.73.52-1.73,1.17v0c0,.89.58,1.18,2.91,1.77,2.73.72,4.27,1.7,4.27,4V134c0,2.67-2,4.17-4.95,4.17A8.6,8.6,0,0,1,423.77,136.05Z"/><path class="cls-2" d="M437.14,124.54h3V138h-3Z"/><path class="cls-2" d="M443.46,124.54h2.73l6.31,8.29v-8.29h2.93V138h-2.52l-6.53-8.57V138h-2.92Z"/><path class="cls-2" d="M464.41,124.54h5.25c4.24,0,7.16,2.9,7.16,6.69v0c0,3.79-2.92,6.74-7.16,6.74h-5.25Zm3,2.67v8.12h2.28a3.84,3.84,0,0,0,4.07-4v0a3.87,3.87,0,0,0-4.07-4.06Z"/><path class="cls-2" d="M479.58,124.54h3V138h-3Z"/><path class="cls-2" d="M485.9,124.54h2.74l6.31,8.29v-8.29h2.92V138h-2.52l-6.52-8.57V138H485.9Z"/><path class="cls-2" d="M501.09,124.54h10.16v2.63H504v2.74h6.35v2.63H504v2.83h7.32V138H501.09Z"/><path class="cls-2" d="M514,124.54h6.16a5.39,5.39,0,0,1,3.93,1.36,4.24,4.24,0,0,1,1.16,3.08v0a4.19,4.19,0,0,1-2.89,4.18l3.29,4.81h-3.46l-2.89-4.31h-2.33V138h-3Zm6,6.54c1.44,0,2.27-.77,2.27-1.9v0c0-1.27-.88-1.93-2.33-1.93h-2.94v3.87Z"/><path class="cls-2" d="M527.26,131.31v0a7,7,0,0,1,7.18-7,6.89,6.89,0,0,1,7.14,6.92v0a7.16,7.16,0,0,1-14.32,0Zm11.22,0v0a4.08,4.08,0,0,0-4.07-4.23,4,4,0,0,0-4,4.19v0a4.1,4.1,0,0,0,4.08,4.24A4,4,0,0,0,538.48,131.31Z"/></svg>