<svg xmlns="http://www.w3.org/2000/svg" data-name="Layer 2" viewBox="0 0 100 125" x="0px" y="0px"><path d="M50,5A45,45,0,1,0,95,50,45.05,45.05,0,0,0,50,5ZM41.57,60.08a21.41,21.41,0,0,1-1.77-6.36,3,3,0,0,0-1-2c-.35-.31-1.43-1.9-2.14-5.45-.53-2.64-.34-3.14-.15-3.61a8.27,8.27,0,0,0,.31-.92c.6-2.17-.12-8.48-.62-11.23a11.65,11.65,0,0,1,2.49-7.92c2.16-2.77,5.43-4.31,9.64-4.58h3.75c4.36.28,7.67,1.82,9.83,4.58a11.69,11.69,0,0,1,2.48,7.93c-.52,2.91-1.19,9.15-.62,11.23a7.63,7.63,0,0,0,.32.92c.17.46.37,1-.15,3.61-.72,3.57-1.79,5.14-2.16,5.46a3,3,0,0,0-1,2A21.71,21.71,0,0,1,59,60.08a18.11,18.11,0,0,0-2,7.55c0,2.37,0,6,4.21,7.29,4.95,1.47,12.9,4.16,18,6.09a43.12,43.12,0,0,1-58.34.19c4.76-1.86,12.63-4.64,18-6.21,4.15-1.31,4.15-4.9,4.15-7.28A18.29,18.29,0,0,0,41.57,60.08ZM81.13,79.62c-5-2-14-5-19.37-6.61C59.17,72.19,59,70.35,59,67.63a16.26,16.26,0,0,1,1.82-6.69,23.86,23.86,0,0,0,2-7,1,1,0,0,1,.33-.67c.87-.75,2.06-2.87,2.8-6.57.59-2.95.4-3.82.05-4.74a5.88,5.88,0,0,1-.25-.71c-.39-1.44,0-6.89.66-10.34a13.52,13.52,0,0,0-2.88-9.52c-2.53-3.23-6.32-5-11.34-5.34H48.24c-4.86.31-8.62,2.11-11.15,5.34a13.54,13.54,0,0,0-2.88,9.52c.63,3.46,1.06,8.91.66,10.35a6.37,6.37,0,0,1-.24.7c-.35.89-.55,1.76,0,4.74.74,3.69,1.93,5.81,2.79,6.56a1,1,0,0,1,.35.68,23.64,23.64,0,0,0,1.95,7,16.35,16.35,0,0,1,1.17,6.77c0,2.72-.19,4.57-2.73,5.36-5.87,1.74-14.5,4.81-19.18,6.7a43,43,0,1,1,62.11-.15Z"/></svg>