<svg xmlns="http://www.w3.org/2000/svg" viewBox="0 0 64 80" x="0px" y="0px"><g><path d="M23,22a7.968,7.968,0,0,0-2.257-5.556,5.985,5.985,0,0,1,6.455,1.27l1.4-1.428a7.971,7.971,0,0,0-9.6-1.2A7.985,7.985,0,0,0,7,22v4H3a1,1,0,0,0-1,1V61a1,1,0,0,0,1,1H24V60H12V28h3v4h2V28h7V26H23ZM7.832,54.445a1.039,1.039,0,0,0-1.664,0L4,57.7V30.3l2.168,3.252a1,1,0,0,0,1.664,0L10,30.3V57.7ZM9.132,60H4.868L7,56.8ZM7,31.2,4.868,28H9.132ZM9,26V22a5.993,5.993,0,0,1,8.257-5.556A7.968,7.968,0,0,0,15,22v4Zm8-4a5.979,5.979,0,0,1,2-4.459A5.979,5.979,0,0,1,21,22v4H17Z"/><path d="M33.9,15.447A1,1,0,0,0,34,15V8h4v7a1,1,0,0,0,.1.447l6,12,1.79-.894L40,14.764V3a1,1,0,0,0-1-1H33a1,1,0,0,0-1,1V14.764L26.105,26.553A1,1,0,0,0,26,27V61a1,1,0,0,0,1,1h7V60H28V27.236ZM38,4V6H34V4Z"/><path d="M61.859,40.488,58,33.735V30a1,1,0,0,0-1-1H41a1,1,0,0,0-1,1v3.735L36.132,40.5A.993.993,0,0,0,36,41V61a1,1,0,0,0,1,1H61a1,1,0,0,0,1-1V41A.994.994,0,0,0,61.859,40.488ZM59.277,40H54.723L57,36.016ZM42,31H56v2H42Zm-.42,4h13.7L52.42,40h-13.7ZM52,60H38V42H52Zm8,0H54V42h6Z"/></g></svg>