<svg xmlns="http://www.w3.org/2000/svg" xmlns:xlink="http://www.w3.org/1999/xlink" version="1.1" x="0px" y="0px" viewBox="0 0 48 60" enable-background="new 0 0 48 48" xml:space="preserve"><g><path d="M45.4,32.5c-2.3-2.3-5.6-3.2-8.7-2.4L35.5,29c0,0,0,0,0,0c0-0.6-0.2-1.2-0.5-1.8c-0.7-1.1-1.9-1.8-3.1-1.7c0,0,0,0,0-0.1   c0-1-0.4-1.8-1-2.5c-0.7-0.7-1.6-1-2.5-1c0,0,0,0-0.1,0c0-0.9-0.3-1.9-1-2.6c-0.6-0.6-1.3-0.9-2.2-1c0.1-0.8,0-1.7-0.4-2.4   c-0.7-1.1-1.8-1.7-3.1-1.7c-0.3,0-0.6,0-0.8,0.1l-2.9-2.9c0.8-3.1-0.1-6.4-2.4-8.7C13.2,0.4,10-0.5,6.9,0.3C6.5,0.3,6.3,0.6,6.2,1   c-0.1,0.3,0,0.7,0.3,1l4.5,4.5l-4.5,4.5L1.9,6.4C1.7,6.1,1.3,6,1,6.1C0.6,6.2,0.4,6.5,0.3,6.9c-0.8,3.1,0.1,6.3,2.4,8.6   c2.3,2.3,5.6,3.2,8.7,2.4l0.8,0.8C11.5,19.2,11,20,10.8,21c-0.3,1.4-0.7,2.5-1,3.1c-1.1,1.8-1.7,3.6-1.9,5.4l-7.6,6.2   C0.1,35.8,0,36.1,0,36.3c0,0.3,0.1,0.6,0.3,0.8l10.6,10.6c0.2,0.2,0.5,0.3,0.7,0.3c0.2,0,0.4-0.1,0.6-0.2c3.6-2.7,9.8-7.2,11.2-7.6   c2.4-0.9,4.5-2.2,6.3-4l0.4,0.4c-0.8,3.1,0.1,6.4,2.4,8.7c1.7,1.7,4,2.7,6.4,2.7c0.7,0,1.5-0.1,2.2-0.3c0.3-0.1,0.6-0.4,0.7-0.7   c0.1-0.3,0-0.7-0.3-1l-4.5-4.5l4.5-4.5l4.5,4.5c0.3,0.3,0.6,0.4,1,0.3c0.3-0.1,0.6-0.4,0.7-0.7C48.5,38,47.6,34.8,45.4,32.5z    M12.3,16c-0.3-0.3-0.7-0.4-1-0.2C8.7,16.6,6,15.9,4.1,14c-1.3-1.3-2-3-2.1-4.8L5.7,13c0.4,0.4,1,0.4,1.4,0L13,7.1   c0.4-0.4,0.4-1,0-1.4L9.3,2C11.1,2,12.8,2.8,14.1,4c1.9,1.9,2.6,4.7,1.7,7.3c-0.1,0.4,0,0.8,0.2,1l2.9,2.9l-1.1,1.1   c-0.2,0.1-0.9,0.4-3.6,1.1c-0.1,0-0.1,0.1-0.2,0.1L12.3,16z M11.7,45.7l-9.2-9.2l6.4-5.2l9.6,9.6C15.9,42.6,13.1,44.7,11.7,45.7z    M22.7,38.3c-0.5,0.2-1.4,0.7-2.6,1.4L9.9,29.5c0.1-1.5,0.6-3,1.6-4.5c0.5-0.8,0.9-2,1.3-3.7c0.2-1,0.9-1.7,1.9-2   c4-1.1,4.2-1.3,4.5-1.6l1.3-1.3c0.7-0.7,1.9-0.5,2.5,0.3c0.4,0.6,0.2,1.4-0.3,2l-0.4,0.4c-0.4,0.4-0.4,1,0,1.4c0.4,0.4,1,0.4,1.4,0   l0,0c0.6-0.6,1.6-0.6,2.2,0c0.6,0.6,0.6,1.6,0,2.2c-0.2,0.2-0.3,0.5-0.3,0.7c0,0.3,0.1,0.5,0.3,0.7c0.4,0.4,1,0.4,1.4,0   c0.6-0.6,1.6-0.6,2.2,0c0.3,0.3,0.5,0.7,0.5,1.1s-0.2,0.8-0.5,1.1v0c-0.4,0.4-0.4,1,0,1.4s1,0.4,1.4,0c0.7-0.7,1.9-0.5,2.5,0.3   c0.4,0.6,0.2,1.4-0.3,2l-4.4,4.4C26.9,36.2,24.9,37.5,22.7,38.3z M42.3,35c-0.4-0.4-1-0.4-1.4,0L35,40.9c-0.4,0.4-0.4,1,0,1.4   l3.7,3.7c-1.8-0.1-3.5-0.8-4.8-2.1c-1.9-1.9-2.6-4.7-1.7-7.3c0.1-0.4,0-0.8-0.2-1l-0.8-0.8l3.2-3.2c0.2-0.2,0.3-0.3,0.4-0.5   l0.9,0.9c0.3,0.3,0.7,0.4,1,0.2c2.6-0.9,5.3-0.2,7.3,1.7c1.3,1.3,2,3,2.1,4.8L42.3,35z"/></g></svg>