<svg xmlns="http://www.w3.org/2000/svg" xmlns:xlink="http://www.w3.org/1999/xlink" version="1.1" x="0px" y="0px" viewBox="0 0 1024 1280" enable-background="new 0 0 1024 1024" xml:space="preserve"><g><g><path d="M889.5,55.3c-6.5,9.1-13,18.2-19.4,27.3c-16.5,23.2-33,46.4-49.5,69.6c-22.1,31-44.2,62.1-66.2,93.1    c-23.2,32.7-46.5,65.3-69.7,98c-19.9,28-39.8,56-59.7,84c-12.3,17.3-24.7,34.7-37,52c-1.9,2.6-4.1,5.2-5.7,8    c-2.7,4.6-1.4,12.5-1.4,17.6c0,30.1,0,60.3,0,90.4c0,39.5,0,79,0,118.5c0,25,0,50.1,0,75.1c0,1.3,0,2.5,0,3.8c1-2.4,2-4.7,2.9-7.1    c-17.8,19.3-35.6,38.6-53.5,57.8c-28.4,30.7-56.8,61.5-85.3,92.2c-6.5,7.1-13.1,14.1-19.6,21.2c5.7,2.4,11.4,4.7,17.1,7.1    c0-17.5,0-35,0-52.5c0-41.3,0-82.6,0-123.9c0-48.2,0-96.4,0-144.7c0-38.3,0-76.6,0-114.9c0-10.1,0-20.3,0-30.4    c0-4.4,0.3-8.5-2.2-12.4c-11.2-17.2-23.8-33.5-35.7-50.2c-23.8-33.4-47.6-66.9-71.3-100.3c-28.1-39.4-56.1-78.9-84.2-118.3    c-24.4-34.3-48.8-68.6-73.2-103c-13.2-18.5-26.4-37-39.5-55.6c-0.6-0.9-1.2-1.7-1.8-2.6c-2.9,5-5.8,10-8.6,15c6.9,0,13.7,0,20.6,0    c18.8,0,37.6,0,56.4,0c27.7,0,55.3,0,83,0c33.8,0,67.5,0,101.3,0c37,0,73.9,0,110.9,0c37.5,0,75,0,112.5,0c34.8,0,69.6,0,104.4,0    c29.4,0,58.8,0,88.3,0c21.2,0,42.3,0,63.5,0c10.1,0,20.2,0.2,30.2,0c0.4,0,0.9,0,1.3,0c12.9,0,12.9-20,0-20c-6.9,0-13.7,0-20.6,0    c-18.8,0-37.6,0-56.4,0c-27.7,0-55.3,0-83,0c-33.8,0-67.5,0-101.3,0c-37,0-73.9,0-110.9,0c-37.5,0-75,0-112.5,0    c-34.8,0-69.6,0-104.4,0c-29.4,0-58.8,0-88.3,0c-21.2,0-42.3,0-63.5,0c-10.1,0-20.2-0.2-30.2,0c-0.4,0-0.9,0-1.3,0    c-7.1,0-13.2,8.7-8.6,15c10.2,14.3,20.3,28.6,30.5,42.9c24.4,34.3,48.8,68.6,73.2,102.9c29.5,41.5,59.1,83,88.6,124.5    c25.5,35.9,51.1,71.8,76.6,107.7c8.4,11.8,16.8,23.7,25.2,35.5c3.9,5.5,7.5,11.7,12,16.8c0.2,0.2,0.3,0.5,0.5,0.7    c-0.5-1.7-0.9-3.4-1.4-5c0,15.7,0,31.4,0,47.1c0,37.7,0,75.3,0,113c0,45.4,0,90.8,0,136.2c0,39.4,0,78.8,0,118.2    c0,19.1-0.8,38.4,0,57.4c0,0.3,0,0.5,0,0.8c0,8.4,11.1,13.5,17.1,7.1c22.3-24.2,44.7-48.3,67-72.5c28.9-31.2,57.8-62.5,86.7-93.7    c3.3-3.6,7.3-6.9,7.6-12.1c0.1-2.2,0-4.4,0-6.5c0-14.8,0-29.6,0-44.4c0-49.3,0-98.6,0-147.9c0-21.7,0-43.4,0-65.1    c0-11.6,0.4-23.3,0-34.8c0-0.5,0-1,0-1.6c-0.5,1.7-0.9,3.4-1.4,5c10.2-14.3,20.4-28.7,30.6-43c24.5-34.4,49-68.9,73.5-103.3    c29.5-41.5,59.1-83,88.6-124.5c25.6-36,51.2-72,76.8-108c8.4-11.8,16.8-23.7,25.3-35.5c4-5.6,8.4-11.1,12.1-17    c0.2-0.3,0.3-0.5,0.5-0.7c3.1-4.4,0.8-11.1-3.6-13.7C898.1,48.8,892.6,50.9,889.5,55.3z"/></g></g></svg>