<?xml version="1.0" standalone="no"?>
<!DOCTYPE svg PUBLIC "-//W3C//DTD SVG 1.1//EN" "http://www.w3.org/Graphics/SVG/1.1/DTD/svg11.dtd" >
<svg xmlns="http://www.w3.org/2000/svg" xmlns:xlink="http://www.w3.org/1999/xlink" version="1.1">
<metadata>
Created by FontForge 20191125 at Wed Jan 13 15:45:19 1993
 By convertio
Copyright Monotype Typography ltd 1993. All rights reserved.
</metadata>
<defs>
<font id="FelixTitlingMT" horiz-adv-x="1110" >
  <font-face 
    font-family="Felix Titling MT"
    font-weight="400"
    font-stretch="normal"
    units-per-em="2048"
    panose-1="2 4 5 3 6 3 6 2 9 1"
    ascent="1638"
    descent="-410"
    x-height="1473"
    cap-height="1473"
    bbox="-369 -494 2107 1901"
    underline-thickness="102"
    underline-position="-256"
    unicode-range="U+0020-F002"
  />
    <missing-glyph />
    <glyph glyph-name="496e" unicode="&#x496e;" horiz-adv-x="1024" 
d="M82 1365h860v-1365h-860v1365zM123 1324v-1283h778v1283h-778z" />
    <glyph glyph-name="496e" unicode="&#x6e74;" horiz-adv-x="1024" 
d="M82 1365h860v-1365h-860v1365zM123 1324v-1283h778v1283h-778z" />
    <glyph glyph-name="496e" unicode="&#x6465;" horiz-adv-x="1024" 
d="M82 1365h860v-1365h-860v1365zM123 1324v-1283h778v1283h-778z" />
    <glyph glyph-name="glyph1" horiz-adv-x="0" 
 />
    <glyph glyph-name="glyph2" horiz-adv-x="596" 
 />
    <glyph glyph-name="space" unicode=" " horiz-adv-x="596" 
 />
    <glyph glyph-name="exclam" unicode="!" horiz-adv-x="342" 
d="M285 1473l-52 -553q-5 -50 -18 -127q-9 -51 -31 -256q-6 -58 -6 -109v-39h-18q-2 20 -4 100q-10 123 -15 216q-2 28 -9.5 169t-8.5 179q-4 20 -4 77l-4 60q-10 144 -17 190.5t-23.5 60t-64.5 13.5v19h275zM170 -23q-28 0 -54 14.5t-40.5 39.5t-14.5 55q0 45 31 77t78 32
q45 0 77 -31t32 -78q0 -45 -33 -77t-76 -32z" />
    <glyph glyph-name="quotedbl" unicode="&#x22;" horiz-adv-x="682" 
d="M41 944l-6 8q105 76 140.5 158t35.5 143q0 39 -23 39q-4 0 -20 -4q-20 -4 -23 -4q-41 0 -74.5 29.5t-33.5 72.5t31 76t82 33q63 0 108 -53.5t45 -147.5q0 -98 -44.5 -167.5t-97 -107.5t-120.5 -75zM383 944l-8 8q75 54 113.5 112.5t50.5 105.5t12 83q0 39 -21 39
q-4 0 -20 -4q-20 -4 -23 -4q-41 0 -74.5 29.5t-33.5 72.5t31 76t82 33q62 0 107.5 -54t45.5 -147q0 -98 -44.5 -167.5t-97 -107.5t-120.5 -75z" />
    <glyph glyph-name="numbersign" unicode="#" horiz-adv-x="1024" 
d="M424 954h256l57 424h97l-58 -424h209l-12 -94h-211l-49 -373h211l-13 -94h-213l-57 -426h-96l57 426h-254l-59 -426h-96l59 426h-211l12 94h211l51 373h-204l12 94h205l59 424h96zM666 860h-254l-52 -373h256z" />
    <glyph glyph-name="dollar" unicode="$" horiz-adv-x="1004" 
d="M852 1366l53 -201h-18q-59 108 -126.5 166.5t-118.5 76.5t-103 26v-611q180 -43 308 -146t128 -292q0 -96 -47.5 -184.5t-145.5 -147.5t-245 -71v-218h-41v216q-195 0 -392 96l-75 327h16q38 -112 108 -194t160.5 -127t182.5 -51l2 641l-15 4q-127 49 -175 73t-97 70
q-57 54 -91 134t-34 155q0 93 49.5 177.5t143.5 136t219 51.5v104h43v-104q91 -10 169 -38t142 -69zM498 838v598q-72 3 -146 -23t-125 -87.5t-51 -158.5q0 -74 28.5 -128.5t75.5 -92t79 -52.5t124 -52zM539 659l-2 -628q83 0 163.5 39t131.5 110t51 162q0 122 -84.5 193
t-259.5 124z" />
    <glyph glyph-name="percent" unicode="%" horiz-adv-x="1642" 
d="M10 1071q0 128 43 225.5t118.5 151t170.5 53.5q75 0 143.5 -35.5t113 -118t44.5 -212.5q0 -116 -39.5 -213t-115 -155t-175.5 -58q-129 0 -216 95t-87 267zM524 1040q0 204 -63.5 312t-151.5 108q-72 0 -127 -67.5t-55 -227.5q0 -124 30 -219.5t81.5 -145.5t107.5 -50
q37 0 78.5 25.5t70.5 90.5t29 174zM999 350q0 126 43.5 224.5t119.5 152t171 53.5q75 0 143 -35.5t112 -118t44 -212.5q0 -89 -21 -162.5t-65 -134.5t-104.5 -94t-136.5 -33q-130 0 -218 94.5t-88 265.5zM1516 319q0 104 -17.5 183t-47.5 131.5t-69 79t-84 26.5
q-70 0 -125 -67.5t-55 -227.5q0 -93 17.5 -171t48.5 -133t71 -83t82 -28q37 0 78.5 25.5t71 90.5t29.5 174zM305 0l963 1497l65 -24l-960 -1498z" />
    <glyph glyph-name="ampersand" unicode="&#x26;" horiz-adv-x="1855" 
d="M971 1399l63 -168h-20q-39 50 -102.5 102t-141 86.5t-158.5 34.5q-95 0 -141.5 -53t-46.5 -119q0 -49 29 -104t69.5 -104t98.5 -107l653 -645q76 103 102.5 259t26.5 232q0 63 -27 78.5t-94 19.5q-4 2 -14 2l-33 -2v17l313 2v-19q-51 6 -69 -31t-33 -143
q-19 -131 -49 -239.5t-94 -204.5l151 -150q64 -54 111 -81t110 -27q79 0 168 51l10 -14q-31 -23 -66.5 -41.5t-96 -36t-127.5 -17.5q-92 0 -170 41q-43 24 -81.5 52t-49.5 43q-1 5 -11 14l-49 47q-61 -64 -197.5 -130.5t-340.5 -66.5q-120 0 -207 20t-148 55t-112 83
q-78 75 -119 168.5t-41 192.5q0 104 43.5 198.5t131.5 161.5t216 92q-51 75 -78.5 131t-27.5 133q0 111 78.5 197t246.5 86q98 0 168.5 -24t155.5 -72zM1174 201l-562 544q-7 8 -12 11q-35 35 -98 104q-22 21 -45 55q-301 -69 -301 -301q0 -132 88 -263t236 -214.5
t313 -83.5q132 0 206 34t160 103q12 9 15 11z" />
    <glyph glyph-name="quotesingle" unicode="'" horiz-adv-x="342" 
d="M41 944l-6 8q105 76 140.5 158t35.5 143q0 39 -23 39q-4 0 -20 -4q-20 -4 -23 -4q-41 0 -74.5 29.5t-33.5 72.5t31 76t82 33q63 0 108 -53.5t45 -147.5q0 -98 -44.5 -167.5t-97 -107.5t-120.5 -75z" />
    <glyph glyph-name="parenleft" unicode="(" horiz-adv-x="748" 
d="M653 1495l35 -55q-78 -43 -160.5 -103.5t-171 -168.5t-150 -277.5t-61.5 -392.5q0 -218 63 -388.5t151.5 -277.5t166.5 -164.5t162 -105.5l-35 -56q-104 51 -202 133t-183.5 207.5t-137.5 293.5t-52 366q0 147 32 287t101.5 271.5t181 242.5t260.5 188z" />
    <glyph glyph-name="parenright" unicode=")" horiz-adv-x="748" 
d="M94 -494l-35 56q89 50 166 106.5t166 165.5t150 278t61 392q0 224 -62.5 392t-152 276t-169.5 166t-159 102l35 55q140 -67 270.5 -196t218 -333t87.5 -470q0 -143 -32.5 -286t-101.5 -273.5t-180 -241.5t-262 -189z" />
    <glyph glyph-name="asterisk" unicode="*" horiz-adv-x="725" 
d="M369 772h-15l-67 236l-236 -58l-6 15l164 174l-164 174l8 10l230 -57l73 231h15l65 -231l234 61l8 -12l-166 -180l166 -177l-8 -14l-232 64zM362 1257q-49 0 -84.5 -34.5t-35.5 -85.5t35 -85t85 -34q51 0 85 34t34 85q0 52 -34 86t-85 34z" />
    <glyph glyph-name="plus" unicode="+" horiz-adv-x="1124" 
d="M506 1092h112v-482h486v-112h-486v-498h-112v498h-486v112h486v482z" />
    <glyph glyph-name="comma" unicode="," horiz-adv-x="342" 
d="M43 -362l-8 8q105 74 140.5 156.5t35.5 144.5q0 39 -21 39q-6 0 -22 -4q-25 -5 -23 -5q-40 0 -74 29t-34 74q0 43 31.5 75.5t81.5 32.5q63 0 108 -52.5t45 -147.5q0 -139 -78.5 -218t-181.5 -132z" />
    <glyph glyph-name="hyphen" unicode="-" horiz-adv-x="512" 
d="M45 694v84h422v-84h-422z" />
    <glyph glyph-name="period" unicode="." horiz-adv-x="342" 
d="M170 197q47 0 78 -32t31 -77q0 -44 -31 -76t-78 -32q-44 0 -76.5 32.5t-32.5 75.5t32 76t77 33z" />
    <glyph glyph-name="slash" unicode="/" horiz-adv-x="575" 
d="M588 1468h135l-735 -1468h-135z" />
    <glyph glyph-name="zero" unicode="0" horiz-adv-x="1192" 
d="M80 674q0 174 38.5 326t111 264.5t175 174.5t222.5 62q79 0 151 -29t127 -77t94 -113q48 -79 81.5 -195t33.5 -292q0 -218 -65 -406t-188 -300t-286 -112q-136 0 -249 79t-179.5 236.5t-66.5 381.5zM954 614q0 171 -24.5 323t-73.5 266t-124 179.5t-175 65.5
q-32 0 -76.5 -14t-102 -71.5t-98 -182.5t-40.5 -326q0 -164 26 -312t77.5 -264.5t127.5 -181.5t172 -65q66 0 130.5 51t100.5 121q36 67 58 162t22 249z" />
    <glyph glyph-name="one" unicode="1" horiz-adv-x="532" 
d="M74 1335l264 164h16v-1364q0 -53 9 -77.5t35 -34t83 -9.5v-14h-413v14q56 2 80.5 9t36.5 36t12 91v1101q0 45 -8 70t-39 25q-26 0 -76 -25v14z" />
    <glyph glyph-name="two" unicode="2" 
d="M1083 231l-67 -231h-969v37q18 15 60.5 49t101.5 84.5t89 78.5t54 52q110 110 180 196.5t109 155.5q129 225 129 418q0 100 -28 172.5t-73 116t-101 64t-109 20.5q-120 0 -227 -80.5t-166 -189.5l-39 20q33 52 68.5 99.5t92 94t139.5 78t189 31.5q101 0 183.5 -33.5
t136.5 -89t83 -128.5t29 -152q0 -97 -48.5 -209t-164.5 -256.5t-321 -337.5l-170 -160h616q63 0 90.5 5.5t51 24.5t61.5 70h20z" />
    <glyph glyph-name="three" unicode="3" horiz-adv-x="1153" 
d="M143 1188l54 198q113 69 196.5 89t171.5 20q216 0 308 -84t92 -194q0 -92 -50.5 -161.5t-111 -110t-135.5 -79.5v-4q96 -13 166.5 -55.5t114 -104.5t61.5 -127.5t18 -128.5q0 -136 -71 -243t-188 -165t-245 -58q-141 0 -249 53.5t-205 138.5v53q110 -89 205.5 -140.5
t216.5 -51.5q72 0 139.5 25.5t117.5 73.5t79.5 117.5t29.5 151.5q0 96 -43 177t-128.5 130.5t-209.5 49.5q-55 0 -110 -10v40q9 7 20 7q114 31 195 66.5t147 112t66 197.5q0 84 -33.5 148.5t-94.5 100.5t-137 36q-89 0 -161 -44t-115.5 -97t-93.5 -129z" />
    <glyph glyph-name="four" unicode="4" 
d="M1079 526h-270v-376q0 -53 6.5 -81t27 -41.5t66.5 -13.5h27v-14h-424v14h27q48 0 69.5 8.5t32 37t10.5 87.5v379h-626l720 973h66v-889h172q49 0 62.5 8t15.5 37h18v-129zM133 608h518v690l-4 5z" />
    <glyph glyph-name="five" unicode="5" horiz-adv-x="1153" 
d="M305 1341l-55 -415q78 37 154 47t126 10q147 0 263.5 -61t181.5 -171.5t65 -252.5q0 -133 -68 -253t-189 -192.5t-273 -72.5q-130 0 -237 46.5t-222 135.5v47l23 -14q127 -74 209.5 -107t183.5 -33q133 0 228 61t141.5 154t46.5 187q0 68 -22.5 130.5t-69.5 114
t-119 81.5t-168 30q-82 0 -178 -27t-152 -55l94 742h668q44 0 65.5 6t32.5 30l17 2l-47 -168z" />
    <glyph glyph-name="six" unicode="6" horiz-adv-x="1192" 
d="M926 1499l10 -26q-134 -30 -249 -83t-220 -167q-95 -104 -149.5 -235t-63.5 -269l4 -4q45 84 113 138t144.5 77.5t146.5 23.5q123 0 227 -61.5t164.5 -171t60.5 -244.5q0 -101 -37.5 -192t-105.5 -160t-156.5 -107t-187.5 -38q-111 0 -211 46t-176.5 130.5t-119 198
t-42.5 243.5q0 200 89 390.5t279.5 329t479.5 181.5zM262 578q0 -118 58.5 -245t158.5 -211.5t215 -84.5q87 0 151.5 43.5t97 112t32.5 143.5q0 115 -52.5 240.5t-148 208.5t-215.5 83q-82 0 -150 -42t-107.5 -109.5t-39.5 -138.5z" />
    <glyph glyph-name="seven" unicode="7" 
d="M27 1221l41 252h1011l-706 -1491h-107l645 1361h-565q-85 0 -146 -10t-90.5 -26.5t-43.5 -37.5t-23 -50z" />
    <glyph glyph-name="eight" unicode="8" horiz-adv-x="1192" 
d="M506 772q-65 41 -109.5 69t-65.5 44t-34 30t-27 29q-80 93 -80 205q0 81 47.5 162t145.5 134.5t244 53.5q135 0 223 -41t130 -108.5t42 -145.5q0 -223 -311 -368q174 -104 276.5 -204.5t102.5 -252.5q0 -121 -69 -211.5t-185.5 -139t-257.5 -48.5q-132 0 -240.5 43
t-172 126t-63.5 193q0 81 34.5 150t123.5 138t246 142zM668 860q90 49 147 126.5t57 174.5q0 62 -23.5 114.5t-66 91.5t-97.5 59t-116 20q-106 0 -192 -56t-86 -165q0 -81 42 -129t103 -90q145 -99 232 -146zM569 739l-18 11q-131 -63 -213 -147t-82 -206q0 -88 48.5 -174.5
t135.5 -142t189 -55.5q53 0 111.5 19.5t108 57.5t78.5 92t29 123q0 93 -48 165t-127.5 128t-211.5 129z" />
    <glyph glyph-name="nine" unicode="9" horiz-adv-x="1192" 
d="M266 -20l-10 28q141 33 253 83.5t216 164.5q60 66 107.5 149.5t73.5 173.5t32 181l-4 4q-66 -123 -177.5 -180.5t-226.5 -57.5q-123 0 -227 62t-164.5 170.5t-60.5 245.5q0 135 65.5 249t177 180t244.5 66q112 0 211.5 -45t176 -128.5t119 -196t42.5 -246.5
q0 -147 -48.5 -292.5t-153 -272.5t-266 -216t-380.5 -122zM930 903q0 118 -59 244.5t-158.5 211.5t-214.5 85q-86 0 -150.5 -43.5t-97.5 -113.5t-33 -142q0 -116 52.5 -241.5t148 -208.5t215.5 -83q82 0 150.5 42.5t107.5 109.5t39 139z" />
    <glyph glyph-name="colon" unicode=":" horiz-adv-x="342" 
d="M170 197q47 0 78 -32t31 -77q0 -44 -31 -76t-78 -32q-44 0 -76.5 32.5t-32.5 75.5t32 76t77 33zM170 1004q47 0 78 -32t31 -77t-32 -77t-77 -32q-30 0 -55 14.5t-39.5 40.5t-14.5 54q0 43 32 76t77 33z" />
    <glyph glyph-name="semicolon" unicode=";" horiz-adv-x="342" 
d="M43 -362l-8 8q105 74 140.5 156.5t35.5 144.5q0 39 -21 39q-6 0 -22 -4q-25 -5 -23 -5q-40 0 -74 29t-34 74q0 43 31.5 75.5t81.5 32.5q63 0 108 -52.5t45 -147.5q0 -139 -78.5 -218t-181.5 -132zM170 1004q47 0 78 -32t31 -77t-32 -77t-77 -32q-30 0 -55 14.5
t-39.5 40.5t-14.5 54q0 43 32 76t77 33z" />
    <glyph glyph-name="less" unicode="&#x3c;" horiz-adv-x="1124" 
d="M53 471v127l1018 471v-127l-887 -407l887 -408v-127z" />
    <glyph glyph-name="equal" unicode="=" horiz-adv-x="1124" 
d="M1100 799v-113h-1077v113h1077zM1100 401v-112h-1077v112h1077z" />
    <glyph glyph-name="greater" unicode="&#x3e;" horiz-adv-x="1124" 
d="M1071 598v-127l-1018 -471v127l887 408l-887 407v127z" />
    <glyph glyph-name="question" unicode="?" horiz-adv-x="725" 
d="M264 385l-20 516q151 27 236 102t85 193q0 62 -30.5 123t-87.5 99t-136 38q-88 0 -163.5 -47.5t-114.5 -140.5h-17l47 174q129 53 246 53q98 0 173 -29t123.5 -79.5t71.5 -113t23 -136.5q0 -112 -48.5 -187t-106 -110.5t-115.5 -57.5q-59 -22 -83.5 -36.5t-31 -31.5
t-10.5 -61l-20 -268h-21zM276 195q46 0 77.5 -32.5t31.5 -76.5t-32.5 -76.5t-76.5 -32.5t-76 31t-32 78q0 45 32 77t76 32z" />
    <glyph glyph-name="A" unicode="A" horiz-adv-x="1409" 
d="M856 678h-430l-223 -557q-10 -25 -10 -27q-13 -26 -13 -47q0 -33 49 -33v-14h-219v14q59 1 86 33t54 100l534 1348h25l526 -1302q0 -8 6 -17l8 -22q25 -62 57.5 -101t92.5 -39v-14h-344v14q29 0 38 13t9 24q0 28 -23 80q-2 4 -5 12.5t-5 10.5zM440 719h398l-199 502z" />
    <glyph glyph-name="B" unicode="B" horiz-adv-x="1194" 
d="M84 1458v15h383q129 0 199 -8t125 -33q94 -44 148 -124.5t54 -185.5q0 -188 -184 -295q133 -24 205 -94q116 -110 116 -291q0 -135 -58 -234.5t-136 -150.5q-33 -21 -66.5 -32t-72 -16.5t-69.5 -7t-77 -1.5h-569v14q52 0 74 15t27 46.5t5 106.5v1110q0 76 -4.5 106
t-26.5 44.5t-73 15.5zM358 1442v-647h179q182 0 241.5 103.5t59.5 207.5q0 215 -174 295q-91 41 -267 41h-39zM473 764h-115v-467q0 -70 5.5 -110t33.5 -75t89.5 -54t168.5 -19q126 0 195 41q119 71 119 274q0 103 -28 186t-80.5 139t-127.5 71q-71 14 -260 14z" />
    <glyph glyph-name="C" unicode="C" horiz-adv-x="1579" 
d="M1348 1399l55 -156h-14q-45 45 -111.5 92t-168.5 84t-224 37q-214 0 -366.5 -89.5t-229 -229.5t-76.5 -293q0 -109 42 -252t133 -274t241.5 -216.5t357.5 -85.5q167 0 326.5 54t236.5 143l13 -4l-103 -158q-225 -49 -304 -61.5t-220 -12.5q-145 0 -259 20t-194 54.5
t-141 79.5q-122 90 -195 243t-73 331q0 144 53.5 285t160 255t266.5 182t359 68q127 0 222.5 -24t195.5 -66q2 0 8.5 -2t8.5 -4z" />
    <glyph glyph-name="D" unicode="D" horiz-adv-x="1729" 
d="M78 1458v15h676q260 0 395 -37t229 -99q82 -53 147 -135.5t101.5 -190.5t36.5 -231q0 -116 -32 -221.5t-89 -198.5t-126 -160.5t-148 -113.5q-82 -48 -199 -67t-299 -19h-692v14h18q35 0 53.5 17t26.5 58.5t8 125.5v1073q0 108 -16 138.5t-90 31.5zM580 1442h-226v-1143
q0 -93 28.5 -148t114.5 -83.5t255 -28.5q128 0 226.5 18t175.5 55t140 97q93 88 150 227.5t57 278.5q0 93 -26.5 187.5t-83 184.5t-154 168.5t-233.5 124.5q-177 62 -424 62z" />
    <glyph glyph-name="E" unicode="E" 
d="M80 1456v17h926v-203h-15q-22 81 -35.5 110t-34.5 36t-81 7h-486v-661h451q53 0 76.5 8t27.5 41h15v-139h-15q-7 34 -27.5 41.5t-64.5 7.5h-463v-455q0 -102 19.5 -148t59 -57.5t126.5 -11.5h260q105 0 149.5 7t69 38.5t35.5 108.5h14v-203h-1007v14q55 4 79.5 21
t24.5 84v1190q0 89 -17 118t-87 29z" />
    <glyph glyph-name="F" unicode="F" horiz-adv-x="1024" 
d="M74 1458v15h932v-173h-15q0 4 -0.5 7t-1.5 6q-17 70 -51.5 90t-114.5 20h-475v-649h443q52 0 75 8t27 41h14v-141h-14q-1 10 -6.5 22.5t-18.5 20.5t-41 8h-479v-588q0 -78 22 -104t91 -27v-14h-387v14q60 0 82 21t22 78v1212q0 58 -11.5 86t-34 37.5t-58.5 9.5z" />
    <glyph glyph-name="G" unicode="G" horiz-adv-x="1556" 
d="M1522 14v-14h-594q-80 0 -148.5 6t-157.5 32.5t-173 80.5q-174 109 -277.5 278t-103.5 353q0 125 55.5 257t163.5 243t264.5 178t347.5 67q220 0 459 -96l61 -170h-14q-78 99 -213.5 163t-294.5 64q-150 0 -273 -61t-206 -166t-126.5 -240.5t-43.5 -279.5
q0 -233 93 -372.5t206 -203.5q99 -56 221.5 -75t196.5 -19l79 2q89 2 129.5 9.5t56 33.5t15.5 84v223q0 65 -26 87t-78 20v14h381v-14q-69 -1 -88 -29t-19 -92v-232q0 -70 18.5 -100.5t67.5 -30.5h21z" />
    <glyph glyph-name="H" unicode="H" horiz-adv-x="1516" 
d="M1161 735h-809v-567q0 -61 5 -91t28.5 -47t73.5 -16v-14h-381v14q44 -2 74 16.5t30 84.5v1185q0 102 -15.5 128t-88.5 30v15h381v-15q-52 -2 -79.5 -19.5t-27.5 -86.5v-576h809v527q0 93 -15.5 124t-86.5 31v15h377v-15q-52 -1 -73.5 -14.5t-26.5 -42.5t-5 -98v-1131
q0 -64 5 -95t28 -47t72 -16v-14h-377v14q46 2 66 12t28 42t8 106v561z" />
    <glyph glyph-name="I" unicode="I" horiz-adv-x="532" 
d="M463 1473v-15q-34 3 -72.5 -11.5t-38.5 -66.5q-2 -12 -2 -75v-1131q0 -70 5 -100.5t29.5 -45.5t78.5 -14v-14h-393v14q53 2 75.5 14.5t28.5 41.5t6 102v1120q0 67 -5 100t-29 51t-76 15v15h393z" />
    <glyph glyph-name="J" unicode="J" horiz-adv-x="532" 
d="M70 1473h395v-15q-77 -1 -95 -30.5t-18 -100.5v-1253q0 -103 -6.5 -199.5t-17.5 -130.5q-33 -94 -84 -145q-91 -93 -230 -93q-24 0 -53.5 3t-61.5 10.5t-44 11t-21 6.5l2 17q31 -9 80 -9q92 0 151 47t85 125q30 87 30 248v1356q0 79 -18 108.5t-94 28.5v15z" />
    <glyph glyph-name="K" unicode="K" horiz-adv-x="1686" 
d="M59 1473h422v-15q-81 3 -103 -27t-22 -116v-565l875 657q26 20 26 33q0 18 -59 18v15h318v-15q-122 -3 -234 -88l-762 -569l760 -578q4 -2 7 -4l3 -2q50 -36 99 -70q93 -62 127.5 -83.5t73 -35.5t87.5 -14v-14h-501v14q31 0 49 2.5t18 12.5q0 15 -55 55l-832 633v-547
q0 -66 6 -97t32.5 -47t84.5 -12v-14h-420v14q60 -3 86.5 11.5t33.5 43.5t7 95v1143q0 69 -8 99.5t-34 42t-85 9.5v15z" />
    <glyph glyph-name="L" unicode="L" 
d="M25 0v14q71 0 90.5 26t19.5 89v1206q0 79 -22.5 100t-89.5 23v15h395v-15q-53 1 -78 -14.5t-30 -41.5t-5 -77v-1034q0 -69 16 -114.5t49.5 -73.5t88 -41t129.5 -13h180q98 0 153 34t77.5 99.5t27.5 171.5h14v-354h-1015z" />
    <glyph glyph-name="M" unicode="M" horiz-adv-x="1812" 
d="M1427 1473h232v-15q-117 -5 -117 -123q0 -15 6 -69l154 -1116q8 -57 19.5 -85t30 -38t54.5 -13v-14h-331v14q65 -2 65 64q0 16 -6 59l-150 1082h-4l-524 -1219h-10l-527 1217h-4l-149 -1088q-4 -18 -4 -57q0 -25 12 -41.5t55 -16.5v-14h-225v14q41 2 56 7.5t26 30
t18 77.5l168 1190l-22 49q-41 90 -139 90v15h278l518 -1205z" />
    <glyph glyph-name="N" unicode="N" horiz-adv-x="1642" 
d="M1288 1473h285v-15q-66 -2 -90.5 -27.5t-24.5 -107.5v-1341l-1175 1251v-1090q0 -40 5 -65.5t18 -38.5t27 -16t56 -9v-14h-283v14q56 1 79.5 15t28.5 42.5t5 98.5v997q0 125 -35 210.5t-170 80.5v15h277l1104 -1176v1040q0 76 -25.5 98.5t-81.5 22.5v15z" />
    <glyph glyph-name="O" unicode="O" horiz-adv-x="1665" 
d="M1597 836q0 -169 -55 -325t-163.5 -277t-265.5 -189t-349 -68q-155 0 -283.5 53.5t-222 150t-142 219t-48.5 257.5q0 142 52 290.5t155 272t260 199.5t358 76q159 0 288.5 -50.5t223.5 -142t143 -211t49 -255.5zM1505 655q0 172 -72 314t-186.5 241.5t-246.5 153
t-244 53.5q-138 0 -272 -72.5t-219 -205t-85 -297.5q0 -203 99.5 -384.5t262.5 -292t345 -110.5q116 0 229 47t199 127.5t138 192t52 233.5z" />
    <glyph glyph-name="P" unicode="P" horiz-adv-x="1087" 
d="M82 1458v15h420q122 0 230 -19t199 -101.5t91 -250.5q0 -101 -36.5 -172t-102.5 -116t-153 -65t-187 -18v14q86 0 158.5 36.5t114.5 108t42 167.5q0 102 -39.5 186.5t-113.5 130.5q-78 49 -244 49h-105v-1261q0 -46 3.5 -74.5t15 -44.5t31.5 -21.5t65 -7.5v-14h-389v14
q48 2 76 20t28 75v1220q0 49 -5 74t-27.5 40t-71.5 15z" />
    <glyph glyph-name="Q" unicode="Q" horiz-adv-x="1665" 
d="M1008 -10l4 -4q173 -124 236 -167t167 -97.5t210.5 -84.5t213.5 -30q48 0 115 10l2 -12q-72 -34 -155.5 -52t-125.5 -18q-79 0 -188 30.5t-233 88t-247 138t-239 185.5q-120 0 -244 34t-250 153q-100 99 -153 225.5t-53 265.5q0 196 93.5 390t281 322t450.5 128
q159 0 288.5 -50.5t223.5 -142.5t143 -211.5t49 -256.5q0 -122 -32.5 -247.5t-104 -243.5t-189.5 -208.5t-284 -130.5q13 -11 21 -14zM1505 653q0 172 -72 315t-185.5 241.5t-246.5 153t-245 54.5q-138 0 -272 -72.5t-219 -205t-85 -297.5q0 -153 57 -294.5t158 -254
t230 -176.5t262 -64q116 0 229 47t199 127.5t138 192t52 233.5z" />
    <glyph glyph-name="R" unicode="R" horiz-adv-x="1622" 
d="M80 1458v15h418q137 0 198.5 -4.5t114.5 -22.5q97 -29 155 -105.5t58 -193.5q0 -81 -35.5 -156t-94.5 -133t-128 -96l104 -160l9 -14q19 -35 122.5 -180.5t186.5 -241.5q38 -43 102 -81t142 -38q56 0 100 21q14 6 34 17t36 19l6 -20q-54 -42 -113 -66q-32 -12 -87.5 -22
t-111.5 -10q-46 0 -92.5 11t-98.5 43.5t-97 88.5q-116 141 -250 342q0 2 -2 6l-2 4l-148 228l-55 -2q-12 -2 -76 -2h-119v-564q0 -55 11 -82t31 -35t63 -10v-14h-381v14q70 3 88 28.5t18 111.5v1171q0 60 -11.5 88t-31.5 35.5t-63 9.5zM356 1434v-691h154q45 0 110.5 11.5
t98.5 29.5q63 35 106 102.5t43 168.5q0 44 -12 97.5t-36.5 101.5t-63.5 87q-47 47 -111.5 70t-167.5 23h-121z" />
    <glyph glyph-name="S" unicode="S" horiz-adv-x="981" 
d="M786 1454l70 -184l-12 -2q-1 2 -15 16q-34 40 -77.5 77t-106.5 62t-145 25q-103 0 -178 -42t-112.5 -110.5t-37.5 -142.5q0 -69 27.5 -117.5t71.5 -79t117 -57t112 -39.5q107 -33 198.5 -76.5t164.5 -134t73 -231.5q0 -131 -65 -229.5t-162 -147.5q-39 -18 -133.5 -29.5
t-131.5 -11.5h-393v428h15q2 -95 18.5 -160.5t61.5 -116t124.5 -77.5t200.5 -27q116 0 193.5 33t119.5 83t56 98.5t14 88.5q0 90 -50 151.5t-121.5 96.5t-195.5 78q-126 43 -177.5 69t-92.5 64q-55 54 -88 126.5t-33 156.5q0 109 50.5 200.5t147.5 147t228 55.5
q107 0 248 -37q3 0 9 -2t7 -2z" />
    <glyph glyph-name="T" unicode="T" horiz-adv-x="1237" 
d="M1239 1524l-70 -178h-14q4 13 4 43q0 25 -17.5 30.5t-51.5 5.5h-385v-1261q0 -43 4 -72.5t15 -47t32 -24t65 -6.5v-14h-399v14q50 5 72.5 14t31.5 33.5t9 81.5v1282h-369q-55 0 -72.5 -6t-17.5 -33q0 -11 8 -40h-14l-70 178h14q19 -36 39 -45q17 -6 72 -6h979
q59 0 83.5 7t37.5 44h14z" />
    <glyph glyph-name="U" unicode="U" horiz-adv-x="1536" 
d="M1452 0h-278v227q-212 -237 -508 -237q-97 0 -181 26t-150.5 82t-105.5 146.5t-39 208.5v882q0 55 -7 80t-31 34.5t-70 8.5v15h391v-15q-57 0 -85 -18.5t-28 -93.5v-809q0 -145 35 -234q35 -87 95.5 -140t128.5 -75t131 -22q239 0 424 215v997q0 75 -6.5 110.5
t-26.5 52.5t-62 17h-14v15h387v-15q-59 -2 -84 -17.5t-25 -82.5v-1200q0 -57 5 -85t29.5 -44t74.5 -15v-14z" />
    <glyph glyph-name="V" unicode="V" horiz-adv-x="1409" 
d="M719 -23h-19l-524 1297q-44 113 -80 148.5t-86 35.5v15h340v-15q-45 3 -45 -35q0 -29 21 -67l442 -1100l440 1098q0 2 4 10q19 46 19 63q0 35 -53 31v15h221v-15q-50 0 -72.5 -21t-48.5 -71l-8 -14z" />
    <glyph glyph-name="W" unicode="W" horiz-adv-x="2111" 
d="M1493 -23h-23l-407 1123h-4l-395 -1123h-23l-479 1315q-31 85 -64 126t-94 40v15h348v-15q-51 0 -51 -37q0 -27 16 -67l390 -1071h4l317 905l-31 86q-35 100 -73 142.5t-90 41.5v15h344v-15q-50 0 -50 -43q0 -11 15 -55q6 -12 6 -14l389 -1067h4l379 1071q0 2 4 10
l3.5 10.5t2.5 9.5q13 37 13 41q0 37 -52 37v15h215v-15q-49 -4 -75.5 -30.5t-32.5 -43.5q-25 -51 -31 -69z" />
    <glyph glyph-name="X" unicode="X" horiz-adv-x="1386" 
d="M1253 1473v-15q-28 2 -53 -9t-57 -52q-2 -2 -5.5 -7.5t-7.5 -11.5t-6 -8l-4 -4l-6 -6l-375 -529l449 -647q0 -1 10 -16q66 -100 104 -128t74 -26v-14h-366v14q47 -4 47 33q0 32 -17 51l-14 23q-2 0 -6 8l-385 555l-395 -551q0 -4 -7 -10l-16 -25q-27 -34 -27 -57
q0 -29 50 -27v-14h-220v14q27 -1 50 12.5t34 24.5l10.5 11t12.5 16l471 659l-440 635q0 6 -6 12q-18 32 -50.5 54.5t-66.5 19.5v15h371v-15q-60 0 -60 -33q0 -19 16 -45t21 -32l322 -463l346 485q2 2 8 14q22 32 22 48q0 19 -12 22.5t-39 3.5v15h223z" />
    <glyph glyph-name="Y" unicode="Y" horiz-adv-x="1174" 
d="M940 1473h221v-15q-41 -2 -69 -20t-62 -70l-360 -545v-676q0 -83 20.5 -107t91.5 -26v-14h-393v14q47 -2 80 14.5t33 84.5l-2 32v623l-361 598q-53 94 -127 92v15h348v-15q-49 0 -49 -37q0 -9 12.5 -34l12.5 -25l297 -490l325 494l5 4q26 43 26 55q0 33 -43 33h-6v15z
" />
    <glyph glyph-name="Z" unicode="Z" horiz-adv-x="1450" 
d="M1411 231v-231h-1397l1143 1417h-766q-69 0 -103.5 -11.5t-50.5 -40.5t-26 -93h-14l8 201h1212l-1147 -1418h977q79 0 111 32t39 144h14z" />
    <glyph glyph-name="bracketleft" unicode="[" horiz-adv-x="641" 
d="M575 -467h-419v1940h419v-68h-352v-1806h352v-66z" />
    <glyph glyph-name="bracketright" unicode="]" horiz-adv-x="641" 
d="M66 1473h419v-1940h-419v68h352v1806h-352v66z" />
    <glyph glyph-name="underscore" unicode="_" horiz-adv-x="1024" 
d="M-12 -256v105h1048v-105h-1048z" />
    <glyph glyph-name="Grave" unicode="`" horiz-adv-x="682" 
d="M150 1884h180l170 -309h-47z" />
    <glyph glyph-name="braceleft" unicode="{" horiz-adv-x="983" 
d="M842 -408v-34q-119 16 -203 74.5t-129 143.5t-45 171q0 68 22 155q0 -3 12.5 61.5t12.5 92.5q0 68 -55.5 133.5t-173.5 81.5v39q80 11 132 47.5t74.5 82t22.5 85.5q0 15 -5.5 52.5t-10.5 62.5t-9 39q-22 94 -22 155q0 85 43.5 168.5t129.5 144t204 76.5v-37
q-105 -25 -166.5 -82.5t-61.5 -152.5q0 -44 25 -158q23 -80 23 -155q0 -48 -21.5 -108.5t-86.5 -125t-189 -108.5v-4q146 -53 221.5 -150.5t75.5 -198.5q0 -74 -23 -155q-10 -37 -17.5 -84t-7.5 -74q0 -180 228 -238z" />
    <glyph glyph-name="bar" unicode="|" horiz-adv-x="410" 
d="M133 1378h143v-1740h-143v1740z" />
    <glyph glyph-name="braceright" unicode="}" horiz-adv-x="983" 
d="M141 1389v34q119 -16 203 -74.5t129 -143.5t45 -171q0 -29 -4 -63.5t-18 -91.5q-6 -30 -10 -47.5t-9.5 -54t-5.5 -52.5q0 -40 22.5 -85.5t74.5 -82t132 -47.5v-39q-117 -16 -173 -81.5t-56 -133.5q0 -15 5.5 -52.5t11 -62.5t8.5 -39q22 -94 22 -155q0 -64 -24.5 -127
t-73 -118.5t-118 -93t-161.5 -50.5v36q228 55 228 236q0 44 -25 158q-22 77 -22 155q0 47 21.5 108.5t86 125.5t188.5 108v4q-146 53 -221 150.5t-75 198.5q0 78 22 155q12 45 18.5 87t6.5 71q0 64 -29 111t-80 78.5t-119 48.5z" />
    <glyph glyph-name="Adieresis" unicode="&#xc4;" horiz-adv-x="1409" 
d="M856 678h-430l-223 -557q-10 -25 -10 -27q-13 -26 -13 -47q0 -33 49 -33v-14h-219v14q59 1 86 33t54 100l534 1348h25l526 -1302q0 -8 6 -17l8 -22q25 -62 57.5 -101t92.5 -39v-14h-344v14q29 0 38 13t9 24q0 28 -23 80q-2 4 -5 12.5t-5 10.5zM440 719h398l-199 502z
M807 1669q0 40 27 67t66 27t65.5 -27.5t26.5 -66.5q0 -37 -26.5 -64.5t-65.5 -27.5t-66 27t-27 65zM420 1669q0 40 27 67t65 27q39 0 66 -28t27 -66q0 -36 -27 -64t-66 -28q-38 0 -65 27t-27 65z" />
    <glyph glyph-name="Aring" unicode="&#xc5;" horiz-adv-x="1409" 
d="M856 678h-430l-223 -557q-10 -25 -10 -27q-13 -26 -13 -47q0 -33 49 -33v-14h-219v14q59 1 86 33t54 100l534 1348h25l526 -1302q0 -8 6 -17l8 -22q25 -62 57.5 -101t92.5 -39v-14h-344v14q29 0 38 13t9 24q0 28 -23 80q-2 4 -5 12.5t-5 10.5zM440 719h398l-199 502z
M543 1739q0 46 22.5 82.5t60.5 58t79 21.5q69 0 116.5 -47.5t47.5 -114.5q0 -68 -47 -116t-117 -48q-66 0 -114 48t-48 116zM588 1739q0 -47 35 -82t82 -35q52 0 85.5 35.5t33.5 81.5q0 47 -33.5 81.5t-85.5 34.5q-47 0 -82 -34t-35 -82z" />
    <glyph glyph-name="Ccedilla" unicode="&#xc7;" horiz-adv-x="1579" 
d="M874 -20l-28 -56q143 -46 143 -157q0 -62 -45 -112.5t-125.5 -76.5t-185.5 -20v41q156 4 204 46t48 85q0 98 -158 106q41 58 96 144q-90 6 -163 18.5t-158.5 44.5t-157.5 88q-122 94 -196 245t-74 329q0 144 53.5 285t160 255t266.5 182t359 68q89 0 162 -13t123.5 -29
t132.5 -48q2 0 8.5 -2t8.5 -4l55 -156h-14q-74 77 -201 145t-303 68q-162 0 -289.5 -52.5t-212.5 -140.5t-127.5 -197.5t-42.5 -221.5q0 -109 42 -252t133 -274t241.5 -216.5t357.5 -85.5q167 0 327.5 54t235.5 143l13 -4l-103 -158q-209 -46 -316.5 -61.5t-269.5 -9.5z" />
    <glyph glyph-name="Eacute" unicode="&#xc9;" 
d="M80 1456v17h926v-203h-15q-22 81 -35.5 110t-34.5 36t-81 7h-486v-661h451q53 0 76.5 8t27.5 41h15v-139h-15q-7 34 -27.5 41.5t-64.5 7.5h-463v-455q0 -102 19.5 -148t59 -57.5t126.5 -11.5h260q105 0 149.5 7t69 38.5t35.5 108.5h14v-203h-1007v14q55 4 79.5 21
t24.5 84v1190q0 89 -17 118t-87 29zM608 1884h180l-303 -309h-47z" />
    <glyph glyph-name="Ntilde" unicode="&#xd1;" horiz-adv-x="1642" 
d="M1288 1473h285v-15q-66 -2 -90.5 -27.5t-24.5 -107.5v-1341l-1175 1251v-1090q0 -40 5 -65.5t18 -38.5t27 -16t56 -9v-14h-283v14q56 1 79.5 15t28.5 42.5t5 98.5v997q0 125 -35 210.5t-170 80.5v15h277l1104 -1176v1040q0 76 -25.5 98.5t-81.5 22.5v15zM522 1577h-43
q-1 54 17.5 94t48.5 65.5t69 39.5t74 14q39 0 76 -14t104 -47q70 -34 88.5 -41t48.5 -7q95 0 119 109h41q1 -63 -28.5 -110.5t-81.5 -75t-109 -27.5q-46 0 -76.5 11t-89.5 40q-69 36 -96.5 47t-55.5 11q-38 0 -70.5 -25.5t-35.5 -83.5z" />
    <glyph glyph-name="Odieresis" unicode="&#xd6;" horiz-adv-x="1665" 
d="M1597 836q0 -169 -55 -325t-163.5 -277t-265.5 -189t-349 -68q-155 0 -283.5 53.5t-222 150t-142 219t-48.5 257.5q0 142 52 290.5t155 272t260 199.5t358 76q159 0 288.5 -50.5t223.5 -142t143 -211t49 -255.5zM1505 655q0 172 -72 314t-186.5 241.5t-246.5 153
t-244 53.5q-138 0 -272 -72.5t-219 -205t-85 -297.5q0 -203 99.5 -384.5t262.5 -292t345 -110.5q116 0 229 47t199 127.5t138 192t52 233.5zM934 1669q0 40 27 67t66 27t65.5 -27.5t26.5 -66.5q0 -37 -26.5 -64.5t-65.5 -27.5t-66 27t-27 65zM547 1669q0 40 27 67t65 27
q39 0 66 -28t27 -66q0 -36 -27 -64t-66 -28q-38 0 -65 27t-27 65z" />
    <glyph glyph-name="Udieresis" unicode="&#xdc;" horiz-adv-x="1536" 
d="M1452 0h-278v227q-212 -237 -508 -237q-97 0 -181 26t-150.5 82t-105.5 146.5t-39 208.5v882q0 55 -7 80t-31 34.5t-70 8.5v15h391v-15q-57 0 -85 -18.5t-28 -93.5v-809q0 -145 35 -234q35 -87 95.5 -140t128.5 -75t131 -22q239 0 424 215v997q0 75 -6.5 110.5
t-26.5 52.5t-62 17h-14v15h387v-15q-59 -2 -84 -17.5t-25 -82.5v-1200q0 -57 5 -85t29.5 -44t74.5 -15v-14zM870 1669q0 40 27 67t66 27t65.5 -27.5t26.5 -66.5q0 -37 -26.5 -64.5t-65.5 -27.5t-66 27t-27 65zM483 1669q0 40 27 67t65 27q39 0 66 -28t27 -66q0 -36 -27 -64
t-66 -28q-38 0 -65 27t-27 65z" />
    <glyph glyph-name="degree" unicode="&#xb0;" horiz-adv-x="819" 
d="M717 1096q0 -83 -42 -154.5t-112.5 -112.5t-152.5 -41q-83 0 -154 41.5t-112.5 112.5t-41.5 154q0 64 23 119t67 98t100 66.5t118 23.5q61 0 117.5 -23.5t99.5 -66.5t66.5 -99.5t23.5 -117.5zM635 1096q0 60 -31 112t-83 82.5t-113 30.5q-93 0 -159 -66t-65 -159
q0 -94 66 -160t160 -66q61 0 113 31t82 82.5t30 112.5z" />
    <glyph glyph-name="cent" unicode="&#xa2;" 
d="M330 -258l-39 14l110 254q-116 40 -215.5 132.5t-99.5 301.5q0 105 37.5 198.5t108 164t169 110t222.5 39.5q85 0 174 -26l84 192l34 -16l-79 -186q49 -20 82 -37q20 -63 40 -138l-14 -2q-33 46 -61 72t-70 49l-342 -790q95 -49 217 -49q229 0 334 149l14 -6
q-29 -65 -67 -139q-80 -24 -167.5 -35.5t-180.5 -11.5q-104 0 -181 18zM438 96l338 787q-77 35 -174 35q-127 0 -217.5 -53t-135 -135.5t-44.5 -172.5q0 -93 33.5 -185t87.5 -165t112 -111z" />
    <glyph glyph-name="sterling" unicode="&#xa3;" horiz-adv-x="1130" 
d="M201 590h-170v43h170v321q0 160 42.5 266.5t111 167.5t142 85t144.5 24t160 -25t180 -83l55 -201l-16 -2q-44 69 -92 127t-120 100.5t-161 42.5q-123 0 -185 -75t-76.5 -157.5t-14.5 -152.5v-440h409v-41h-409v-318q0 -52 5.5 -87t33 -69t86.5 -54.5t161 -20.5h166
q59 0 99.5 6.5t81.5 36t66 94t26 176.5h12v-354h-1034v12q52 3 77.5 10.5t37.5 31.5t12 79v457z" />
    <glyph glyph-name="bullet" unicode="&#x2022;" horiz-adv-x="717" 
d="M610 678q0 -103 -73.5 -177.5t-178.5 -74.5q-68 0 -125 34t-90.5 92t-33.5 126t33.5 125t90.5 91t125 34q70 0 128 -34t91 -91t33 -125z" />
    <glyph glyph-name="registered" unicode="&#xae;" horiz-adv-x="1556" 
d="M385 1114h387q138 0 217.5 -62.5t79.5 -160.5q0 -166 -223 -223l211 -297q39 -54 64 -70t57 -18v-35h-185l-295 405h-75v-235q0 -70 4.5 -89t25.5 -32q24 -14 88 -14v-35h-366v35q72 0 88 27t16 110v524q0 83 -13.5 108.5t-80.5 26.5v35zM623 1055v-359h30q99 0 176.5 40
t77.5 143q0 50 -23.5 93.5t-70 70t-106.5 26.5q-42 0 -84 -14zM778 1386q190 0 354 -94.5t259.5 -257t95.5 -356.5q0 -192 -95.5 -355t-258.5 -258.5t-355 -95.5q-191 0 -354 95t-258.5 258.5t-95.5 355.5q0 193 95.5 356.5t259 257.5t353.5 94zM778 1325q-175 0 -324 -86.5
t-236 -235t-87 -325.5q0 -133 48.5 -249t141 -208.5t208.5 -141t249 -48.5q176 0 325 86.5t235.5 235.5t86.5 325q0 133 -50.5 252t-140 208t-207.5 138t-249 49z" />
    <glyph glyph-name="copyright" unicode="&#xa9;" horiz-adv-x="1556" 
d="M1128 1135l21 -281h-39q-75 236 -303 236q-95 0 -168 -45t-113.5 -134t-40.5 -211q0 -74 18 -162.5t91.5 -168.5t222.5 -80q195 0 311 162l37 -21q-138 -203 -383 -203q-103 0 -187.5 35t-147 99t-95.5 145t-33 166q0 91 35 174.5t101.5 149.5t160 102.5t201.5 36.5
q49 0 82.5 -7.5t104.5 -29.5q20 -8 36 -8q20 0 29.5 10.5t20.5 34.5h38zM778 1386q190 0 354 -94.5t259.5 -257t95.5 -356.5q0 -192 -95.5 -355t-258.5 -258.5t-355 -95.5q-191 0 -354 95t-258.5 258.5t-95.5 355.5q0 193 95.5 356.5t259 257.5t353.5 94zM778 1325
q-175 0 -324 -86.5t-236 -235t-87 -325.5q0 -133 48.5 -249t141 -208.5t208.5 -141t249 -48.5q176 0 325 86.5t235.5 235.5t86.5 325q0 133 -50.5 252t-140 208t-207.5 138t-249 49z" />
    <glyph glyph-name="trademark" unicode="&#x2122;" horiz-adv-x="2007" 
d="M51 1524h729l21 -201h-33q-12 88 -63 114.5t-132 26.5h-73v-579q0 -54 7.5 -81.5t28.5 -38t68 -13.5v-35h-375v35q66 8 83.5 28.5t17.5 102.5v581h-76q-98 0 -136 -32.5t-55 -108.5h-32zM1157 1524l273 -572l264 572h278v-37q-51 -2 -72.5 -11.5t-28.5 -35.5t-7 -88v-467
q0 -82 17 -105.5t91 -27.5v-35h-397v35q77 3 98 27t21 104v491h-4l-301 -657h-33l-305 649h-4v-481q0 -73 15.5 -103t78.5 -30h37v-35h-308v35q51 1 74.5 11t31 35.5t7.5 84.5v467q0 86 -16.5 111.5t-96.5 25.5v37h287z" />
    <glyph glyph-name="Acute" unicode="&#xb4;" horiz-adv-x="682" 
d="M352 1884h180l-303 -309h-47z" />
    <glyph glyph-name="Dieresis" unicode="&#xa8;" horiz-adv-x="682" 
d="M442 1669q0 40 27 67t66 27t65.5 -27.5t26.5 -66.5q0 -37 -26.5 -64.5t-65.5 -27.5t-66 27t-27 65zM55 1669q0 40 27 67t65 27q39 0 66 -28t27 -66q0 -36 -27 -64t-66 -28q-38 0 -65 27t-27 65z" />
    <glyph glyph-name="notequal" unicode="&#x2260;" horiz-adv-x="1124" 
d="M823 1124l101 -57l-156 -279h338v-112h-399l-160 -285h559v-112h-621l-184 -330l-100 57l151 273h-321v112h385l157 285h-542v112h606z" />
    <glyph glyph-name="AE" unicode="&#xc6;" horiz-adv-x="1772" 
d="M854 725h-336l-321 -621q-2 -2 -4.5 -6l-2.5 -4q-14 -28 -14 -43q0 -39 49 -35v-16h-217v16q69 4 109 70q1 3 9 17t9 16q3 3 4 5t2 3l701 1346h827v-205h-14q-18 77 -34 108.5t-39 39t-77 7.5h-481v-657h438q47 0 66 2t31 12.5t16 34.5h14v-141h-14q-6 32 -24.5 39.5
t-61.5 9.5l-53 2h-412v-385q0 -120 12 -181.5t48.5 -85.5t113.5 -24h322q75 0 114.5 7.5t67 39.5t37.5 103h14v-199h-1003v14q68 -3 84 29t18 111l2 112v459zM541 766h313v602h-4z" />
    <glyph glyph-name="Oslash" unicode="&#xd8;" horiz-adv-x="1665" 
d="M1350 1352l129 145l28 -24l-129 -146q73 -63 146 -183t73 -310q0 -160 -53.5 -315.5t-158 -277.5t-263 -194t-358.5 -72q-79 0 -150.5 13t-146.5 46t-145 89q-1 1 -3 2t-2 2l-133 -152l-30 25l133 152q-70 61 -120 142.5t-74.5 171.5t-24.5 189q0 145 52 293t155.5 272.5
t260.5 200.5t357 76q268 0 457 -145zM403 283l830 936q-4 4 -6 4q-48 40 -119 84.5t-161 77t-189 32.5q-102 0 -204 -40t-187 -116t-136 -184.5t-51 -238.5q0 -162 64.5 -307t158.5 -248zM1262 1194l-830 -938q81 -82 165.5 -127.5t158 -61.5t133.5 -16q148 0 291 77
t234 218t91 322q0 83 -22.5 171t-77.5 180.5t-143 174.5z" />
    <glyph glyph-name="infinity" unicode="&#x221e;" horiz-adv-x="1460" 
d="M731 608q75 67 110.5 97t72 53t81.5 43q72 32 143 27.5t131 -41t97 -93.5t43 -123q8 -78 -29.5 -154.5t-110 -123t-161.5 -37.5q-70 7 -134 34.5t-109 61t-87.5 76t-46.5 45.5q-24 -24 -56.5 -56t-76.5 -65.5t-108 -61t-136 -34.5q-89 -9 -161.5 37.5t-110 123
t-29.5 154.5q7 67 44 124t97 93t131 40.5t142 -27.5q45 -20 81.5 -43t72 -53t110.5 -97zM664 541q-88 75 -141.5 112t-102.5 54q-61 22 -110.5 12.5t-84.5 -40.5t-52 -71.5t-17 -77.5q1 -56 37 -101.5t91 -64.5t109 -6q81 19 124 50.5t147 132.5zM799 541q68 -67 105 -99.5
t73 -51.5t92 -32q55 -13 110 6t91 64.5t37 101.5q2 49 -29.5 102.5t-92 78t-143.5 -3.5q-50 -18 -103 -55.5t-140 -110.5z" />
    <glyph glyph-name="plusminus" unicode="&#xb1;" horiz-adv-x="1124" 
d="M20 836h486v485h112v-485h486v-113h-486v-485h-112v485h-486v113zM1104 0h-1084v113h1084v-113z" />
    <glyph glyph-name="lessequal" unicode="&#x2264;" horiz-adv-x="1124" 
d="M59 0v113h1018v-113h-1018zM59 711v127l1018 471v-127l-887 -408l887 -407v-127z" />
    <glyph glyph-name="greaterequal" unicode="&#x2265;" horiz-adv-x="1124" 
d="M1077 113v-113h-1018v113h1018zM1077 838v-127l-1018 -471v127l887 407l-887 408v127z" />
    <glyph glyph-name="yen" unicode="&#xa5;" horiz-adv-x="1174" 
d="M473 813l-334 553q-53 94 -127 92v15h348v-15q-49 0 -49 -37q0 -9 12.5 -34l12.5 -25l297 -490l325 494l5 4q26 43 26 55q0 33 -43 33h-6v15h221v-15q-41 -2 -69 -20t-62 -70l-360 -545v-10h424v-43h-424v-301h424v-43h-424v-279q0 -83 20.5 -107t91.5 -26v-14h-393v14
q46 -2 78.5 14.5t32.5 84.5v32v281h-422v43h422v301h-422v43h395z" />
    <glyph glyph-name="mu" unicode="&#xb5;" horiz-adv-x="1180" 
d="M125 1024h176v-682q0 -169 107 -217q47 -20 85.5 -20.5t81.5 18.5q40 18 85.5 56.5t64.5 82.5v762h176v-786q0 -95 47 -144q49 -49 109 -16q25 15 35.5 35.5t17.5 53t10 40.5h41q-18 -77 -42.5 -125.5t-96.5 -87.5q-66 -35 -122.5 -28.5t-88.5 30.5q-25 20 -38.5 37.5
t-22 37.5t-13 42.5l-10.5 52.5q-49 -73 -143 -141q-81 -60 -193 -60q-42 0 -79 17.5t-68 43.5t-45 37v-47q3 -68 28 -148t33 -124q17 -94 -15 -147.5t-79 -53.5t-78.5 53t-15.5 148q8 46 25 104t22.5 88.5t5.5 79.5v1008z" />
    <glyph glyph-name="partialdiff" unicode="&#x2202;" horiz-adv-x="1012" 
d="M213 1366l-80 102q76 34 177 52t194 -4q102 -24 188.5 -89t155.5 -186q42 -73 64 -164t28 -160.5t6 -111.5q0 -47 -10 -143t-34.5 -205.5t-61.5 -188.5q-48 -102 -91.5 -160t-121.5 -102q-102 -56 -208.5 -48.5t-191.5 65.5q-45 31 -80 70.5t-60.5 96.5t-31.5 129
q-9 111 27 204t86 155q58 71 128 109.5t163 35.5q88 -3 147 -31t160 -108q18 99 22 238q3 65 -19.5 168.5t-45.5 156.5q-24 59 -84.5 117.5t-144.5 65.5q-56 5 -89.5 3t-56.5 -9t-64 -26t-71 -32zM750 612q-59 67 -101 99.5t-121 31.5q-117 -3 -196 -110
q-41 -58 -62.5 -110.5t-31 -107t-9.5 -112.5q0 -74 17.5 -144.5t77.5 -111.5q44 -28 83.5 -29t86.5 19q103 45 165 190q36 88 57.5 186.5t33.5 198.5z" />
    <glyph glyph-name="summation" unicode="&#x2211;" horiz-adv-x="1460" 
d="M1264 1526l12 -326h-41q-32 102 -50.5 139t-79 66t-183.5 29h-539l559 -734l-602 -694h760q83 0 128 19.5t77 66t71 146.5h47q-45 -185 -56 -245t-32 -214q-39 7 -80 14.5t-77 7.5h-1031q-14 0 -36.5 -1.5l-45 -3t-36.5 -1.5l714 815l-710 930q32 -2 105 -8t108 -6h1018z
" />
    <glyph glyph-name="product" unicode="&#x220f;" horiz-adv-x="1686" 
d="M1446 1288v-1282q0 -69 23.5 -105t67 -48.5t108.5 -12.5v-47h-627v47q100 0 148 33t48 133v1419h-733v-1419q0 -69 23.5 -105t67 -48.5t108.5 -12.5v-47h-629v47q102 0 150.5 33t48.5 133v1282q0 203 -195 203v47h1583v-47q-192 0 -192 -203z" />
    <glyph glyph-name="pi" unicode="&#x3c0;" horiz-adv-x="1124" 
d="M686 821h-231q-17 -201 -33 -329.5t-31 -221t-31 -168.5q-13 -59 -38 -92.5t-74 -46.5q-40 -10 -79.5 16t-47.5 62q-6 27 -3 45.5t11 34.5t18 29t21 26q3 4 34.5 41t47.5 67.5t20 67.5l60 469h-97q-41 0 -78 -19.5t-57 -45.5l-43 -64h-35q14 39 35 93.5t58 105.5
q29 43 78 74.5t114 31.5h764v-176h-258q-25 -239 -25 -481q0 -44 15 -86t37 -64q28 -26 68.5 -33.5t82.5 25.5q23 18 33.5 41t13.5 44l6 42h43q-1 -83 -25 -149.5t-57 -107t-65 -58.5q-36 -22 -84 -26.5t-88 22.5q-66 48 -100 151q-19 60 -21.5 158.5t6.5 192.5z" />
    <glyph glyph-name="integral" unicode="&#x222b;" horiz-adv-x="561" 
d="M389 999l-2 -442q-2 -364 -70 -600q-21 -76 -59 -125q-17 -22 -75.5 -42t-104.5 1q-22 11 -41.5 36t-26.5 44q-12 35 0 65t49 48q34 17 60.5 5t56.5 -46q29 -30 48.5 -4t27.5 82.5t6 130.5q-2 76 -4 141t-4 119.5t-3 163t-1 219.5v295q0 90 2 192t7.5 181.5t16 139.5
t27.5 121q10 34 37.5 75.5t54.5 58.5q26 16 56.5 17.5t59.5 -8.5t44 -20q27 -17 40.5 -60t-13.5 -77q-15 -18 -43 -29.5t-56 -8.5t-47 24q-22 22 -40.5 24t-29 -11.5t-12.5 -33.5q-1 -26 2 -62.5t14 -173t17 -243t6 -197.5z" />
    <glyph glyph-name="ordfeminine" unicode="&#xaa;" horiz-adv-x="618" 
d="M518 1360v-383q0 -31 21 -31q13 0 36 21q15 10 19 10q10 0 10 -12q0 -42 -38.5 -77.5t-80.5 -35.5q-34 0 -54.5 23.5t-20.5 62.5v29q-51 -51 -102.5 -82t-119.5 -31q-64 0 -103.5 32.5t-39.5 86.5q0 81 63.5 120t208.5 87q38 12 50 16.5t43 15.5v107q0 47 -27 79t-72 32
q-65 0 -113 -33.5t-92 -81.5l-34 28q56 75 114 120.5t148 45.5q88 0 136 -44t48 -105zM410 1014v162l-54 -21q-114 -44 -153 -78.5t-39 -72.5q0 -33 25 -52.5t57 -19.5q76 0 164 82z" />
    <glyph glyph-name="ordmasculine" unicode="&#xba;" horiz-adv-x="705" 
d="M346 1509q74 0 133 -27t101 -74.5t64 -106t22 -125.5t-23.5 -127.5t-67 -107t-100 -72t-119.5 -25.5q-90 0 -162.5 47.5t-113.5 125.5t-41 169q0 95 46 169.5t117 114t144 39.5zM330 1442q-82 0 -132.5 -58.5t-50.5 -148.5q0 -122 71 -221t165 -99q43 0 84 26t65.5 74
t24.5 111q0 79 -31.5 153t-83.5 118.5t-112 44.5z" />
    <glyph glyph-name="Omega" unicode="&#x2126;" horiz-adv-x="1573" 
d="M641 311l33 -311h-604v332h30q20 -78 45.5 -101.5t90.5 -23.5h323l-4 57q-89 27 -145.5 53.5t-106.5 68.5t-90 101q-69 103 -90.5 212.5t-4 212t61.5 180.5q52 95 106.5 140t127.5 87q69 41 169.5 65.5t204.5 24.5q105 0 205.5 -24.5t169.5 -65.5q73 -42 127 -86
t107 -141q44 -78 61.5 -180.5t-4 -212t-90.5 -212.5q-60 -87 -137.5 -135.5t-204.5 -87.5l-4 -57h323q65 0 91.5 24.5t44.5 100.5h30v-332h-604l33 311q25 11 55.5 24.5t61.5 35.5t64 65.5t61 108.5q37 86 47.5 215.5t-22.5 261t-118 215.5q-106 106 -297 106t-296 -106
q-85 -84 -118 -215.5t-22.5 -261t47.5 -215.5q28 -65 60.5 -108t64.5 -66t61 -36t56 -24z" />
    <glyph glyph-name="questiondown" unicode="&#xbf;" horiz-adv-x="725" 
d="M453 1087l20 -516q-149 -25 -235 -100t-86 -195q0 -63 30.5 -123.5t87.5 -98.5t136 -38q87 0 163.5 48.5t114.5 140.5h16l-47 -174q-130 -54 -245 -54q-190 0 -291 104t-101 255q0 161 85 238.5t186 115.5q59 22 83.5 36.5t31 31.5t10.5 61l20 268h21zM440 1278
q-45 0 -76.5 32.5t-31.5 75.5q0 44 31.5 76.5t76.5 32.5q44 0 76.5 -31.5t32.5 -77.5q0 -44 -32 -76t-77 -32z" />
    <glyph glyph-name="exclamdown" unicode="&#xa1;" horiz-adv-x="342" 
d="M57 0l52 553q5 50 18 127q11 65 17 119.5t14 136.5q6 57 6 108v39h18q2 -20 4 -100q10 -117 15 -215q2 -32 9.5 -172.5t8.5 -175.5q4 -20 4 -78l4 -59q10 -144 17 -191t23.5 -60.5t64.5 -13.5v-18h-275zM172 1495q47 0 78 -32t31 -77q0 -44 -31 -76t-78 -32
q-44 0 -76.5 32.5t-32.5 75.5t32 76t77 33z" />
    <glyph glyph-name="logicalnot" unicode="&#xac;" horiz-adv-x="1460" 
d="M31 477v113h1362v-590h-113v477h-1249z" />
    <glyph glyph-name="radical" unicode="&#x221a;" horiz-adv-x="1124" 
d="M53 854l-33 68l299 147l404 -825l260 1634l72 -10l-307 -1946l-498 1028z" />
    <glyph glyph-name="florin" unicode="&#x192;" 
d="M905 891v-43h-254l-69 -801q-17 -207 -86.5 -358.5t-276.5 -151.5q-106 0 -209 39l2 266h13q14 -127 66 -195.5t120 -68.5q107 0 150 104t57 267l76 899h-170v43h174l14 156q9 119 32 211.5t96 166.5t210 74q66 0 112 -15.5t103 -41.5l25 -201h-17q-69 215 -215 215
q-73 0 -112 -49t-52.5 -116.5t-21.5 -178.5l-19 -221h252z" />
    <glyph glyph-name="approxequal" unicode="&#x2248;" horiz-adv-x="1124" 
d="M1004 807l75 -49q-58 -97 -163.5 -138t-200.5 -14l-307 88q-66 19 -118 11.5t-86.5 -30t-54.5 -48.5t-32 -41l-88 55q79 105 182.5 142t216.5 5l309 -86q68 -20 162 19q66 28 105 86zM1004 498l75 -49q-58 -99 -163.5 -139t-200.5 -13l-307 88q-66 19 -118 11.5
t-86.5 -30t-56 -50.5t-30.5 -40l-88 56q79 105 182.5 142t216.5 5l309 -86q68 -20 162 19q66 28 105 86z" />
    <glyph glyph-name="Delta" unicode="&#x2206;" horiz-adv-x="1253" 
d="M668 1409l577 -1409h-1233zM594 1059l-447 -959h844z" />
    <glyph glyph-name="guillemotleft" unicode="&#xab;" horiz-adv-x="897" 
d="M438 1116l-196 -381l198 -377h-32l-353 379l348 379h35zM844 1116l-197 -381l199 -377h-33l-352 379l348 379h35z" />
    <glyph glyph-name="guillemotright" unicode="&#xbb;" horiz-adv-x="897" 
d="M459 358l196 381l-198 377h32l353 -379l-348 -379h-35zM53 358l197 381l-199 377h33l352 -379l-348 -379h-35z" />
    <glyph glyph-name="ellipsis" unicode="&#x2026;" horiz-adv-x="2048" 
d="M1706 197q45 0 77 -32t32 -77q0 -44 -32 -76t-77 -32q-44 0 -76.5 32.5t-32.5 75.5t32 76t77 33zM1024 197q45 0 77 -32t32 -77q0 -44 -32 -76t-77 -32q-44 0 -76.5 32.5t-32.5 75.5t32 76t77 33zM342 197q45 0 77 -32t32 -77q0 -44 -32 -76t-77 -32q-44 0 -76.5 32.5
t-32.5 75.5t32 76t77 33z" />
    <glyph glyph-name="nbspace" unicode="&#xa0;" horiz-adv-x="596" 
 />
    <glyph glyph-name="Agrave" unicode="&#xc0;" horiz-adv-x="1409" 
d="M856 678h-430l-223 -557q-10 -25 -10 -27q-13 -26 -13 -47q0 -33 49 -33v-14h-219v14q59 1 86 33t54 100l534 1348h25l526 -1302q0 -8 6 -17l8 -22q25 -62 57.5 -101t92.5 -39v-14h-344v14q29 0 38 13t9 24q0 28 -23 80q-2 4 -5 12.5t-5 10.5zM440 719h398l-199 502z
M515 1884h180l170 -309h-47z" />
    <glyph glyph-name="Atilde" unicode="&#xc3;" horiz-adv-x="1409" 
d="M856 678h-430l-223 -557q-10 -25 -10 -27q-13 -26 -13 -47q0 -33 49 -33v-14h-219v14q59 1 86 33t54 100l534 1348h25l526 -1302q0 -8 6 -17l8 -22q25 -62 57.5 -101t92.5 -39v-14h-344v14q29 0 38 13t9 24q0 28 -23 80q-2 4 -5 12.5t-5 10.5zM440 719h398l-199 502z
M406 1577h-43q-1 54 17.5 94t48.5 65.5t69 39.5t74 14q39 0 76 -14t104 -47q70 -34 88.5 -41t48.5 -7q95 0 119 109h41q1 -63 -28.5 -110.5t-81.5 -75t-109 -27.5q-46 0 -76.5 11t-89.5 40q-69 36 -96.5 47t-55.5 11q-38 0 -70.5 -25.5t-35.5 -83.5z" />
    <glyph glyph-name="Otilde" unicode="&#xd5;" horiz-adv-x="1665" 
d="M1597 836q0 -169 -55 -325t-163.5 -277t-265.5 -189t-349 -68q-155 0 -283.5 53.5t-222 150t-142 219t-48.5 257.5q0 142 52 290.5t155 272t260 199.5t358 76q159 0 288.5 -50.5t223.5 -142t143 -211t49 -255.5zM1505 655q0 172 -72 314t-186.5 241.5t-246.5 153
t-244 53.5q-138 0 -272 -72.5t-219 -205t-85 -297.5q0 -203 99.5 -384.5t262.5 -292t345 -110.5q116 0 229 47t199 127.5t138 192t52 233.5zM533 1577h-43q-1 54 17.5 94t48.5 65.5t69 39.5t74 14q39 0 76 -14t104 -47q70 -34 88.5 -41t48.5 -7q95 0 119 109h41
q1 -63 -28.5 -110.5t-81.5 -75t-109 -27.5q-46 0 -76.5 11t-89.5 40q-69 36 -96.5 47t-55.5 11q-38 0 -70.5 -25.5t-35.5 -83.5z" />
    <glyph glyph-name="OE" unicode="&#x152;" horiz-adv-x="2028" 
d="M1845 811v-139h-12q-5 34 -27 41.5t-71 7.5h-457v-432q0 -88 4.5 -128.5t24.5 -66t65.5 -35.5t128.5 -10h311q82 0 126.5 27.5t56.5 126.5h12v-203h-1124q-297 0 -457 90q-169 96 -260.5 260t-91.5 357q0 259 136.5 432.5t283.5 251.5q156 82 399 82h1036v-203h-14
q-15 77 -31 108t-40.5 38t-84.5 7h-481v-661h475q33 0 53 8t27 41h12zM1108 262v983q0 91 -11 129t-40.5 49t-98.5 11q-81 0 -167 -9.5t-181 -48.5q-113 -47 -193.5 -133.5t-123.5 -208.5t-43 -264q0 -217 89.5 -384t243.5 -257t343 -90h37q96 0 120.5 55t24.5 168z" />
    <glyph glyph-name="oe" unicode="&#x153;" horiz-adv-x="2028" 
d="M1845 811v-139h-12q-5 34 -27 41.5t-71 7.5h-457v-432q0 -88 4.5 -128.5t24.5 -66t65.5 -35.5t128.5 -10h311q82 0 126.5 27.5t56.5 126.5h12v-203h-1124q-297 0 -457 90q-169 96 -260.5 260t-91.5 357q0 259 136.5 432.5t283.5 251.5q156 82 399 82h1036v-203h-14
q-15 77 -31 108t-40.5 38t-84.5 7h-481v-661h475q33 0 53 8t27 41h12zM1108 262v983q0 91 -11 129t-40.5 49t-98.5 11q-81 0 -167 -9.5t-181 -48.5q-113 -47 -193.5 -133.5t-123.5 -208.5t-43 -264q0 -217 89.5 -384t243.5 -257t343 -90h37q96 0 120.5 55t24.5 168z" />
    <glyph glyph-name="endash" unicode="&#x2013;" horiz-adv-x="1024" 
d="M-12 778h1048v-82h-1048v82z" />
    <glyph glyph-name="emdash" unicode="&#x2014;" horiz-adv-x="2048" 
d="M-12 778h2072v-82h-2072v82z" />
    <glyph glyph-name="quotedblleft" unicode="&#x201c;" horiz-adv-x="682" 
d="M641 1495l6 -8q-104 -75 -140 -158.5t-36 -142.5q0 -11 6.5 -25t16.5 -14q4 0 20 4q20 4 23 4q43 0 75.5 -29.5t32.5 -72.5t-31.5 -76t-81.5 -33q-63 0 -108 54.5t-45 146.5q0 98 44.5 167.5t97 107.5t120.5 75zM299 1495l8 -8q-106 -75 -141 -157t-35 -144q0 -39 21 -39
q4 0 20 4q20 4 23 4q43 0 75.5 -29.5t32.5 -72.5t-31.5 -76t-81.5 -33q-39 0 -74 23.5t-57 69.5t-22 108q0 98 44.5 167.5t97 107.5t120.5 75z" />
    <glyph glyph-name="quotedblright" unicode="&#x201d;" horiz-adv-x="682" 
d="M41 944l-6 8q105 76 140.5 158t35.5 143q0 39 -23 39q-4 0 -20 -4q-20 -4 -23 -4q-41 0 -74.5 29.5t-33.5 72.5t31 76t82 33q63 0 108 -53.5t45 -147.5q0 -98 -44.5 -167.5t-97 -107.5t-120.5 -75zM383 944l-8 8q75 54 113.5 112.5t50.5 105.5t12 83q0 39 -21 39
q-4 0 -20 -4q-20 -4 -23 -4q-41 0 -74.5 29.5t-33.5 72.5t31 76t82 33q62 0 107.5 -54t45.5 -147q0 -98 -44.5 -167.5t-97 -107.5t-120.5 -75z" />
    <glyph glyph-name="quoteleft" unicode="&#x2018;" horiz-adv-x="342" 
d="M301 1495l6 -8q-104 -75 -140 -158.5t-36 -142.5q0 -11 6.5 -25t16.5 -14q4 0 20 4q20 4 23 4q43 0 75.5 -29.5t32.5 -72.5t-30.5 -76t-81.5 -33q-63 0 -108.5 54.5t-45.5 146.5q0 98 44.5 167.5t97 107.5t120.5 75z" />
    <glyph glyph-name="quoteright" unicode="&#x2019;" horiz-adv-x="342" 
d="M41 944l-6 8q105 76 140.5 158t35.5 143q0 39 -23 39q-4 0 -20 -4q-20 -4 -23 -4q-41 0 -74.5 29.5t-33.5 72.5t31 76t82 33q63 0 108 -53.5t45 -147.5q0 -98 -44.5 -167.5t-97 -107.5t-120.5 -75z" />
    <glyph glyph-name="divide" unicode="&#xf7;" horiz-adv-x="1124" 
d="M20 483v113h1078v-113h-1078zM434 819q0 48 33.5 81.5t81.5 33.5q30 0 56.5 -15t42.5 -42t16 -58q0 -47 -34.5 -80.5t-80.5 -33.5q-47 0 -81 34t-34 80zM434 260q0 48 33.5 81.5t81.5 33.5q30 0 56.5 -15t42.5 -42t16 -58q0 -47 -34 -81t-81 -34q-48 0 -81.5 34.5
t-33.5 80.5z" />
    <glyph glyph-name="lozenge" unicode="&#x25ca;" horiz-adv-x="1012" 
d="M557 0h-123l-397 772l397 754h123l397 -754zM831 772l-335 643l-336 -643l336 -661z" />
    <glyph glyph-name="Ydieresis" unicode="&#x178;" horiz-adv-x="1174" 
d="M940 1473h221v-15q-41 -2 -69 -20t-62 -70l-360 -545v-676q0 -83 20.5 -107t91.5 -26v-14h-393v14q47 -2 80 14.5t33 84.5l-2 32v623l-361 598q-53 94 -127 92v15h348v-15q-49 0 -49 -37q0 -9 12.5 -34l12.5 -25l297 -490l325 494l5 4q26 43 26 55q0 33 -43 33h-6v15z
M688 1669q0 40 27 67t66 27t65.5 -27.5t26.5 -66.5q0 -37 -26.5 -64.5t-65.5 -27.5t-66 27t-27 65zM301 1669q0 40 27 67t65 27q39 0 66 -28t27 -66q0 -36 -27 -64t-66 -28q-38 0 -65 27t-27 65z" />
    <glyph glyph-name="fraction" unicode="&#x2215;" horiz-adv-x="342" 
d="M582 1386h114l-950 -1411h-115z" />
    <glyph glyph-name="guilsinglleft" unicode="&#x2039;" horiz-adv-x="492" 
d="M438 1116l-196 -381l198 -377h-32l-353 379l348 379h35z" />
    <glyph glyph-name="guilsinglright" unicode="&#x203a;" horiz-adv-x="492" 
d="M53 358l197 381l-199 377h33l352 -379l-348 -379h-35z" />
    <glyph glyph-name="periodcentered" unicode="&#x2219;" horiz-adv-x="342" 
d="M170 848q46 0 77.5 -31.5t31.5 -77.5q0 -44 -31 -76t-78 -32q-45 0 -77 33t-32 75q0 44 32.5 76.5t76.5 32.5z" />
    <glyph glyph-name="quotesinglbase" unicode="&#x201a;" horiz-adv-x="342" 
d="M43 -362l-8 8q105 74 140.5 156.5t35.5 144.5q0 39 -21 39q-6 0 -22 -4q-25 -5 -23 -5q-40 0 -74 29t-34 74q0 43 31.5 75.5t81.5 32.5q63 0 108 -52.5t45 -147.5q0 -139 -78.5 -218t-181.5 -132z" />
    <glyph glyph-name="quotedblbase" unicode="&#x201e;" horiz-adv-x="682" 
d="M41 -362l-6 8q104 75 140 157t36 144q0 14 -6 26.5t-17 12.5q-4 0 -20 -4q-25 -5 -23 -5q-41 0 -74.5 29.5t-33.5 73.5q0 43 31.5 75.5t81.5 32.5q63 0 108 -52.5t45 -147.5q0 -98 -45.5 -168.5t-103 -112t-113.5 -69.5zM383 -362l-8 8q105 74 140.5 156.5t35.5 144.5
q0 39 -21 39q-4 0 -20 -4q-25 -5 -23 -5q-41 0 -74.5 29.5t-33.5 73.5q0 43 31.5 75.5t81.5 32.5q62 0 107.5 -53.5t45.5 -146.5q0 -98 -45.5 -168.5t-103 -112t-113.5 -69.5z" />
    <glyph glyph-name="Acircumflex" unicode="&#xc2;" horiz-adv-x="1409" 
d="M856 678h-430l-223 -557q-10 -25 -10 -27q-13 -26 -13 -47q0 -33 49 -33v-14h-219v14q59 1 86 33t54 100l534 1348h25l526 -1302q0 -8 6 -17l8 -22q25 -62 57.5 -101t92.5 -39v-14h-344v14q29 0 38 13t9 24q0 28 -23 80q-2 4 -5 12.5t-5 10.5zM440 719h398l-199 502z
M760 1884l264 -309h-45l-272 192l-272 -192h-47l264 309h108z" />
    <glyph glyph-name="Ecircumflex" unicode="&#xca;" 
d="M80 1456v17h926v-203h-15q-22 81 -35.5 110t-34.5 36t-81 7h-486v-661h451q53 0 76.5 8t27.5 41h15v-139h-15q-7 34 -27.5 41.5t-64.5 7.5h-463v-455q0 -102 19.5 -148t59 -57.5t126.5 -11.5h260q105 0 149.5 7t69 38.5t35.5 108.5h14v-203h-1007v14q55 4 79.5 21
t24.5 84v1190q0 89 -17 118t-87 29zM610 1884l264 -309h-45l-272 192l-272 -192h-47l264 309h108z" />
    <glyph glyph-name="Aacute" unicode="&#xc1;" horiz-adv-x="1409" 
d="M856 678h-430l-223 -557q-10 -25 -10 -27q-13 -26 -13 -47q0 -33 49 -33v-14h-219v14q59 1 86 33t54 100l534 1348h25l526 -1302q0 -8 6 -17l8 -22q25 -62 57.5 -101t92.5 -39v-14h-344v14q29 0 38 13t9 24q0 28 -23 80q-2 4 -5 12.5t-5 10.5zM440 719h398l-199 502z
M717 1884h180l-303 -309h-47z" />
    <glyph glyph-name="Edieresis" unicode="&#xcb;" 
d="M80 1456v17h926v-203h-15q-22 81 -35.5 110t-34.5 36t-81 7h-486v-661h451q53 0 76.5 8t27.5 41h15v-139h-15q-7 34 -27.5 41.5t-64.5 7.5h-463v-455q0 -102 19.5 -148t59 -57.5t126.5 -11.5h260q105 0 149.5 7t69 38.5t35.5 108.5h14v-203h-1007v14q55 4 79.5 21
t24.5 84v1190q0 89 -17 118t-87 29zM657 1669q0 40 27 67t66 27t65.5 -27.5t26.5 -66.5q0 -37 -26.5 -64.5t-65.5 -27.5t-66 27t-27 65zM270 1669q0 40 27 67t65 27q39 0 66 -28t27 -66q0 -36 -27 -64t-66 -28q-38 0 -65 27t-27 65z" />
    <glyph glyph-name="Egrave" unicode="&#xc8;" 
d="M80 1456v17h926v-203h-15q-22 81 -35.5 110t-34.5 36t-81 7h-486v-661h451q53 0 76.5 8t27.5 41h15v-139h-15q-7 34 -27.5 41.5t-64.5 7.5h-463v-455q0 -102 19.5 -148t59 -57.5t126.5 -11.5h260q105 0 149.5 7t69 38.5t35.5 108.5h14v-203h-1007v14q55 4 79.5 21
t24.5 84v1190q0 89 -17 118t-87 29zM365 1884h180l170 -309h-47z" />
    <glyph glyph-name="Iacute" unicode="&#xcd;" horiz-adv-x="532" 
d="M463 1473v-15q-34 3 -72.5 -11.5t-38.5 -66.5q-2 -12 -2 -75v-1131q0 -70 5 -100.5t29.5 -45.5t78.5 -14v-14h-393v14q53 2 75.5 14.5t28.5 41.5t6 102v1120q0 67 -5 100t-29 51t-76 15v15h393zM278 1884h180l-303 -309h-47z" />
    <glyph glyph-name="Icircumflex" unicode="&#xce;" horiz-adv-x="532" 
d="M463 1473v-15q-34 3 -72.5 -11.5t-38.5 -66.5q-2 -12 -2 -75v-1131q0 -70 5 -100.5t29.5 -45.5t78.5 -14v-14h-393v14q53 2 75.5 14.5t28.5 41.5t6 102v1120q0 67 -5 100t-29 51t-76 15v15h393zM321 1884l264 -309h-45l-272 192l-272 -192h-47l264 309h108z" />
    <glyph glyph-name="Idieresis" unicode="&#xcf;" horiz-adv-x="532" 
d="M463 1473v-15q-34 3 -72.5 -11.5t-38.5 -66.5q-2 -12 -2 -75v-1131q0 -70 5 -100.5t29.5 -45.5t78.5 -14v-14h-393v14q53 2 75.5 14.5t28.5 41.5t6 102v1120q0 67 -5 100t-29 51t-76 15v15h393zM368 1669q0 40 27 67t66 27t65.5 -27.5t26.5 -66.5q0 -37 -26.5 -64.5
t-65.5 -27.5t-66 27t-27 65zM-19 1669q0 40 27 67t65 27q39 0 66 -28t27 -66q0 -36 -27 -64t-66 -28q-38 0 -65 27t-27 65z" />
    <glyph glyph-name="Igrave" unicode="&#xcc;" horiz-adv-x="532" 
d="M463 1473v-15q-34 3 -72.5 -11.5t-38.5 -66.5q-2 -12 -2 -75v-1131q0 -70 5 -100.5t29.5 -45.5t78.5 -14v-14h-393v14q53 2 75.5 14.5t28.5 41.5t6 102v1120q0 67 -5 100t-29 51t-76 15v15h393zM76 1884h180l170 -309h-47z" />
    <glyph glyph-name="Oacute" unicode="&#xd3;" horiz-adv-x="1665" 
d="M1597 836q0 -169 -55 -325t-163.5 -277t-265.5 -189t-349 -68q-155 0 -283.5 53.5t-222 150t-142 219t-48.5 257.5q0 142 52 290.5t155 272t260 199.5t358 76q159 0 288.5 -50.5t223.5 -142t143 -211t49 -255.5zM1505 655q0 172 -72 314t-186.5 241.5t-246.5 153
t-244 53.5q-138 0 -272 -72.5t-219 -205t-85 -297.5q0 -203 99.5 -384.5t262.5 -292t345 -110.5q116 0 229 47t199 127.5t138 192t52 233.5zM844 1884h180l-303 -309h-47z" />
    <glyph glyph-name="Ocircumflex" unicode="&#xd4;" horiz-adv-x="1665" 
d="M1597 836q0 -169 -55 -325t-163.5 -277t-265.5 -189t-349 -68q-155 0 -283.5 53.5t-222 150t-142 219t-48.5 257.5q0 142 52 290.5t155 272t260 199.5t358 76q159 0 288.5 -50.5t223.5 -142t143 -211t49 -255.5zM1505 655q0 172 -72 314t-186.5 241.5t-246.5 153
t-244 53.5q-138 0 -272 -72.5t-219 -205t-85 -297.5q0 -203 99.5 -384.5t262.5 -292t345 -110.5q116 0 229 47t199 127.5t138 192t52 233.5zM887 1884l264 -309h-45l-272 192l-272 -192h-47l264 309h108z" />
    <glyph glyph-name="apple" unicode="&#xf000;" horiz-adv-x="1618" 
d="M838 61q-52 0 -142 -41q-71 -35 -145 -22q-77 13 -129 61q-75 69 -119.5 136t-103.5 192q-43 97 -69.5 236.5t-8.5 236.5q42 226 176 328q75 58 181 74.5t177 -2.5q15 -4 77 -30t106 -26q45 0 105 26t77 30q74 18 180.5 2t179.5 -74q27 -20 78 -78q-51 -38 -69.5 -54.5
t-34.5 -36.5t-33 -48q-56 -91 -53 -205q1 -52 20 -107.5t47 -93.5q32 -43 59 -66t66 -42.5l41 -20.5q-54 -115 -84 -171t-63.5 -101t-75.5 -84q-23 -21 -40 -37.5t-42 -27.5t-70 -17q-71 -13 -147 22q-87 41 -141 41zM1159 1655q1 -32 1 -67t-5 -60q-7 -37 -26 -76.5
t-44 -62.5q-60 -60 -139 -109q-14 -9 -115 -18q-7 62 11 104q39 100 71 141q33 41 61 64.5t50 34.5q83 40 135 49z" />
    <glyph glyph-name="Ograve" unicode="&#xd2;" horiz-adv-x="1665" 
d="M1597 836q0 -169 -55 -325t-163.5 -277t-265.5 -189t-349 -68q-155 0 -283.5 53.5t-222 150t-142 219t-48.5 257.5q0 142 52 290.5t155 272t260 199.5t358 76q159 0 288.5 -50.5t223.5 -142t143 -211t49 -255.5zM1505 655q0 172 -72 314t-186.5 241.5t-246.5 153
t-244 53.5q-138 0 -272 -72.5t-219 -205t-85 -297.5q0 -203 99.5 -384.5t262.5 -292t345 -110.5q116 0 229 47t199 127.5t138 192t52 233.5zM642 1884h180l170 -309h-47z" />
    <glyph glyph-name="Uacute" unicode="&#xda;" horiz-adv-x="1536" 
d="M1452 0h-278v227q-212 -237 -508 -237q-97 0 -181 26t-150.5 82t-105.5 146.5t-39 208.5v882q0 55 -7 80t-31 34.5t-70 8.5v15h391v-15q-57 0 -85 -18.5t-28 -93.5v-809q0 -145 35 -234q35 -87 95.5 -140t128.5 -75t131 -22q239 0 424 215v997q0 75 -6.5 110.5
t-26.5 52.5t-62 17h-14v15h387v-15q-59 -2 -84 -17.5t-25 -82.5v-1200q0 -57 5 -85t29.5 -44t74.5 -15v-14zM780 1884h180l-303 -309h-47z" />
    <glyph glyph-name="Ucircumflex" unicode="&#xdb;" horiz-adv-x="1536" 
d="M1452 0h-278v227q-212 -237 -508 -237q-97 0 -181 26t-150.5 82t-105.5 146.5t-39 208.5v882q0 55 -7 80t-31 34.5t-70 8.5v15h391v-15q-57 0 -85 -18.5t-28 -93.5v-809q0 -145 35 -234q35 -87 95.5 -140t128.5 -75t131 -22q239 0 424 215v997q0 75 -6.5 110.5
t-26.5 52.5t-62 17h-14v15h387v-15q-59 -2 -84 -17.5t-25 -82.5v-1200q0 -57 5 -85t29.5 -44t74.5 -15v-14zM823 1884l264 -309h-45l-272 192l-272 -192h-47l264 309h108z" />
    <glyph glyph-name="Ugrave" unicode="&#xd9;" horiz-adv-x="1536" 
d="M1452 0h-278v227q-212 -237 -508 -237q-97 0 -181 26t-150.5 82t-105.5 146.5t-39 208.5v882q0 55 -7 80t-31 34.5t-70 8.5v15h391v-15q-57 0 -85 -18.5t-28 -93.5v-809q0 -145 35 -234q35 -87 95.5 -140t128.5 -75t131 -22q239 0 424 215v997q0 75 -6.5 110.5
t-26.5 52.5t-62 17h-14v15h387v-15q-59 -2 -84 -17.5t-25 -82.5v-1200q0 -57 5 -85t29.5 -44t74.5 -15v-14zM578 1884h180l170 -309h-47z" />
    <glyph glyph-name="circumflex" unicode="&#x2c6;" horiz-adv-x="682" 
d="M395 1884l264 -309h-45l-272 192l-272 -192h-47l264 309h108z" />
    <glyph glyph-name="Tilde" unicode="&#x2dc;" horiz-adv-x="682" 
d="M41 1577h-43q-1 54 17.5 94t48.5 65.5t69 39.5t74 14q39 0 76 -14t104 -47q70 -34 88.5 -41t48.5 -7q95 0 119 109h41q1 -63 -28.5 -110.5t-81.5 -75t-109 -27.5q-46 0 -76.5 11t-89.5 40q-69 36 -96.5 47t-55.5 11q-38 0 -70.5 -25.5t-35.5 -83.5z" />
    <glyph glyph-name="Macron" unicode="&#x2c9;" horiz-adv-x="682" 
d="M770 1778v-74h-819v74h819z" />
    <glyph glyph-name="Breve" unicode="&#x2d8;" horiz-adv-x="682" 
d="M598 1866h43q-5 -78 -41.5 -143t-103.5 -105.5t-154 -40.5q-85 0 -152.5 40t-104.5 105.5t-42 143.5h43q19 -78 85 -124t171 -46q106 0 172.5 48.5t83.5 121.5z" />
    <glyph glyph-name="Dotaccent" unicode="&#x2d9;" horiz-adv-x="682" 
d="M250 1669q0 40 27 67t65 27q40 0 66 -28t26 -66q0 -36 -26 -64t-66 -28q-38 0 -65 27t-27 65z" />
    <glyph glyph-name="Ring" unicode="&#x2da;" horiz-adv-x="682" 
d="M178 1739q0 46 22.5 82.5t60.5 58t79 21.5q69 0 116.5 -47.5t47.5 -114.5q0 -68 -47 -116t-117 -48q-66 0 -114 48t-48 116zM223 1739q0 -47 35 -82t82 -35q52 0 85.5 35.5t33.5 81.5q0 47 -33.5 81.5t-85.5 34.5q-47 0 -82 -34t-35 -82z" />
    <glyph glyph-name="Cedilla" unicode="&#xb8;" horiz-adv-x="682" 
d="M428 20l-53 -96q145 -46 145 -157q0 -62 -45 -112.5t-126.5 -76.5t-186.5 -20v41q157 4 205.5 46.5t48.5 84.5q0 54 -43.5 78t-114.5 28q18 26 30.5 44.5t26.5 39.5q51 80 60 100h53z" />
    <glyph glyph-name="Hungarumlaut" unicode="&#x2dd;" horiz-adv-x="682" 
d="M238 1884h180l-303 -309h-47zM520 1884h180l-303 -309h-47z" />
    <glyph glyph-name="Ogonek" unicode="&#x2db;" horiz-adv-x="682" 
d="M319 12h52q-54 -54 -80.5 -101.5t-26.5 -111.5q0 -93 48.5 -141.5t107.5 -48.5q31 0 76 16l16 -33q-83 -41 -145 -41q-103 0 -152 62t-49 135q0 68 38 128.5t115 135.5z" />
    <glyph glyph-name="Caron" unicode="&#x2c7;" horiz-adv-x="682" 
d="M287 1575l-264 309h45l272 -192l272 192h47l-264 -309h-108z" />
    <glyph glyph-name="Lslash" unicode="&#x141;" 
d="M25 0v12q69 0 88.5 27t19.5 90v420l-127 -115v53l127 115v733q0 80 -22 100.5t-88 22.5v15h395v-15q-53 1 -78.5 -14t-31 -41.5t-5.5 -77.5v-569l356 317v-53l-356 -318v-411q0 -134 65.5 -188t219.5 -54h180q98 0 152.5 34t76.5 98.5t29 172.5h14v-354h-1015z" />
    <glyph glyph-name="Scaron" unicode="&#x160;" horiz-adv-x="981" 
d="M786 1454l70 -184l-12 -2q-1 2 -15 16q-34 40 -77.5 77t-106.5 62t-145 25q-103 0 -178 -42t-112.5 -110.5t-37.5 -142.5q0 -69 27.5 -117.5t71.5 -79t117 -57t112 -39.5q107 -33 198.5 -76.5t164.5 -134t73 -231.5q0 -131 -65 -229.5t-162 -147.5q-39 -18 -133.5 -29.5
t-131.5 -11.5h-393v428h15q2 -95 18.5 -160.5t61.5 -116t124.5 -77.5t200.5 -27q116 0 193.5 33t119.5 83t56 98.5t14 88.5q0 90 -50 151.5t-121.5 96.5t-195.5 78q-126 43 -177.5 69t-92.5 64q-55 54 -88 126.5t-33 156.5q0 109 50.5 200.5t147.5 147t228 55.5
q107 0 248 -37q3 0 9 -2t7 -2zM437 1575l-264 309h45l272 -192l272 192h47l-264 -309h-108z" />
    <glyph glyph-name="Zcaron" unicode="&#x17d;" horiz-adv-x="1450" 
d="M1411 231v-231h-1397l1143 1417h-766q-69 0 -103.5 -11.5t-50.5 -40.5t-26 -93h-14l8 201h1212l-1147 -1418h977q79 0 111 32t39 144h14zM672 1575l-264 309h45l272 -192l272 192h47l-264 -309h-108z" />
    <glyph glyph-name="zcaron" unicode="&#x17e;" horiz-adv-x="1450" 
d="M1411 231v-231h-1397l1143 1417h-766q-69 0 -103.5 -11.5t-50.5 -40.5t-26 -93h-14l8 201h1212l-1147 -1418h977q79 0 111 32t39 144h14zM672 1575l-264 309h45l272 -192l272 192h47l-264 -309h-108z" />
    <glyph glyph-name="Eth" unicode="&#xd0;" horiz-adv-x="1729" 
d="M184 723h-131v41h131v524q0 78 -4.5 109.5t-25.5 45t-74 15.5v15h674q260 0 395 -37t229 -99q82 -53 147 -135.5t101.5 -190.5t36.5 -231q0 -116 -32 -221.5t-89 -198.5t-126 -160.5t-148 -113.5q-82 -48 -199 -67t-299 -19h-692v14q54 5 74.5 19.5t26 49.5t5.5 132v508z
M885 723h-531v-424q0 -93 28.5 -148t114.5 -83.5t255 -28.5q128 0 227.5 18t176.5 55.5t138 96.5q93 90 150 229t57 277q0 93 -26.5 187.5t-83 184.5t-154 168.5t-233.5 124.5q-177 62 -424 62h-226v-678h531v-41z" />
    <glyph glyph-name="Yacute" unicode="&#xdd;" horiz-adv-x="1174" 
d="M940 1473h221v-15q-41 -2 -69 -20t-62 -70l-360 -545v-676q0 -83 20.5 -107t91.5 -26v-14h-393v14q47 -2 80 14.5t33 84.5l-2 32v623l-361 598q-53 94 -127 92v15h348v-15q-49 0 -49 -37q0 -9 12.5 -34l12.5 -25l297 -490l325 494l5 4q26 43 26 55q0 33 -43 33h-6v15z
M598 1884h180l-303 -309h-47z" />
    <glyph glyph-name="Thorn" unicode="&#xde;" horiz-adv-x="1087" 
d="M463 1473v-15q-60 -2 -83.5 -23.5t-23.5 -101.5v-213h201q199 0 332 -64.5t133 -258.5q0 -87 -34.5 -159t-87 -125.5t-107.5 -88.5q-65 -41 -134 -56.5t-184 -15.5h-119v-211q0 -55 11.5 -82t32 -35t63.5 -10v-14h-381v14q45 1 67.5 12.5t29.5 39t7 88.5v1171
q0 86 -22 108.5t-82 24.5v15h381zM356 1081v-690h154q44 0 110.5 12t98.5 29q62 36 105.5 105t43.5 168q0 44 -12 97t-37.5 101.5t-62.5 85.5q-30 32 -68.5 52.5t-88.5 30t-122 9.5h-121z" />
    <glyph glyph-name="onesuperior" unicode="&#xb9;" horiz-adv-x="319" 
d="M33 1413l166 86h24l-2 -704q0 -34 7.5 -44t45.5 -10h23v-20h-268v20q40 0 54 3t18.5 15t4.5 42v565q0 26 -2.5 34.5t-13.5 8.5t-41 -12q-9 -3 -14 -8z" />
    <glyph glyph-name="twosuperior" unicode="&#xb2;" horiz-adv-x="662" 
d="M657 852l-45 -131h-583l-2 14l14 13q112 88 197 166t146.5 171.5t61.5 190.5q0 92 -52 137t-120 45q-60 0 -123 -38t-104 -103l-41 18q47 69 112.5 116.5t188.5 47.5q85 0 145.5 -30.5t91.5 -79t31 -101.5q0 -58 -32 -117t-87 -117t-116.5 -110t-171.5 -139v-4h344
q47 0 65 7.5t48 43.5h32z" />
    <glyph glyph-name="threesuperior" unicode="&#xb3;" horiz-adv-x="682" 
d="M72 1327l34 111q72 38 125.5 49.5t104.5 11.5q137 0 192.5 -47t55.5 -102q0 -104 -164 -176v-5q100 -17 150.5 -78.5t50.5 -134.5q0 -109 -94 -177t-216 -68q-61 0 -115.5 16t-90 36.5t-74.5 51.5v45q41 -28 83.5 -54.5t86 -41t90.5 -14.5q53 0 101 22.5t76 64t28 95.5
q0 49 -23.5 88.5t-71 63.5t-118.5 24q-40 0 -76 -8v35q1 1 9 3t11 3q102 23 167 61t65 125q0 38 -17 69.5t-51 49.5t-76 18q-113 0 -202 -127q-1 0 -5 -4t-4 -6h-32z" />
    <glyph glyph-name="a" unicode="a" horiz-adv-x="1409" 
d="M856 678h-430l-223 -557q-10 -25 -10 -27q-13 -26 -13 -47q0 -33 49 -33v-14h-219v14q59 1 86 33t54 100l534 1348h25l526 -1302q0 -8 6 -17l8 -22q25 -62 57.5 -101t92.5 -39v-14h-344v14q29 0 38 13t9 24q0 28 -23 80q-2 4 -5 12.5t-5 10.5zM440 719h398l-199 502z" />
    <glyph glyph-name="b" unicode="b" horiz-adv-x="1194" 
d="M84 1458v15h383q129 0 199 -8t125 -33q94 -44 148 -124.5t54 -185.5q0 -188 -184 -295q133 -24 205 -94q116 -110 116 -291q0 -135 -58 -234.5t-136 -150.5q-33 -21 -66.5 -32t-72 -16.5t-69.5 -7t-77 -1.5h-569v14q52 0 74 15t27 46.5t5 106.5v1110q0 76 -4.5 106
t-26.5 44.5t-73 15.5zM358 1442v-647h179q182 0 241.5 103.5t59.5 207.5q0 215 -174 295q-91 41 -267 41h-39zM473 764h-115v-467q0 -70 5.5 -110t33.5 -75t89.5 -54t168.5 -19q126 0 195 41q119 71 119 274q0 103 -28 186t-80.5 139t-127.5 71q-71 14 -260 14z" />
    <glyph glyph-name="c" unicode="c" horiz-adv-x="1579" 
d="M1348 1399l55 -156h-14q-45 45 -111.5 92t-168.5 84t-224 37q-214 0 -366.5 -89.5t-229 -229.5t-76.5 -293q0 -109 42 -252t133 -274t241.5 -216.5t357.5 -85.5q167 0 326.5 54t236.5 143l13 -4l-103 -158q-225 -49 -304 -61.5t-220 -12.5q-145 0 -259 20t-194 54.5
t-141 79.5q-122 90 -195 243t-73 331q0 144 53.5 285t160 255t266.5 182t359 68q127 0 222.5 -24t195.5 -66q2 0 8.5 -2t8.5 -4z" />
    <glyph glyph-name="d" unicode="d" horiz-adv-x="1729" 
d="M78 1458v15h676q260 0 395 -37t229 -99q82 -53 147 -135.5t101.5 -190.5t36.5 -231q0 -116 -32 -221.5t-89 -198.5t-126 -160.5t-148 -113.5q-82 -48 -199 -67t-299 -19h-692v14h18q35 0 53.5 17t26.5 58.5t8 125.5v1073q0 108 -16 138.5t-90 31.5zM580 1442h-226v-1143
q0 -93 28.5 -148t114.5 -83.5t255 -28.5q128 0 226.5 18t175.5 55t140 97q93 88 150 227.5t57 278.5q0 93 -26.5 187.5t-83 184.5t-154 168.5t-233.5 124.5q-177 62 -424 62z" />
    <glyph glyph-name="e" unicode="e" 
d="M80 1456v17h926v-203h-15q-22 81 -35.5 110t-34.5 36t-81 7h-486v-661h451q53 0 76.5 8t27.5 41h15v-139h-15q-7 34 -27.5 41.5t-64.5 7.5h-463v-455q0 -102 19.5 -148t59 -57.5t126.5 -11.5h260q105 0 149.5 7t69 38.5t35.5 108.5h14v-203h-1007v14q55 4 79.5 21
t24.5 84v1190q0 89 -17 118t-87 29z" />
    <glyph glyph-name="f" unicode="f" horiz-adv-x="1024" 
d="M74 1458v15h932v-173h-15q0 4 -0.5 7t-1.5 6q-17 70 -51.5 90t-114.5 20h-475v-649h443q52 0 75 8t27 41h14v-141h-14q-1 10 -6.5 22.5t-18.5 20.5t-41 8h-479v-588q0 -78 22 -104t91 -27v-14h-387v14q60 0 82 21t22 78v1212q0 58 -11.5 86t-34 37.5t-58.5 9.5z" />
    <glyph glyph-name="g" unicode="g" horiz-adv-x="1556" 
d="M1522 14v-14h-594q-80 0 -148.5 6t-157.5 32.5t-173 80.5q-174 109 -277.5 278t-103.5 353q0 125 55.5 257t163.5 243t264.5 178t347.5 67q220 0 459 -96l61 -170h-14q-78 99 -213.5 163t-294.5 64q-150 0 -273 -61t-206 -166t-126.5 -240.5t-43.5 -279.5
q0 -233 93 -372.5t206 -203.5q99 -56 221.5 -75t196.5 -19l79 2q89 2 129.5 9.5t56 33.5t15.5 84v223q0 65 -26 87t-78 20v14h381v-14q-69 -1 -88 -29t-19 -92v-232q0 -70 18.5 -100.5t67.5 -30.5h21z" />
    <glyph glyph-name="h" unicode="h" horiz-adv-x="1516" 
d="M1161 735h-809v-567q0 -61 5 -91t28.5 -47t73.5 -16v-14h-381v14q44 -2 74 16.5t30 84.5v1185q0 102 -15.5 128t-88.5 30v15h381v-15q-52 -2 -79.5 -19.5t-27.5 -86.5v-576h809v527q0 93 -15.5 124t-86.5 31v15h377v-15q-52 -1 -73.5 -14.5t-26.5 -42.5t-5 -98v-1131
q0 -64 5 -95t28 -47t72 -16v-14h-377v14q46 2 66 12t28 42t8 106v561z" />
    <glyph glyph-name="i" unicode="i" horiz-adv-x="532" 
d="M463 1473v-15q-34 3 -72.5 -11.5t-38.5 -66.5q-2 -12 -2 -75v-1131q0 -70 5 -100.5t29.5 -45.5t78.5 -14v-14h-393v14q53 2 75.5 14.5t28.5 41.5t6 102v1120q0 67 -5 100t-29 51t-76 15v15h393z" />
    <glyph glyph-name="j" unicode="j" horiz-adv-x="532" 
d="M70 1473h395v-15q-77 -1 -95 -30.5t-18 -100.5v-1253q0 -103 -6.5 -199.5t-17.5 -130.5q-33 -94 -84 -145q-91 -93 -230 -93q-24 0 -53.5 3t-61.5 10.5t-44 11t-21 6.5l2 17q31 -9 80 -9q92 0 151 47t85 125q30 87 30 248v1356q0 79 -18 108.5t-94 28.5v15z" />
    <glyph glyph-name="k" unicode="k" horiz-adv-x="1686" 
d="M59 1473h422v-15q-81 3 -103 -27t-22 -116v-565l875 657q26 20 26 33q0 18 -59 18v15h318v-15q-122 -3 -234 -88l-762 -569l760 -578q4 -2 7 -4l3 -2q50 -36 99 -70q93 -62 127.5 -83.5t73 -35.5t87.5 -14v-14h-501v14q31 0 49 2.5t18 12.5q0 15 -55 55l-832 633v-547
q0 -66 6 -97t32.5 -47t84.5 -12v-14h-420v14q60 -3 86.5 11.5t33.5 43.5t7 95v1143q0 69 -8 99.5t-34 42t-85 9.5v15z" />
    <glyph glyph-name="l" unicode="l" 
d="M25 0v14q71 0 90.5 26t19.5 89v1206q0 79 -22.5 100t-89.5 23v15h395v-15q-53 1 -78 -14.5t-30 -41.5t-5 -77v-1034q0 -69 16 -114.5t49.5 -73.5t88 -41t129.5 -13h180q98 0 153 34t77.5 99.5t27.5 171.5h14v-354h-1015z" />
    <glyph glyph-name="m" unicode="m" horiz-adv-x="1812" 
d="M1427 1473h232v-15q-117 -5 -117 -123q0 -15 6 -69l154 -1116q8 -57 19.5 -85t30 -38t54.5 -13v-14h-331v14q65 -2 65 64q0 16 -6 59l-150 1082h-4l-524 -1219h-10l-527 1217h-4l-149 -1088q-4 -18 -4 -57q0 -25 12 -41.5t55 -16.5v-14h-225v14q41 2 56 7.5t26 30
t18 77.5l168 1190l-22 49q-41 90 -139 90v15h278l518 -1205z" />
    <glyph glyph-name="n" unicode="n" horiz-adv-x="1642" 
d="M1288 1473h285v-15q-66 -2 -90.5 -27.5t-24.5 -107.5v-1341l-1175 1251v-1090q0 -40 5 -65.5t18 -38.5t27 -16t56 -9v-14h-283v14q56 1 79.5 15t28.5 42.5t5 98.5v997q0 125 -35 210.5t-170 80.5v15h277l1104 -1176v1040q0 76 -25.5 98.5t-81.5 22.5v15z" />
    <glyph glyph-name="o" unicode="o" horiz-adv-x="1665" 
d="M1597 836q0 -169 -55 -325t-163.5 -277t-265.5 -189t-349 -68q-155 0 -283.5 53.5t-222 150t-142 219t-48.5 257.5q0 142 52 290.5t155 272t260 199.5t358 76q159 0 288.5 -50.5t223.5 -142t143 -211t49 -255.5zM1505 655q0 172 -72 314t-186.5 241.5t-246.5 153
t-244 53.5q-138 0 -272 -72.5t-219 -205t-85 -297.5q0 -203 99.5 -384.5t262.5 -292t345 -110.5q116 0 229 47t199 127.5t138 192t52 233.5z" />
    <glyph glyph-name="p" unicode="p" horiz-adv-x="1087" 
d="M82 1458v15h420q122 0 230 -19t199 -101.5t91 -250.5q0 -101 -36.5 -172t-102.5 -116t-153 -65t-187 -18v14q86 0 158.5 36.5t114.5 108t42 167.5q0 102 -39.5 186.5t-113.5 130.5q-78 49 -244 49h-105v-1261q0 -46 3.5 -74.5t15 -44.5t31.5 -21.5t65 -7.5v-14h-389v14
q48 2 76 20t28 75v1220q0 49 -5 74t-27.5 40t-71.5 15z" />
    <glyph glyph-name="q" unicode="q" horiz-adv-x="1665" 
d="M1008 -10l4 -4q173 -124 236 -167t167 -97.5t210.5 -84.5t213.5 -30q48 0 115 10l2 -12q-72 -34 -155.5 -52t-125.5 -18q-79 0 -188 30.5t-233 88t-247 138t-239 185.5q-120 0 -244 34t-250 153q-100 99 -153 225.5t-53 265.5q0 196 93.5 390t281 322t450.5 128
q159 0 288.5 -50.5t223.5 -142.5t143 -211.5t49 -256.5q0 -122 -32.5 -247.5t-104 -243.5t-189.5 -208.5t-284 -130.5q13 -11 21 -14zM1505 653q0 172 -72 315t-185.5 241.5t-246.5 153t-245 54.5q-138 0 -272 -72.5t-219 -205t-85 -297.5q0 -153 57 -294.5t158 -254
t230 -176.5t262 -64q116 0 229 47t199 127.5t138 192t52 233.5z" />
    <glyph glyph-name="r" unicode="r" horiz-adv-x="1622" 
d="M80 1458v15h418q137 0 198.5 -4.5t114.5 -22.5q97 -29 155 -105.5t58 -193.5q0 -81 -35.5 -156t-94.5 -133t-128 -96l104 -160l9 -14q19 -35 122.5 -180.5t186.5 -241.5q38 -43 102 -81t142 -38q56 0 100 21q14 6 34 17t36 19l6 -20q-54 -42 -113 -66q-32 -12 -87.5 -22
t-111.5 -10q-46 0 -92.5 11t-98.5 43.5t-97 88.5q-116 141 -250 342q0 2 -2 6l-2 4l-148 228l-55 -2q-12 -2 -76 -2h-119v-564q0 -55 11 -82t31 -35t63 -10v-14h-381v14q70 3 88 28.5t18 111.5v1171q0 60 -11.5 88t-31.5 35.5t-63 9.5zM356 1434v-691h154q45 0 110.5 11.5
t98.5 29.5q63 35 106 102.5t43 168.5q0 44 -12 97.5t-36.5 101.5t-63.5 87q-47 47 -111.5 70t-167.5 23h-121z" />
    <glyph glyph-name="s" unicode="s" horiz-adv-x="981" 
d="M786 1454l70 -184l-12 -2q-1 2 -15 16q-34 40 -77.5 77t-106.5 62t-145 25q-103 0 -178 -42t-112.5 -110.5t-37.5 -142.5q0 -69 27.5 -117.5t71.5 -79t117 -57t112 -39.5q107 -33 198.5 -76.5t164.5 -134t73 -231.5q0 -131 -65 -229.5t-162 -147.5q-39 -18 -133.5 -29.5
t-131.5 -11.5h-393v428h15q2 -95 18.5 -160.5t61.5 -116t124.5 -77.5t200.5 -27q116 0 193.5 33t119.5 83t56 98.5t14 88.5q0 90 -50 151.5t-121.5 96.5t-195.5 78q-126 43 -177.5 69t-92.5 64q-55 54 -88 126.5t-33 156.5q0 109 50.5 200.5t147.5 147t228 55.5
q107 0 248 -37q3 0 9 -2t7 -2z" />
    <glyph glyph-name="t" unicode="t" horiz-adv-x="1237" 
d="M1239 1524l-70 -178h-14q4 13 4 43q0 25 -17.5 30.5t-51.5 5.5h-385v-1261q0 -43 4 -72.5t15 -47t32 -24t65 -6.5v-14h-399v14q50 5 72.5 14t31.5 33.5t9 81.5v1282h-369q-55 0 -72.5 -6t-17.5 -33q0 -11 8 -40h-14l-70 178h14q19 -36 39 -45q17 -6 72 -6h979
q59 0 83.5 7t37.5 44h14z" />
    <glyph glyph-name="u" unicode="u" horiz-adv-x="1536" 
d="M1452 0h-278v227q-212 -237 -508 -237q-97 0 -181 26t-150.5 82t-105.5 146.5t-39 208.5v882q0 55 -7 80t-31 34.5t-70 8.5v15h391v-15q-57 0 -85 -18.5t-28 -93.5v-809q0 -145 35 -234q35 -87 95.5 -140t128.5 -75t131 -22q239 0 424 215v997q0 75 -6.5 110.5
t-26.5 52.5t-62 17h-14v15h387v-15q-59 -2 -84 -17.5t-25 -82.5v-1200q0 -57 5 -85t29.5 -44t74.5 -15v-14z" />
    <glyph glyph-name="v" unicode="v" horiz-adv-x="1409" 
d="M719 -23h-19l-524 1297q-44 113 -80 148.5t-86 35.5v15h340v-15q-45 3 -45 -35q0 -29 21 -67l442 -1100l440 1098q0 2 4 10q19 46 19 63q0 35 -53 31v15h221v-15q-50 0 -72.5 -21t-48.5 -71l-8 -14z" />
    <glyph glyph-name="w" unicode="w" horiz-adv-x="2111" 
d="M1493 -23h-23l-407 1123h-4l-395 -1123h-23l-479 1315q-31 85 -64 126t-94 40v15h348v-15q-51 0 -51 -37q0 -27 16 -67l390 -1071h4l317 905l-31 86q-35 100 -73 142.5t-90 41.5v15h344v-15q-50 0 -50 -43q0 -11 15 -55q6 -12 6 -14l389 -1067h4l379 1071q0 2 4 10
l3.5 10.5t2.5 9.5q13 37 13 41q0 37 -52 37v15h215v-15q-49 -4 -75.5 -30.5t-32.5 -43.5q-25 -51 -31 -69z" />
    <glyph glyph-name="x" unicode="x" horiz-adv-x="1386" 
d="M1253 1473v-15q-28 2 -53 -9t-57 -52q-2 -2 -5.5 -7.5t-7.5 -11.5t-6 -8l-4 -4l-6 -6l-375 -529l449 -647q0 -1 10 -16q66 -100 104 -128t74 -26v-14h-366v14q47 -4 47 33q0 32 -17 51l-14 23q-2 0 -6 8l-385 555l-395 -551q0 -4 -7 -10l-16 -25q-27 -34 -27 -57
q0 -29 50 -27v-14h-220v14q27 -1 50 12.5t34 24.5l10.5 11t12.5 16l471 659l-440 635q0 6 -6 12q-18 32 -50.5 54.5t-66.5 19.5v15h371v-15q-60 0 -60 -33q0 -19 16 -45t21 -32l322 -463l346 485q2 2 8 14q22 32 22 48q0 19 -12 22.5t-39 3.5v15h223z" />
    <glyph glyph-name="y" unicode="y" horiz-adv-x="1174" 
d="M940 1473h221v-15q-41 -2 -69 -20t-62 -70l-360 -545v-676q0 -83 20.5 -107t91.5 -26v-14h-393v14q47 -2 80 14.5t33 84.5l-2 32v623l-361 598q-53 94 -127 92v15h348v-15q-49 0 -49 -37q0 -9 12.5 -34l12.5 -25l297 -490l325 494l5 4q26 43 26 55q0 33 -43 33h-6v15z
" />
    <glyph glyph-name="z" unicode="z" horiz-adv-x="1450" 
d="M1411 231v-231h-1397l1143 1417h-766q-69 0 -103.5 -11.5t-50.5 -40.5t-26 -93h-14l8 201h1212l-1147 -1418h977q79 0 111 32t39 144h14z" />
    <glyph glyph-name="agrave" unicode="&#xe0;" horiz-adv-x="1409" 
d="M856 678h-430l-223 -557q-10 -25 -10 -27q-13 -26 -13 -47q0 -33 49 -33v-14h-219v14q59 1 86 33t54 100l534 1348h25l526 -1302q0 -8 6 -17l8 -22q25 -62 57.5 -101t92.5 -39v-14h-344v14q29 0 38 13t9 24q0 28 -23 80q-2 4 -5 12.5t-5 10.5zM440 719h398l-199 502z
M515 1884h180l170 -309h-47z" />
    <glyph glyph-name="aacute" unicode="&#xe1;" horiz-adv-x="1409" 
d="M856 678h-430l-223 -557q-10 -25 -10 -27q-13 -26 -13 -47q0 -33 49 -33v-14h-219v14q59 1 86 33t54 100l534 1348h25l526 -1302q0 -8 6 -17l8 -22q25 -62 57.5 -101t92.5 -39v-14h-344v14q29 0 38 13t9 24q0 28 -23 80q-2 4 -5 12.5t-5 10.5zM440 719h398l-199 502z
M717 1884h180l-303 -309h-47z" />
    <glyph glyph-name="acircumflex" unicode="&#xe2;" horiz-adv-x="1409" 
d="M856 678h-430l-223 -557q-10 -25 -10 -27q-13 -26 -13 -47q0 -33 49 -33v-14h-219v14q59 1 86 33t54 100l534 1348h25l526 -1302q0 -8 6 -17l8 -22q25 -62 57.5 -101t92.5 -39v-14h-344v14q29 0 38 13t9 24q0 28 -23 80q-2 4 -5 12.5t-5 10.5zM440 719h398l-199 502z
M760 1884l264 -309h-45l-272 192l-272 -192h-47l264 309h108z" />
    <glyph glyph-name="atilde" unicode="&#xe3;" horiz-adv-x="1409" 
d="M856 678h-430l-223 -557q-10 -25 -10 -27q-13 -26 -13 -47q0 -33 49 -33v-14h-219v14q59 1 86 33t54 100l534 1348h25l526 -1302q0 -8 6 -17l8 -22q25 -62 57.5 -101t92.5 -39v-14h-344v14q29 0 38 13t9 24q0 28 -23 80q-2 4 -5 12.5t-5 10.5zM440 719h398l-199 502z
M406 1577h-43q-1 54 17.5 94t48.5 65.5t69 39.5t74 14q39 0 76 -14t104 -47q70 -34 88.5 -41t48.5 -7q95 0 119 109h41q1 -63 -28.5 -110.5t-81.5 -75t-109 -27.5q-46 0 -76.5 11t-89.5 40q-69 36 -96.5 47t-55.5 11q-38 0 -70.5 -25.5t-35.5 -83.5z" />
    <glyph glyph-name="adieresis" unicode="&#xe4;" horiz-adv-x="1409" 
d="M856 678h-430l-223 -557q-10 -25 -10 -27q-13 -26 -13 -47q0 -33 49 -33v-14h-219v14q59 1 86 33t54 100l534 1348h25l526 -1302q0 -8 6 -17l8 -22q25 -62 57.5 -101t92.5 -39v-14h-344v14q29 0 38 13t9 24q0 28 -23 80q-2 4 -5 12.5t-5 10.5zM440 719h398l-199 502z
M807 1669q0 40 27 67t66 27t65.5 -27.5t26.5 -66.5q0 -37 -26.5 -64.5t-65.5 -27.5t-66 27t-27 65zM420 1669q0 40 27 67t65 27q39 0 66 -28t27 -66q0 -36 -27 -64t-66 -28q-38 0 -65 27t-27 65z" />
    <glyph glyph-name="aring" unicode="&#xe5;" horiz-adv-x="1409" 
d="M856 678h-430l-223 -557q-10 -25 -10 -27q-13 -26 -13 -47q0 -33 49 -33v-14h-219v14q59 1 86 33t54 100l534 1348h25l526 -1302q0 -8 6 -17l8 -22q25 -62 57.5 -101t92.5 -39v-14h-344v14q29 0 38 13t9 24q0 28 -23 80q-2 4 -5 12.5t-5 10.5zM440 719h398l-199 502z
M543 1739q0 46 22.5 82.5t60.5 58t79 21.5q69 0 116.5 -47.5t47.5 -114.5q0 -68 -47 -116t-117 -48q-66 0 -114 48t-48 116zM588 1739q0 -47 35 -82t82 -35q52 0 85.5 35.5t33.5 81.5q0 47 -33.5 81.5t-85.5 34.5q-47 0 -82 -34t-35 -82z" />
    <glyph glyph-name="ccedilla" unicode="&#xe7;" horiz-adv-x="1579" 
d="M874 -20l-28 -56q143 -46 143 -157q0 -62 -45 -112.5t-125.5 -76.5t-185.5 -20v41q156 4 204 46t48 85q0 98 -158 106q41 58 96 144q-90 6 -163 18.5t-158.5 44.5t-157.5 88q-122 94 -196 245t-74 329q0 144 53.5 285t160 255t266.5 182t359 68q89 0 162 -13t123.5 -29
t132.5 -48q2 0 8.5 -2t8.5 -4l55 -156h-14q-74 77 -201 145t-303 68q-162 0 -289.5 -52.5t-212.5 -140.5t-127.5 -197.5t-42.5 -221.5q0 -109 42 -252t133 -274t241.5 -216.5t357.5 -85.5q167 0 327.5 54t235.5 143l13 -4l-103 -158q-209 -46 -316.5 -61.5t-269.5 -9.5z" />
    <glyph glyph-name="egrave" unicode="&#xe8;" 
d="M80 1456v17h926v-203h-15q-22 81 -35.5 110t-34.5 36t-81 7h-486v-661h451q53 0 76.5 8t27.5 41h15v-139h-15q-7 34 -27.5 41.5t-64.5 7.5h-463v-455q0 -102 19.5 -148t59 -57.5t126.5 -11.5h260q105 0 149.5 7t69 38.5t35.5 108.5h14v-203h-1007v14q55 4 79.5 21
t24.5 84v1190q0 89 -17 118t-87 29zM365 1884h180l170 -309h-47z" />
    <glyph glyph-name="ae" unicode="&#xe6;" horiz-adv-x="1772" 
d="M854 725h-336l-321 -621q-2 -2 -4.5 -6l-2.5 -4q-14 -28 -14 -43q0 -39 49 -35v-16h-217v16q69 4 109 70q1 3 9 17t9 16q3 3 4 5t2 3l701 1346h827v-205h-14q-18 77 -34 108.5t-39 39t-77 7.5h-481v-657h438q47 0 66 2t31 12.5t16 34.5h14v-141h-14q-6 32 -24.5 39.5
t-61.5 9.5l-53 2h-412v-385q0 -120 12 -181.5t48.5 -85.5t113.5 -24h322q75 0 114.5 7.5t67 39.5t37.5 103h14v-199h-1003v14q68 -3 84 29t18 111l2 112v459zM541 766h313v602h-4z" />
    <glyph glyph-name="eacute" unicode="&#xe9;" 
d="M80 1456v17h926v-203h-15q-22 81 -35.5 110t-34.5 36t-81 7h-486v-661h451q53 0 76.5 8t27.5 41h15v-139h-15q-7 34 -27.5 41.5t-64.5 7.5h-463v-455q0 -102 19.5 -148t59 -57.5t126.5 -11.5h260q105 0 149.5 7t69 38.5t35.5 108.5h14v-203h-1007v14q55 4 79.5 21
t24.5 84v1190q0 89 -17 118t-87 29zM608 1884h180l-303 -309h-47z" />
    <glyph glyph-name="ecircumflex" unicode="&#xea;" 
d="M80 1456v17h926v-203h-15q-22 81 -35.5 110t-34.5 36t-81 7h-486v-661h451q53 0 76.5 8t27.5 41h15v-139h-15q-7 34 -27.5 41.5t-64.5 7.5h-463v-455q0 -102 19.5 -148t59 -57.5t126.5 -11.5h260q105 0 149.5 7t69 38.5t35.5 108.5h14v-203h-1007v14q55 4 79.5 21
t24.5 84v1190q0 89 -17 118t-87 29zM610 1884l264 -309h-45l-272 192l-272 -192h-47l264 309h108z" />
    <glyph glyph-name="edieresis" unicode="&#xeb;" 
d="M80 1456v17h926v-203h-15q-22 81 -35.5 110t-34.5 36t-81 7h-486v-661h451q53 0 76.5 8t27.5 41h15v-139h-15q-7 34 -27.5 41.5t-64.5 7.5h-463v-455q0 -102 19.5 -148t59 -57.5t126.5 -11.5h260q105 0 149.5 7t69 38.5t35.5 108.5h14v-203h-1007v14q55 4 79.5 21
t24.5 84v1190q0 89 -17 118t-87 29zM657 1669q0 40 27 67t66 27t65.5 -27.5t26.5 -66.5q0 -37 -26.5 -64.5t-65.5 -27.5t-66 27t-27 65zM270 1669q0 40 27 67t65 27q39 0 66 -28t27 -66q0 -36 -27 -64t-66 -28q-38 0 -65 27t-27 65z" />
    <glyph glyph-name="igrave" unicode="&#xec;" horiz-adv-x="532" 
d="M463 1473v-15q-34 3 -72.5 -11.5t-38.5 -66.5q-2 -12 -2 -75v-1131q0 -70 5 -100.5t29.5 -45.5t78.5 -14v-14h-393v14q53 2 75.5 14.5t28.5 41.5t6 102v1120q0 67 -5 100t-29 51t-76 15v15h393zM76 1884h180l170 -309h-47z" />
    <glyph glyph-name="iacute" unicode="&#xed;" horiz-adv-x="532" 
d="M463 1473v-15q-34 3 -72.5 -11.5t-38.5 -66.5q-2 -12 -2 -75v-1131q0 -70 5 -100.5t29.5 -45.5t78.5 -14v-14h-393v14q53 2 75.5 14.5t28.5 41.5t6 102v1120q0 67 -5 100t-29 51t-76 15v15h393zM278 1884h180l-303 -309h-47z" />
    <glyph glyph-name="icircumflex" unicode="&#xee;" horiz-adv-x="532" 
d="M463 1473v-15q-34 3 -72.5 -11.5t-38.5 -66.5q-2 -12 -2 -75v-1131q0 -70 5 -100.5t29.5 -45.5t78.5 -14v-14h-393v14q53 2 75.5 14.5t28.5 41.5t6 102v1120q0 67 -5 100t-29 51t-76 15v15h393zM321 1884l264 -309h-45l-272 192l-272 -192h-47l264 309h108z" />
    <glyph glyph-name="idieresis" unicode="&#xef;" horiz-adv-x="532" 
d="M463 1473v-15q-34 3 -72.5 -11.5t-38.5 -66.5q-2 -12 -2 -75v-1131q0 -70 5 -100.5t29.5 -45.5t78.5 -14v-14h-393v14q53 2 75.5 14.5t28.5 41.5t6 102v1120q0 67 -5 100t-29 51t-76 15v15h393zM368 1669q0 40 27 67t66 27t65.5 -27.5t26.5 -66.5q0 -37 -26.5 -64.5
t-65.5 -27.5t-66 27t-27 65zM-19 1669q0 40 27 67t65 27q39 0 66 -28t27 -66q0 -36 -27 -64t-66 -28q-38 0 -65 27t-27 65z" />
    <glyph glyph-name="ntilde" unicode="&#xf1;" horiz-adv-x="1642" 
d="M1288 1473h285v-15q-66 -2 -90.5 -27.5t-24.5 -107.5v-1341l-1175 1251v-1090q0 -40 5 -65.5t18 -38.5t27 -16t56 -9v-14h-283v14q56 1 79.5 15t28.5 42.5t5 98.5v997q0 125 -35 210.5t-170 80.5v15h277l1104 -1176v1040q0 76 -25.5 98.5t-81.5 22.5v15zM522 1577h-43
q-1 54 17.5 94t48.5 65.5t69 39.5t74 14q39 0 76 -14t104 -47q70 -34 88.5 -41t48.5 -7q95 0 119 109h41q1 -63 -28.5 -110.5t-81.5 -75t-109 -27.5q-46 0 -76.5 11t-89.5 40q-69 36 -96.5 47t-55.5 11q-38 0 -70.5 -25.5t-35.5 -83.5z" />
    <glyph glyph-name="oacute" unicode="&#xf3;" horiz-adv-x="1665" 
d="M1597 836q0 -169 -55 -325t-163.5 -277t-265.5 -189t-349 -68q-155 0 -283.5 53.5t-222 150t-142 219t-48.5 257.5q0 142 52 290.5t155 272t260 199.5t358 76q159 0 288.5 -50.5t223.5 -142t143 -211t49 -255.5zM1505 655q0 172 -72 314t-186.5 241.5t-246.5 153
t-244 53.5q-138 0 -272 -72.5t-219 -205t-85 -297.5q0 -203 99.5 -384.5t262.5 -292t345 -110.5q116 0 229 47t199 127.5t138 192t52 233.5zM844 1884h180l-303 -309h-47z" />
    <glyph glyph-name="ograve" unicode="&#xf2;" horiz-adv-x="1665" 
d="M1597 836q0 -169 -55 -325t-163.5 -277t-265.5 -189t-349 -68q-155 0 -283.5 53.5t-222 150t-142 219t-48.5 257.5q0 142 52 290.5t155 272t260 199.5t358 76q159 0 288.5 -50.5t223.5 -142t143 -211t49 -255.5zM1505 655q0 172 -72 314t-186.5 241.5t-246.5 153
t-244 53.5q-138 0 -272 -72.5t-219 -205t-85 -297.5q0 -203 99.5 -384.5t262.5 -292t345 -110.5q116 0 229 47t199 127.5t138 192t52 233.5zM642 1884h180l170 -309h-47z" />
    <glyph glyph-name="eth" unicode="&#xf0;" horiz-adv-x="1729" 
d="M184 723h-131v41h131v524q0 78 -4.5 109.5t-25.5 45t-74 15.5v15h674q260 0 395 -37t229 -99q82 -53 147 -135.5t101.5 -190.5t36.5 -231q0 -116 -32 -221.5t-89 -198.5t-126 -160.5t-148 -113.5q-82 -48 -199 -67t-299 -19h-692v14q54 5 74.5 19.5t26 49.5t5.5 132v508z
M885 723h-531v-424q0 -93 28.5 -148t114.5 -83.5t255 -28.5q128 0 227.5 18t176.5 55.5t138 96.5q93 90 150 229t57 277q0 93 -26.5 187.5t-83 184.5t-154 168.5t-233.5 124.5q-177 62 -424 62h-226v-678h531v-41z" />
    <glyph glyph-name="ocircumflex" unicode="&#xf4;" horiz-adv-x="1665" 
d="M1597 836q0 -169 -55 -325t-163.5 -277t-265.5 -189t-349 -68q-155 0 -283.5 53.5t-222 150t-142 219t-48.5 257.5q0 142 52 290.5t155 272t260 199.5t358 76q159 0 288.5 -50.5t223.5 -142t143 -211t49 -255.5zM1505 655q0 172 -72 314t-186.5 241.5t-246.5 153
t-244 53.5q-138 0 -272 -72.5t-219 -205t-85 -297.5q0 -203 99.5 -384.5t262.5 -292t345 -110.5q116 0 229 47t199 127.5t138 192t52 233.5zM887 1884l264 -309h-45l-272 192l-272 -192h-47l264 309h108z" />
    <glyph glyph-name="odieresis" unicode="&#xf6;" horiz-adv-x="1665" 
d="M1597 836q0 -169 -55 -325t-163.5 -277t-265.5 -189t-349 -68q-155 0 -283.5 53.5t-222 150t-142 219t-48.5 257.5q0 142 52 290.5t155 272t260 199.5t358 76q159 0 288.5 -50.5t223.5 -142t143 -211t49 -255.5zM1505 655q0 172 -72 314t-186.5 241.5t-246.5 153
t-244 53.5q-138 0 -272 -72.5t-219 -205t-85 -297.5q0 -203 99.5 -384.5t262.5 -292t345 -110.5q116 0 229 47t199 127.5t138 192t52 233.5zM934 1669q0 40 27 67t66 27t65.5 -27.5t26.5 -66.5q0 -37 -26.5 -64.5t-65.5 -27.5t-66 27t-27 65zM547 1669q0 40 27 67t65 27
q39 0 66 -28t27 -66q0 -36 -27 -64t-66 -28q-38 0 -65 27t-27 65z" />
    <glyph glyph-name="otilde" unicode="&#xf5;" horiz-adv-x="1665" 
d="M1597 836q0 -169 -55 -325t-163.5 -277t-265.5 -189t-349 -68q-155 0 -283.5 53.5t-222 150t-142 219t-48.5 257.5q0 142 52 290.5t155 272t260 199.5t358 76q159 0 288.5 -50.5t223.5 -142t143 -211t49 -255.5zM1505 655q0 172 -72 314t-186.5 241.5t-246.5 153
t-244 53.5q-138 0 -272 -72.5t-219 -205t-85 -297.5q0 -203 99.5 -384.5t262.5 -292t345 -110.5q116 0 229 47t199 127.5t138 192t52 233.5zM533 1577h-43q-1 54 17.5 94t48.5 65.5t69 39.5t74 14q39 0 76 -14t104 -47q70 -34 88.5 -41t48.5 -7q95 0 119 109h41
q1 -63 -28.5 -110.5t-81.5 -75t-109 -27.5q-46 0 -76.5 11t-89.5 40q-69 36 -96.5 47t-55.5 11q-38 0 -70.5 -25.5t-35.5 -83.5z" />
    <glyph glyph-name="oslash" unicode="&#xf8;" horiz-adv-x="1665" 
d="M1350 1352l129 145l28 -24l-129 -146q73 -63 146 -183t73 -310q0 -160 -53.5 -315.5t-158 -277.5t-263 -194t-358.5 -72q-79 0 -150.5 13t-146.5 46t-145 89q-1 1 -3 2t-2 2l-133 -152l-30 25l133 152q-70 61 -120 142.5t-74.5 171.5t-24.5 189q0 145 52 293t155.5 272.5
t260.5 200.5t357 76q268 0 457 -145zM403 283l830 936q-4 4 -6 4q-48 40 -119 84.5t-161 77t-189 32.5q-102 0 -204 -40t-187 -116t-136 -184.5t-51 -238.5q0 -162 64.5 -307t158.5 -248zM1262 1194l-830 -938q81 -82 165.5 -127.5t158 -61.5t133.5 -16q148 0 291 77
t234 218t91 322q0 83 -22.5 171t-77.5 180.5t-143 174.5z" />
    <glyph glyph-name="ugrave" unicode="&#xf9;" horiz-adv-x="1536" 
d="M1452 0h-278v227q-212 -237 -508 -237q-97 0 -181 26t-150.5 82t-105.5 146.5t-39 208.5v882q0 55 -7 80t-31 34.5t-70 8.5v15h391v-15q-57 0 -85 -18.5t-28 -93.5v-809q0 -145 35 -234q35 -87 95.5 -140t128.5 -75t131 -22q239 0 424 215v997q0 75 -6.5 110.5
t-26.5 52.5t-62 17h-14v15h387v-15q-59 -2 -84 -17.5t-25 -82.5v-1200q0 -57 5 -85t29.5 -44t74.5 -15v-14zM578 1884h180l170 -309h-47z" />
    <glyph glyph-name="uacute" unicode="&#xfa;" horiz-adv-x="1536" 
d="M1452 0h-278v227q-212 -237 -508 -237q-97 0 -181 26t-150.5 82t-105.5 146.5t-39 208.5v882q0 55 -7 80t-31 34.5t-70 8.5v15h391v-15q-57 0 -85 -18.5t-28 -93.5v-809q0 -145 35 -234q35 -87 95.5 -140t128.5 -75t131 -22q239 0 424 215v997q0 75 -6.5 110.5
t-26.5 52.5t-62 17h-14v15h387v-15q-59 -2 -84 -17.5t-25 -82.5v-1200q0 -57 5 -85t29.5 -44t74.5 -15v-14zM780 1884h180l-303 -309h-47z" />
    <glyph glyph-name="ucircumflex" unicode="&#xfb;" horiz-adv-x="1536" 
d="M1452 0h-278v227q-212 -237 -508 -237q-97 0 -181 26t-150.5 82t-105.5 146.5t-39 208.5v882q0 55 -7 80t-31 34.5t-70 8.5v15h391v-15q-57 0 -85 -18.5t-28 -93.5v-809q0 -145 35 -234q35 -87 95.5 -140t128.5 -75t131 -22q239 0 424 215v997q0 75 -6.5 110.5
t-26.5 52.5t-62 17h-14v15h387v-15q-59 -2 -84 -17.5t-25 -82.5v-1200q0 -57 5 -85t29.5 -44t74.5 -15v-14zM823 1884l264 -309h-45l-272 192l-272 -192h-47l264 309h108z" />
    <glyph glyph-name="udieresis" unicode="&#xfc;" horiz-adv-x="1536" 
d="M1452 0h-278v227q-212 -237 -508 -237q-97 0 -181 26t-150.5 82t-105.5 146.5t-39 208.5v882q0 55 -7 80t-31 34.5t-70 8.5v15h391v-15q-57 0 -85 -18.5t-28 -93.5v-809q0 -145 35 -234q35 -87 95.5 -140t128.5 -75t131 -22q239 0 424 215v997q0 75 -6.5 110.5
t-26.5 52.5t-62 17h-14v15h387v-15q-59 -2 -84 -17.5t-25 -82.5v-1200q0 -57 5 -85t29.5 -44t74.5 -15v-14zM870 1669q0 40 27 67t66 27t65.5 -27.5t26.5 -66.5q0 -37 -26.5 -64.5t-65.5 -27.5t-66 27t-27 65zM483 1669q0 40 27 67t65 27q39 0 66 -28t27 -66q0 -36 -27 -64
t-66 -28q-38 0 -65 27t-27 65z" />
    <glyph glyph-name="yacute" unicode="&#xfd;" horiz-adv-x="1174" 
d="M940 1473h221v-15q-41 -2 -69 -20t-62 -70l-360 -545v-676q0 -83 20.5 -107t91.5 -26v-14h-393v14q47 -2 80 14.5t33 84.5l-2 32v623l-361 598q-53 94 -127 92v15h348v-15q-49 0 -49 -37q0 -9 12.5 -34l12.5 -25l297 -490l325 494l5 4q26 43 26 55q0 33 -43 33h-6v15z
M598 1884h180l-303 -309h-47z" />
    <glyph glyph-name="thorn" unicode="&#xfe;" horiz-adv-x="1087" 
d="M463 1473v-15q-60 -2 -83.5 -23.5t-23.5 -101.5v-213h201q199 0 332 -64.5t133 -258.5q0 -87 -34.5 -159t-87 -125.5t-107.5 -88.5q-65 -41 -134 -56.5t-184 -15.5h-119v-211q0 -55 11.5 -82t32 -35t63.5 -10v-14h-381v14q45 1 67.5 12.5t29.5 39t7 88.5v1171
q0 86 -22 108.5t-82 24.5v15h381zM356 1081v-690h154q44 0 110.5 12t98.5 29q62 36 105.5 105t43.5 168q0 44 -12 97t-37.5 101.5t-62.5 85.5q-30 32 -68.5 52.5t-88.5 30t-122 9.5h-121z" />
    <glyph glyph-name="ydieresis" unicode="&#xff;" horiz-adv-x="1174" 
d="M940 1473h221v-15q-41 -2 -69 -20t-62 -70l-360 -545v-676q0 -83 20.5 -107t91.5 -26v-14h-393v14q47 -2 80 14.5t33 84.5l-2 32v623l-361 598q-53 94 -127 92v15h348v-15q-49 0 -49 -37q0 -9 12.5 -34l12.5 -25l297 -490l325 494l5 4q26 43 26 55q0 33 -43 33h-6v15z
M688 1669q0 40 27 67t66 27t65.5 -27.5t26.5 -66.5q0 -37 -26.5 -64.5t-65.5 -27.5t-66 27t-27 65zM301 1669q0 40 27 67t65 27q39 0 66 -28t27 -66q0 -36 -27 -64t-66 -28q-38 0 -65 27t-27 65z" />
    <glyph glyph-name="lslash" unicode="&#x142;" 
d="M25 0v12q69 0 88.5 27t19.5 90v420l-127 -115v53l127 115v733q0 80 -22 100.5t-88 22.5v15h395v-15q-53 1 -78.5 -14t-31 -41.5t-5.5 -77.5v-569l356 317v-53l-356 -318v-411q0 -134 65.5 -188t219.5 -54h180q98 0 152.5 34t76.5 98.5t29 172.5h14v-354h-1015z" />
    <glyph glyph-name="scaron" unicode="&#x161;" horiz-adv-x="981" 
d="M786 1454l70 -184l-12 -2q-1 2 -15 16q-34 40 -77.5 77t-106.5 62t-145 25q-103 0 -178 -42t-112.5 -110.5t-37.5 -142.5q0 -69 27.5 -117.5t71.5 -79t117 -57t112 -39.5q107 -33 198.5 -76.5t164.5 -134t73 -231.5q0 -131 -65 -229.5t-162 -147.5q-39 -18 -133.5 -29.5
t-131.5 -11.5h-393v428h15q2 -95 18.5 -160.5t61.5 -116t124.5 -77.5t200.5 -27q116 0 193.5 33t119.5 83t56 98.5t14 88.5q0 90 -50 151.5t-121.5 96.5t-195.5 78q-126 43 -177.5 69t-92.5 64q-55 54 -88 126.5t-33 156.5q0 109 50.5 200.5t147.5 147t228 55.5
q107 0 248 -37q3 0 9 -2t7 -2zM437 1575l-264 309h45l272 -192l272 192h47l-264 -309h-108z" />
    <glyph glyph-name="fi" unicode="&#xf001;" horiz-adv-x="1556" 
d="M74 1458v15h932v-173h-15q0 4 -0.5 7t-1.5 6q-17 70 -51.5 90t-114.5 20h-475v-649h443q52 0 75 8t27 41h14v-141h-14q-1 10 -6.5 22.5t-18.5 20.5t-41 8h-479v-588q0 -78 22 -104t91 -27v-14h-387v14q60 0 82 21t22 78v1212q0 58 -11.5 86t-34 37.5t-58.5 9.5z
M1487 1473v-15q-34 3 -72.5 -11.5t-38.5 -66.5q-2 -12 -2 -75v-1131q0 -70 5 -100.5t29.5 -45.5t78.5 -14v-14h-393v14q53 2 75.5 14.5t28.5 41.5t6 102v1120q0 67 -5 100t-29 51t-76 15v15h393z" />
    <glyph glyph-name="fl" unicode="&#xf002;" horiz-adv-x="2134" 
d="M74 1458v15h932v-173h-15q0 4 -0.5 7t-1.5 6q-17 70 -51.5 90t-114.5 20h-475v-649h443q52 0 75 8t27 41h14v-141h-14q-1 10 -6.5 22.5t-18.5 20.5t-41 8h-479v-588q0 -78 22 -104t91 -27v-14h-387v14q60 0 82 21t22 78v1212q0 58 -11.5 86t-34 37.5t-58.5 9.5zM1049 0
v14q71 0 90.5 26t19.5 89v1206q0 79 -22.5 100t-89.5 23v15h395v-15q-53 1 -78 -14.5t-30 -41.5t-5 -77v-1034q0 -69 16 -114.5t49.5 -73.5t88 -41t129.5 -13h180q98 0 153 34t77.5 99.5t27.5 171.5h14v-354h-1015z" />
    <glyph glyph-name="germandbls" unicode="&#xdf;" horiz-adv-x="1962" 
d="M786 1454l70 -184l-12 -2q-1 2 -15 16q-34 40 -77.5 77t-106.5 62t-145 25q-103 0 -178 -42t-112.5 -110.5t-37.5 -142.5q0 -69 27.5 -117.5t71.5 -79t117 -57t112 -39.5q107 -33 198.5 -76.5t164.5 -134t73 -231.5q0 -131 -65 -229.5t-162 -147.5q-39 -18 -133.5 -29.5
t-131.5 -11.5h-393v428h15q2 -95 18.5 -160.5t61.5 -116t124.5 -77.5t200.5 -27q116 0 193.5 33t119.5 83t56 98.5t14 88.5q0 90 -50 151.5t-121.5 96.5t-195.5 78q-126 43 -177.5 69t-92.5 64q-55 54 -88 126.5t-33 156.5q0 109 50.5 200.5t147.5 147t228 55.5
q107 0 248 -37q3 0 9 -2t7 -2zM1767 1454l70 -184l-12 -2q-1 2 -15 16q-34 40 -77.5 77t-106.5 62t-145 25q-103 0 -178 -42t-112.5 -110.5t-37.5 -142.5q0 -69 27.5 -117.5t71.5 -79t117 -57t112 -39.5q107 -33 198.5 -76.5t164.5 -134t73 -231.5q0 -131 -65 -229.5
t-162 -147.5q-39 -18 -133.5 -29.5t-131.5 -11.5h-393v428h15q2 -95 18.5 -160.5t61.5 -116t124.5 -77.5t200.5 -27q116 0 193.5 33t119.5 83t56 98.5t14 88.5q0 90 -50 151.5t-121.5 96.5t-195.5 78q-126 43 -177.5 69t-92.5 64q-55 54 -88 126.5t-33 156.5
q0 109 50.5 200.5t147.5 147t228 55.5q107 0 248 -37q3 0 9 -2t7 -2z" />
    </font>
</defs>
</svg>
