<svg xmlns="http://www.w3.org/2000/svg" xmlns:xlink="http://www.w3.org/1999/xlink" width="50px" height="50px" fill="#999" version="1.1" viewBox="0 0 700 700"><g xmlns="http://www.w3.org/2000/svg"><path d="m300.61 349.27c-4.7422-2.0469-7.4688-7.0625-6.6094-12.152v-174.95-7.6172h-53.703-6.2148c-9.5742-0.95312-11.762-5.207-5.8789-12.602 34.887-44.012 69.828-87.918 105-131.54 11.48-14.168 16.801-13.664 29.008 0 36.176 42.223 72.316 84.465 108.41 126.73l0.003906 0.003906c2.0039 3.0977 3.5859 6.4492 4.7031 9.9688-3.4375 1.4688-7.0508 2.4844-10.754 3.0234-17.695 0.33594-35.391 0-53.09 0h-6.6055v6.1602 180.99c0.77734 5-2.1172 9.8438-6.8867 11.535h-97.383z"/><path d="m70.336 357.05h77.281v127.23h404.54v-127.18h77.504c0 1.9609 0.33594 3.8633 0.33594 5.6016v155.85c0 25.648-16.184 41.215-42.617 41.215h-475.27c-20.832 0.22266-35.504-9.9688-40.547-27.777-1.0742-3.9609-1.6016-8.0469-1.5664-12.152v-158.03c0-1.4023 0-2.8555 0.33594-4.7617z"/></g></svg>