<svg id="Capa_1" data-name="Capa 1" xmlns="http://www.w3.org/2000/svg" viewBox="0 0 318.89 80.97"><defs><style>.cls-1{fill:#b80f0f;}.cls-2{fill:#071573;}</style></defs><title>login</title><path class="cls-1" d="M1.33-1.33H23.56a0,0,0,0,1,0,0v14.8A10.09,10.09,0,0,1,13.47,23.56H1.33a0,0,0,0,1,0,0V-1.33A0,0,0,0,1,1.33-1.33Z" transform="translate(1.33 23.56) rotate(-90)"/><path class="cls-2" d="M51.7,0h0a21.06,21.06,0,0,0-20.77,21V59.91A21.06,21.06,0,0,0,52,81V28.83a6.59,6.59,0,0,1,6.6-6.6H76.93V0Z"/><circle class="cls-1" cx="70.41" cy="68.77" r="12.2"/><path class="cls-2" d="M119.44,23.34h-9.57V15.85h27.45v7.49h-9.57v24.4h-8.31Z"/><path class="cls-2" d="M156.75,40.78v7a20.61,20.61,0,0,1-4.88.58c-6.82,0-10.63-3.29-10.63-9.81v-8h-3.68v-7h3.68v-5.8h8.31v5.8H156v7h-6.47v7.15c0,2.32,1.11,3.19,4.15,3.19Z"/><path class="cls-2" d="M177,30.93h-2c-3.81,0-5.75,1.73-5.75,5.79v11H161V23.58h7.59v2.56a7.61,7.61,0,0,1,6.09-2.95,7.34,7.34,0,0,1,2.36.39Z"/><path class="cls-2" d="M180.38,23.58h8.31V37.16a3.51,3.51,0,1,0,7,0V23.58H204v12.9c0,7.1-5,11.84-11.79,11.84s-11.84-4.74-11.84-11.84Z"/><path class="cls-2" d="M216.48,38.56c.92,1.84,2.71,2.76,5.42,2.76a12,12,0,0,0,6.33-1.89l3,5.65a15.47,15.47,0,0,1-9.62,3.24c-7.87,0-13.57-5.51-13.57-12.66A12.67,12.67,0,0,1,220.93,23a11.21,11.21,0,0,1,11.55,11.45,16.12,16.12,0,0,1-.54,4.11Zm8.12-5.41a3.78,3.78,0,0,0-4-3.63,4.5,4.5,0,0,0-4.4,3.63Z"/><path class="cls-2" d="M261.57,23.58V56.44h-8.31V46.1a8.61,8.61,0,0,1-6.19,2.22c-6.67,0-11.59-5.36-11.59-12.71S240.31,23,247.07,23c3.1,0,5.41,1,6.91,3.09V23.58Zm-12.85,7c-2.66,0-4.74,1.88-4.74,5.12s2.18,5.12,4.74,5.12,4.68-1.88,4.68-5.17S251.28,30.54,248.72,30.54Z"/><path class="cls-2" d="M266.79,23.58h8.32V37.16a3.5,3.5,0,1,0,7,0V23.58h8.31v12.9c0,7.1-5,11.84-11.79,11.84s-11.84-4.74-11.84-11.84Z"/><path class="cls-2" d="M302.89,38.56c.92,1.84,2.71,2.76,5.42,2.76a12,12,0,0,0,6.33-1.89l3,5.65A15.46,15.46,0,0,1,308,48.32c-7.88,0-13.58-5.51-13.58-12.66A12.67,12.67,0,0,1,307.34,23a11.2,11.2,0,0,1,11.55,11.45,16.12,16.12,0,0,1-.54,4.11ZM311,33.15a3.77,3.77,0,0,0-4-3.63,4.5,4.5,0,0,0-4.4,3.63Z"/><path class="cls-2" d="M107.81,65.32h1.72l1.84,5,1.85-5h1.68L112,72.43h-1.37Z"/><path class="cls-2" d="M116,65.32h5.33V66.7h-3.79v1.43h3.33v1.39h-3.33V71h3.84v1.38H116Z"/><path class="cls-2" d="M122.73,65.32h1.44l3.31,4.35V65.32H129v7.06h-1.32l-3.42-4.49v4.49h-1.54Z"/><path class="cls-2" d="M130.7,65.32h2.75a3.52,3.52,0,0,1,3.76,3.51v0a3.54,3.54,0,0,1-3.76,3.53H130.7Zm1.55,1.4V71h1.2a2,2,0,0,0,2.13-2.11v0a2,2,0,0,0-2.13-2.13Z"/><path class="cls-2" d="M138.58,65.32h5.33V66.7h-3.79v1.43h3.33v1.39h-3.33V71H144v1.38h-5.38Z"/><path class="cls-2" d="M145.33,65.32h3.23a2.82,2.82,0,0,1,2.06.71,2.21,2.21,0,0,1,.61,1.62v0a2.19,2.19,0,0,1-1.52,2.19l1.73,2.52h-1.82l-1.51-2.26h-1.22v2.26h-1.56Zm3.13,3.43c.76,0,1.19-.4,1.19-1v0c0-.67-.46-1-1.22-1h-1.54v2Z"/><path class="cls-2" d="M157.64,69.6l-2.72-4.28h1.82l1.68,2.83,1.72-2.83h1.77l-2.72,4.25v2.81h-1.55Z"/><path class="cls-2" d="M165.58,68.87v0a3.58,3.58,0,0,1,3.68-3.65,3.65,3.65,0,0,1,2.79,1.09l-1,1.14a2.6,2.6,0,0,0-1.81-.8,2.1,2.1,0,0,0-2.05,2.2v0a2.1,2.1,0,0,0,2.05,2.22,2.54,2.54,0,0,0,1.86-.83l1,1a3.62,3.62,0,0,1-2.9,1.26A3.56,3.56,0,0,1,165.58,68.87Z"/><path class="cls-2" d="M172.82,68.87v0a3.76,3.76,0,0,1,7.51,0v0a3.65,3.65,0,0,1-3.77,3.65A3.61,3.61,0,0,1,172.82,68.87Zm5.88,0v0a2.15,2.15,0,0,0-2.14-2.22,2.11,2.11,0,0,0-2.12,2.2v0a2.15,2.15,0,0,0,2.14,2.22A2.11,2.11,0,0,0,178.7,68.87Z"/><path class="cls-2" d="M181.7,65.32h1.67l1.86,3,1.86-3h1.68v7.06h-1.55V67.77l-2,3h0l-2-3v4.58H181.7Z"/><path class="cls-2" d="M190.45,65.32h2.88A2.42,2.42,0,0,1,196,67.76v0c0,1.64-1.27,2.48-2.86,2.48H192v2.12h-1.55Zm2.78,3.56a1.1,1.1,0,0,0,1.24-1.07v0c0-.7-.49-1.07-1.27-1.07H192v2.16Z"/><path class="cls-2" d="M197.18,65.32h3.23a2.82,2.82,0,0,1,2.06.71,2.21,2.21,0,0,1,.61,1.62v0a2.19,2.19,0,0,1-1.52,2.19l1.73,2.52h-1.82L200,70.12h-1.22v2.26h-1.56Zm3.13,3.43c.76,0,1.19-.4,1.19-1v0c0-.67-.46-1-1.22-1h-1.54v2Z"/><path class="cls-2" d="M206.89,65.27h1.44l3,7.11h-1.63l-.64-1.58h-3l-.65,1.58h-1.58Zm1.64,4.16-.94-2.3-.94,2.3Z"/><path class="cls-2" d="M212.44,65.32h3.23a2.86,2.86,0,0,1,2.06.71,2.25,2.25,0,0,1,.6,1.62v0a2.19,2.19,0,0,1-1.51,2.19l1.72,2.52h-1.81l-1.52-2.26H214v2.26h-1.55Zm3.13,3.43c.75,0,1.19-.4,1.19-1v0c0-.67-.47-1-1.22-1H214v2Z"/><path class="cls-2" d="M222.26,71.35l.92-1.1a3.22,3.22,0,0,0,2.11.86c.64,0,1-.25,1-.66v0c0-.4-.24-.6-1.42-.9-1.42-.37-2.34-.76-2.34-2.16v0A2.2,2.2,0,0,1,225,65.22a4.09,4.09,0,0,1,2.63.9l-.81,1.17a3.28,3.28,0,0,0-1.84-.7c-.6,0-.91.27-.91.62v0c0,.46.3.61,1.53.92,1.43.38,2.24.89,2.24,2.12v0c0,1.4-1.07,2.18-2.6,2.18A4.49,4.49,0,0,1,222.26,71.35Z"/><path class="cls-2" d="M229.27,65.32h1.56v7.06h-1.56Z"/><path class="cls-2" d="M232.59,65.32H234l3.31,4.35V65.32h1.54v7.06h-1.32l-3.43-4.49v4.49h-1.53Z"/><path class="cls-2" d="M243.58,65.32h2.75a3.52,3.52,0,0,1,3.76,3.51v0a3.54,3.54,0,0,1-3.76,3.53h-2.75Zm1.55,1.4V71h1.2a2,2,0,0,0,2.13-2.11v0a2,2,0,0,0-2.13-2.13Z"/><path class="cls-2" d="M251.53,65.32h1.56v7.06h-1.56Z"/><path class="cls-2" d="M254.85,65.32h1.43l3.31,4.35V65.32h1.54v7.06h-1.32l-3.43-4.49v4.49h-1.53Z"/><path class="cls-2" d="M262.81,65.32h5.33V66.7h-3.78v1.43h3.33v1.39h-3.33V71h3.84v1.38h-5.39Z"/><path class="cls-2" d="M269.57,65.32h3.23a2.84,2.84,0,0,1,2.06.71,2.25,2.25,0,0,1,.6,1.62v0A2.19,2.19,0,0,1,274,69.86l1.72,2.52h-1.81l-1.52-2.26h-1.22v2.26h-1.55Zm3.13,3.43c.75,0,1.19-.4,1.19-1v0c0-.67-.47-1-1.22-1h-1.55v2Z"/><path class="cls-2" d="M276.54,68.87v0a3.65,3.65,0,0,1,3.77-3.65,3.61,3.61,0,0,1,3.74,3.63v0a3.76,3.76,0,0,1-7.51,0Zm5.89,0v0a2.15,2.15,0,0,0-2.14-2.22,2.11,2.11,0,0,0-2.12,2.2v0a2.15,2.15,0,0,0,2.14,2.22A2.11,2.11,0,0,0,282.43,68.87Z"/></svg>