<?xml version="1.0"?>
<svg xmlns="http://www.w3.org/2000/svg" id="Layer_1" data-name="Layer 1" viewBox="0 0 512 512" width="512" height="512"><title>Check list</title><path d="M284.1,257.835a56.4,56.4,0,1,0,56.4-56.4A56.467,56.467,0,0,0,284.1,257.835Zm56.4-44.4a44.4,44.4,0,1,1-44.4,44.4A44.455,44.455,0,0,1,340.5,213.431Z"/><path d="M310.6,260.608l19,19a6,6,0,0,0,8.386.1l33.492-31.992a6,6,0,1,0-8.289-8.677l-29.252,27.941-14.852-14.852a6,6,0,1,0-8.484,8.485Z"/><path d="M291.5,35h-160a46.053,46.053,0,0,0-46,46V431a46.053,46.053,0,0,0,46,46h160a46.053,46.053,0,0,0,46-46V363.369h62.838A26.191,26.191,0,0,0,426.5,337.208V176.7a26.191,26.191,0,0,0-26.162-26.161H379.119v-9.9a6,6,0,0,0-6-6H337.5V81A46.053,46.053,0,0,0,291.5,35Zm0,430h-160a34.038,34.038,0,0,1-34-34V405h228v26A34.038,34.038,0,0,1,291.5,465Zm34-72H97.5V107h163a6,6,0,0,0,0-12H97.5V81a34.038,34.038,0,0,1,34-34h160a34.038,34.038,0,0,1,34,34V95h-14a6,6,0,0,0,0,12h14v27.631H307.881a6,6,0,0,0-6,6v9.9H280.662A26.191,26.191,0,0,0,254.5,176.7V337.208a26.191,26.191,0,0,0,26.162,26.161H325.5Zm53.619-221.417v-9.049h21.219A14.178,14.178,0,0,1,414.5,176.7V337.208a14.178,14.178,0,0,1-14.162,14.161H280.662A14.178,14.178,0,0,1,266.5,337.208V176.7a14.178,14.178,0,0,1,14.162-14.161h21.219v9.049a6,6,0,0,0,6,6h65.238A6,6,0,0,0,379.119,171.583Zm-12-6H313.881V146.631h53.238Z"/><path d="M280.194,107h11.117a6,6,0,0,0,0-12H280.194a6,6,0,0,0,0,12Z"/><path d="M211.5,414a21,21,0,1,0,21,21A21.024,21.024,0,0,0,211.5,414Zm0,30a9,9,0,1,1,9-9A9.01,9.01,0,0,1,211.5,444Z"/><path d="M226.5,237H205.21a6,6,0,0,0,0,12H226.5a6,6,0,0,0,0-12Z"/><path d="M122.5,249h56.177a6,6,0,1,0,0-12H122.5a6,6,0,0,0,0,12Z"/><path d="M226.5,287H165.21a6,6,0,0,0,0,12H226.5a6,6,0,0,0,0-12Z"/><path d="M122.5,299h16.177a6,6,0,1,0,0-12H122.5a6,6,0,0,0,0,12Z"/><path d="M223.5,337h-18a6,6,0,0,0,0,12h18a6,6,0,0,0,0-12Z"/><path d="M178.677,337H122.5a6,6,0,0,0,0,12h56.177a6,6,0,1,0,0-12Z"/><path d="M226.5,183h-61a6,6,0,0,0,0,12h61a6,6,0,0,0,0-12Z"/><path d="M122.5,195h16.177a6,6,0,1,0,0-12H122.5a6,6,0,0,0,0,12Z"/></svg>
