<?xml version="1.0"?>
<svg xmlns="http://www.w3.org/2000/svg" viewBox="0 0 64 64" width="512" height="512"><g id="Outline"><g><path d="M57,52H53V25a1,1,0,0,0-1-1H45.741l-.168-.363,4-2.82a1,1,0,0,0,0-1.634l-4-2.82L47.63,11.92a1,1,0,0,0-.818-1.416l-4.875-.441L41.5,5.188A1,1,0,0,0,40.08,4.37L35.637,6.427l-2.82-4a1.037,1.037,0,0,0-1.634,0l-2.82,4L23.92,4.37a1,1,0,0,0-1.416.818l-.441,4.875-4.876.441a1,1,0,0,0-.817,1.416l2.057,4.443-4,2.82a1,1,0,0,0,0,1.634l1.419,1A1,1,0,1,0,17,20.183L16.736,20l3.524-2.482a1,1,0,0,0,.332-1.238l-1.811-3.912,4.293-.388a1,1,0,0,0,.906-.906l.388-4.293L28.28,8.592a1,1,0,0,0,1.238-.331L32,4.736l2.482,3.525a1,1,0,0,0,1.238.331l3.912-1.811.388,4.293a1,1,0,0,0,.906.906l4.293.388L43.408,16.28a1,1,0,0,0,.331,1.238L47.264,20l-3.525,2.482a1,1,0,0,0-.331,1.238l1.811,3.912-4.293.388a1,1,0,0,0-.906.906l-.388,4.293L35.72,31.408a1,1,0,0,0-1.238.331L32,35.264l-2.482-3.525a1,1,0,0,0-1.238-.331l-3.912,1.811-.388-4.293a1,1,0,0,0-.906-.906l-4.293-.388,1.811-3.912a1,1,0,0,0-1.815-.84l-2.407,5.2a1,1,0,0,0,.817,1.416l2.333.211L12.134,42.5a1,1,0,0,0,.99,1.492l7.338-.917,3.67,6.421A1,1,0,0,0,25,50h.023a1,1,0,0,0,.868-.545L30.673,40.1a1,1,0,1,0-1.781-.91L24.951,46.9,21.868,41.5a1,1,0,0,0-.992-.5l-6,.75,6.843-11.853.348.032.441,4.876a1,1,0,0,0,1.416.817l4.443-2.057,2.82,4a1,1,0,0,0,1.634,0l2.82-4L40.08,35.63a1,1,0,0,0,1.416-.817l.441-4.876.347-.032,6.844,11.853-6-.75a1,1,0,0,0-.992.5L39.049,46.9,35.066,39.1a1,1,0,0,0-1.781.911l4.824,9.439a1,1,0,0,0,.868.545H39a1,1,0,0,0,.868-.5l3.669-6.421,7.339.917a1.026,1.026,0,0,0,.124,0V52H13V47a1,1,0,0,0-2,0v5H7a1,1,0,0,0-1,1v4a5.006,5.006,0,0,0,5,5H53a5.006,5.006,0,0,0,5-5V53A1,1,0,0,0,57,52ZM44.48,29.707l2.332-.211a1,1,0,0,0,.818-1.416L46.667,26H51V41ZM56,57a3,3,0,0,1-3,3H11a3,3,0,0,1-3-3V54H38v2H25a1,1,0,0,0,0,2H39a1,1,0,0,0,1-1V54H56Z"/><path d="M11,25V37a1,1,0,0,0,2,0V26h1.9a1,1,0,0,0,0-2H12A1,1,0,0,0,11,25Z"/><path d="M37.683,18.128a1,1,0,0,0-.808-.68l-2.749-.4L32.9,14.558a1.041,1.041,0,0,0-1.794,0l-1.229,2.491-2.749.4a1,1,0,0,0-.555,1.7l1.99,1.94-.47,2.738a1,1,0,0,0,1.451,1.054L32,23.593l2.459,1.292a1,1,0,0,0,1.45-1.054l-.469-2.738,1.99-1.94A1,1,0,0,0,37.683,18.128Zm-4.015,1.9a1,1,0,0,0-.287.885l.216,1.259-1.132-.594a1,1,0,0,0-.93,0l-1.131.594.216-1.259a1,1,0,0,0-.287-.885l-.916-.892,1.265-.184a1,1,0,0,0,.753-.547L32,17.26l.565,1.145a1,1,0,0,0,.753.547l1.265.184Z"/><path d="M8.69,26.885a1,1,0,0,0,1.451-1.054l-.36-2.1,1.525-1.487a1,1,0,0,0-.554-1.7l-2.108-.308L7.7,18.321a1.041,1.041,0,0,0-1.793,0l-.944,1.91-2.108.308a1,1,0,0,0-.554,1.7l1.526,1.487-.361,2.1a1,1,0,0,0,1.451,1.054L6.8,25.894ZM5.781,24.172l.107-.621a1,1,0,0,0-.288-.885l-.451-.44.623-.091a1,1,0,0,0,.753-.547l.279-.566.279.566a1,1,0,0,0,.753.547l.624.091-.451.44a1,1,0,0,0-.288.885l.106.621-.557-.293a1,1,0,0,0-.931,0Z"/><path d="M61.951,21.22a1,1,0,0,0-.806-.681l-2.11-.308-.943-1.91a1.041,1.041,0,0,0-1.793,0l-.943,1.91-2.109.308a1,1,0,0,0-.554,1.7l1.527,1.487-.361,2.1a1,1,0,0,0,1.452,1.054l1.884-.991,1.886.991a1,1,0,0,0,1.451-1.054l-.36-2.1L61.7,22.244A1,1,0,0,0,61.951,21.22ZM58.4,22.666a1,1,0,0,0-.287.885l.107.621-.558-.293a1,1,0,0,0-.932,0l-.556.293.106-.621a1,1,0,0,0-.287-.885l-.451-.44.624-.091a1,1,0,0,0,.752-.547l.278-.565.28.565a1,1,0,0,0,.752.547l.624.091Z"/><path d="M49.22,9.967l-.361,2.1a1,1,0,0,0,1.452,1.054L52.2,12.13l1.886.991a1,1,0,0,0,1.451-1.054l-.36-2.1L56.7,8.479a1,1,0,0,0-.554-1.7l-2.109-.306-.943-1.91a1.04,1.04,0,0,0-1.793,0l-.943,1.91-2.108.306a1,1,0,0,0-.555,1.7Zm1.944-1.6a1,1,0,0,0,.753-.547L52.2,7.26l.28.564a1,1,0,0,0,.753.547l.623.091L53.4,8.9a1,1,0,0,0-.287.885l.107.621-.558-.293a1,1,0,0,0-.932,0l-.556.293.106-.621a1,1,0,0,0-.287-.885l-.451-.44Z"/><path d="M8.828,9.967l-.361,2.1a1,1,0,0,0,1.451,1.054L11.8,12.13l1.886.991a1,1,0,0,0,1.451-1.054l-.36-2.1,1.526-1.488a1,1,0,0,0-.555-1.7l-2.108-.306L12.7,4.558a1.04,1.04,0,0,0-1.793,0l-.944,1.91-2.108.306a1,1,0,0,0-.554,1.7Zm1.944-1.6a1,1,0,0,0,.753-.547l.279-.565.279.565a1,1,0,0,0,.753.547l.624.091-.452.44a1,1,0,0,0-.287.885l.106.621-.557-.293a1,1,0,0,0-.931,0l-.558.293.107-.621A1,1,0,0,0,10.6,8.9l-.452-.44Z"/><path d="M37.318,11.541a10.022,10.022,0,1,0,3.141,3.141,1,1,0,1,0-1.691,1.066,8.019,8.019,0,1,1-2.516-2.516,1,1,0,1,0,1.066-1.691Z"/></g></g></svg>
