<?xml version="1.0"?>
<svg xmlns="http://www.w3.org/2000/svg" id="Layer_1" data-name="Layer 1" viewBox="0 0 512 512" width="512" height="512"><title>Mobile Security</title><path d="M285.2,107h11.116a6,6,0,0,0,0-12H285.2a6,6,0,0,0,0,12Z"/><path d="M216.5,414a21,21,0,1,0,21,21A21.024,21.024,0,0,0,216.5,414Zm0,30a9,9,0,1,1,9-9A9.01,9.01,0,0,1,216.5,444Z"/><path d="M418.146,189.433,342.5,152.279V81a46.053,46.053,0,0,0-46-46h-160a46.053,46.053,0,0,0-46,46V431a46.053,46.053,0,0,0,46,46h160a46.053,46.053,0,0,0,46-46V358.963l49.713-33.905c16.423-11.2,29.287-35.528,29.287-55.39v-74.85A6,6,0,0,0,418.146,189.433ZM136.5,47h160a34.038,34.038,0,0,1,34,34V95h-14a6,6,0,0,0,0,12h14v44.294l-77.639,38.024a6,6,0,0,0-3.361,5.389v74.961c0,19.862,12.864,44.192,29.285,55.39L330.5,360.327V393h-228V107h163a6,6,0,0,0,0-12h-163V81A34.038,34.038,0,0,1,136.5,47Zm160,418h-160a34.038,34.038,0,0,1-34-34V405h228v26A34.038,34.038,0,0,1,296.5,465Zm113-195.332c0,15.762-11.013,36.587-24.048,45.476L335.5,349.211l-49.954-34.068c-13.034-8.887-24.046-29.712-24.046-45.475V198.449l74-36.241,74,36.348Z"/><path d="M309.743,253.007a6,6,0,0,0-8.486,8.486l19.166,19.166a6,6,0,0,0,8.485,0l40.834-40.833a6,6,0,1,0-8.484-8.485l-36.592,36.59Z"/></svg>
