<?xml version="1.0" encoding="utf-8"?>
<!-- Generator: Adobe Illustrator 18.0.0, SVG Export Plug-In . SVG Version: 6.00 Build 0)  -->
<!DOCTYPE svg PUBLIC "-//W3C//DTD SVG 1.1//EN" "http://www.w3.org/Graphics/SVG/1.1/DTD/svg11.dtd">
<svg version="1.1" id="Layer_1" xmlns="http://www.w3.org/2000/svg" xmlns:xlink="http://www.w3.org/1999/xlink" x="0px" y="0px"
	 viewBox="0 0 64 64" enable-background="new 0 0 64 64" xml:space="preserve">
<g>
	<g>
		<g>
			<path fill="#834BEF" d="M32,0c17.7,0,32,14.3,32,32S49.7,64,32,64S0,49.7,0,32S14.3,0,32,0z"/>
		</g>
	</g>
	<g>
		<g>
			<path fill="#FFA000" d="M38,35c-6.1,0-11,1.7-11,3.9v4.2c0,2.2,4.9,3.9,11,3.9s11-1.7,11-3.9v-4.2C49,36.7,44.1,35,38,35z"/>
		</g>
	</g>
	<g>
		<g>
			<ellipse fill="#FFC107" cx="38" cy="39" rx="11" ry="4"/>
		</g>
	</g>
	<g>
		<g>
			<path fill="#FFA000" d="M38,28c-6.1,0-11,1.7-11,3.9v4.2c0,2.2,4.9,3.9,11,3.9s11-1.7,11-3.9v-4.2C49,29.7,44.1,28,38,28z"/>
		</g>
	</g>
	<g>
		<g>
			<ellipse fill="#FFC107" cx="38" cy="32" rx="11" ry="4"/>
		</g>
	</g>
	<g>
		<g>
			<path fill="#FFA000" d="M38,21c-6.1,0-11,1.7-11,3.9v4.2c0,2.2,4.9,3.9,11,3.9s11-1.7,11-3.9v-4.2C49,22.7,44.1,21,38,21z"/>
		</g>
	</g>
	<g>
		<g>
			<ellipse fill="#FFC107" cx="38" cy="25" rx="11" ry="4"/>
		</g>
	</g>
	<g>
		<g>
			<path fill="#FFA000" d="M26,40c-6.1,0-11,1.7-11,3.9v4.2c0,2.2,4.9,3.9,11,3.9s11-1.7,11-3.9v-4.2C37,41.7,32.1,40,26,40z"/>
		</g>
	</g>
	<g>
		<g>
			<ellipse fill="#FFC107" cx="26" cy="44" rx="11" ry="4"/>
		</g>
	</g>
	<g>
		<g>
			<path fill="#FFA000" d="M26,33c-6.1,0-11,1.7-11,3.9v4.2c0,2.2,4.9,3.9,11,3.9s11-1.7,11-3.9v-4.2C37,34.7,32.1,33,26,33z"/>
		</g>
	</g>
	<g>
		<g>
			<ellipse fill="#FFC107" cx="26" cy="37" rx="11" ry="4"/>
		</g>
	</g>
	<g>
		<g>
			<path fill="#FFA000" d="M26,26c-6.1,0-11,1.7-11,3.9v4.2c0,2.2,4.9,3.9,11,3.9s11-1.7,11-3.9v-4.2C37,27.7,32.1,26,26,26z"/>
		</g>
	</g>
	<g>
		<g>
			<ellipse fill="#FFC107" cx="26" cy="30" rx="11" ry="4"/>
		</g>
	</g>
	<g>
		<g>
			<path fill="#FFA000" d="M26,19c-6.1,0-11,1.7-11,3.9v4.2c0,2.2,4.9,3.9,11,3.9s11-1.7,11-3.9v-4.2C37,20.7,32.1,19,26,19z"/>
		</g>
	</g>
	<g>
		<g>
			<ellipse fill="#FFC107" cx="26" cy="23" rx="11" ry="4"/>
		</g>
	</g>
	<g>
		<g>
			<path fill="#FFA000" d="M26,12c-6.1,0-11,1.7-11,3.9v4.2c0,2.2,4.9,3.9,11,3.9s11-1.7,11-3.9v-4.2C37,13.7,32.1,12,26,12z"/>
		</g>
	</g>
	<g>
		<g>
			<ellipse fill="#FFC107" cx="26" cy="16" rx="11" ry="4"/>
		</g>
	</g>
</g>
</svg>
