<?xml version="1.0" encoding="utf-8"?>
<!-- Generator: Adobe Illustrator 18.0.0, SVG Export Plug-In . SVG Version: 6.00 Build 0)  -->
<!DOCTYPE svg PUBLIC "-//W3C//DTD SVG 1.1//EN" "http://www.w3.org/Graphics/SVG/1.1/DTD/svg11.dtd">
<svg version="1.1" id="Layer_1" xmlns="http://www.w3.org/2000/svg" xmlns:xlink="http://www.w3.org/1999/xlink" x="0px" y="0px"
	 viewBox="0 0 64 64" enable-background="new 0 0 64 64" xml:space="preserve">
<g>
	<g>
		<g>
			<path fill="#FFD41D" d="M32,0c17.7,0,32,14.3,32,32S49.7,64,32,64S0,49.7,0,32S14.3,0,32,0z"/>
		</g>
	</g>
	<g>
		<g>
			<path fill="#47BA5F" d="M45,39c0-7.4-9.9-9.3-13.1-9.9C25,27.7,25,25.7,25,25c0-1.9,3-4,7-4c3.2,0,5.8,1.4,6.5,3.4l5.7-1.8
				c-1.2-3.7-4.7-6.5-9.2-7.3V12h-6v3.3c-5.8,1-10,4.9-10,9.7c0,7.7,8.8,9.4,11.7,9.9c6.1,1.2,8.3,2.9,8.3,4.1c0,1.9-3,4-7,4
				c-3.2,0-5.8-1.4-6.5-3.4l-5.7,1.8c1.2,3.7,4.7,6.5,9.2,7.3V52h6v-3.3C40.8,47.7,45,43.8,45,39z"/>
		</g>
	</g>
</g>
</svg>
