<svg id="Capa_1" data-name="Capa 1" xmlns="http://www.w3.org/2000/svg" viewBox="0 0 23.37 30.5"><defs><style>.cls-1{fill:#838db1;}</style></defs><title>login-3</title><path class="cls-1" d="M.48,15.07l-.16-.65A11.92,11.92,0,0,1,0,11.69a11.69,11.69,0,1,1,23.37,0,11.25,11.25,0,0,1-.32,2.72l-.15.64ZM11.69,1.67a10,10,0,0,0-10,10,9.68,9.68,0,0,0,.15,1.7H21.56a10.51,10.51,0,0,0,.14-1.69A10,10,0,0,0,11.69,1.67Z"/><path class="cls-1" d="M17.61,30.5H5.76A5.47,5.47,0,0,1,.3,25V13.38H23.08V25A5.48,5.48,0,0,1,17.61,30.5ZM2,15.05V25a3.79,3.79,0,0,0,3.79,3.79H17.61A3.79,3.79,0,0,0,21.4,25v-10Z"/><circle class="cls-1" cx="11.79" cy="18.79" r="1.66"/><path class="cls-1" d="M11.79,24.62a.84.84,0,0,1-.84-.83v-5a.84.84,0,0,1,1.68,0v5A.84.84,0,0,1,11.79,24.62Z"/></svg>