<svg id="Capa_1" data-name="Capa 1" xmlns="http://www.w3.org/2000/svg" viewBox="0 0 27.13 22.04"><defs><style>.cls-1{fill:#838db1;}</style></defs><title>login-2</title><path class="cls-1" d="M24,0H3.18A3.19,3.19,0,0,0,0,3.18V5.8l11.67,8.68a3.17,3.17,0,0,0,3.79,0L27.13,5.8V3.18A3.19,3.19,0,0,0,24,0ZM25,4.74l-10.81,8a1.07,1.07,0,0,1-1.27,0l-10.81-8V3.18A1.05,1.05,0,0,1,3.18,2.12H24A1.06,1.06,0,0,1,25,3.18ZM25,10l2.12-1.58V18.86A3.18,3.18,0,0,1,24,22H3.18A3.18,3.18,0,0,1,0,18.86V8.44L2.12,10v8.84a1.05,1.05,0,0,0,1.06,1.06H24A1.06,1.06,0,0,0,25,18.86Zm0,0"/></svg>