<svg xmlns="http://www.w3.org/2000/svg" xmlns:xlink="http://www.w3.org/1999/xlink" version="1.1" x="0px" y="0px" viewBox="0 0 100 125" style="enable-background:new 0 0 100 100;" xml:space="preserve"><g><path d="M21.3,40.8c0,1.4,1.1,2.5,2.5,2.5s2.5-1.1,2.5-2.5c0-8.3,6.7-14.5,15.5-14.5h16.5c8.5,0,15.5,7,15.5,15.5v16.5   c0,8.5-7,15.5-15.5,15.5H41.8c-8.8,0-15.5-6.2-15.5-14.5c0-1.4-1.1-2.5-2.5-2.5s-2.5,1.1-2.5,2.5c0,10.9,9,19.5,20.5,19.5h16.5   c11.3,0,20.5-9.2,20.5-20.5V41.8c0-11.3-9.2-20.5-20.5-20.5H41.8C30.3,21.3,21.3,29.8,21.3,40.8z"/><path d="M21.3,50c0,1.4,1.1,2.5,2.5,2.5h26.3l-8,8c-1,1-1,2.6,0,3.5c1,1,2.6,1,3.5,0l12.2-12.2c0.5-0.5,0.7-1.1,0.7-1.8   s-0.2-1.3-0.7-1.8L45.6,36c-1-1-2.6-1-3.5,0c-1,1-1,2.6,0,3.5l8,8H23.8C22.4,47.5,21.3,48.6,21.3,50z"/></g></svg>