<svg xmlns="http://www.w3.org/2000/svg" data-name="Layer 2" viewBox="0 0 32 40" x="0px" y="0px"><path d="M28.5,0H3.5A3.5,3.5,0,0,0,0,3.5v25A3.5,3.5,0,0,0,3.5,32h25A3.5,3.5,0,0,0,32,28.5V3.5A3.5,3.5,0,0,0,28.5,0ZM22.84637,16.30511c-.00775.02491-.00988.05005-.01965.07447-.00317.00787-.00305.01642-.00641.02423a.99231.99231,0,0,1-.18359.27557c-.00574.00629-.00726.01459-.01318.02082l-5.3667,5.60546a.99979.99979,0,1,1-1.44434-1.38281l3.751-3.91785L6.9126,16.98438a1,1,0,0,1,.00146-2h.00147l12.65039.0205L15.82617,11.0752a1.0002,1.0002,0,1,1,1.44922-1.37891L22.626,15.31934a.99025.99025,0,0,1,.18011.27368c.01215.02643.01715.05371.02692.08093a.96581.96581,0,0,1,.01336.63116Zm3.23957,5.30915a1,1,0,0,1-2,0V10.38574a1,1,0,1,1,2,0Z"/></svg>