<svg id="Capa_1" data-name="Capa 1" xmlns="http://www.w3.org/2000/svg" viewBox="0 0 111.78 111.78"><defs><style>.cls-1{fill:#007bff;}.cls-2{fill:#fff;}</style></defs><title>sin-prodcutos</title><path class="cls-1" d="M54.76,0A55.89,55.89,0,1,1,0,56.8,55.92,55.92,0,0,1,54.76,0Zm.92,108.18A52.29,52.29,0,1,0,3.62,55.27,52.27,52.27,0,0,0,55.68,108.19Z"/><path class="cls-2" d="M55.68,108.19a52.29,52.29,0,1,1,52.49-51.84A52.22,52.22,0,0,1,55.68,108.19ZM57.17,9a43.85,43.85,0,0,0-15.32,2.16c-15.83,5.39-26.48,16-31,32.15-4.18,14.8-1.39,28.54,7.77,40.94,1.45,2,2.28,2,4.05.23L43.82,63.31,84.69,22.44c1.39-1.39,1.42-2.42.06-3.48A46.19,46.19,0,0,0,57.17,9Zm-4.39,93.71c8.43.17,14.06-.77,19.41-2.89C86.57,94.14,96.26,84,100.81,69.09A46.46,46.46,0,0,0,93.2,27.51c-1.46-1.9-2.29-2-4-.27L58.46,58,27.07,89.39c-1.41,1.41-1.39,2.4.08,3.54A45.18,45.18,0,0,0,52.78,102.73Z"/><path class="cls-1" d="M57.17,9A46.19,46.19,0,0,1,84.75,19c1.36,1.06,1.33,2.09-.06,3.48L43.82,63.31,22.63,84.5c-1.77,1.76-2.6,1.74-4.05-.23C9.42,71.87,6.63,58.13,10.81,43.33,15.37,27.2,26,16.57,41.85,11.18A43.85,43.85,0,0,1,57.17,9Zm-5.54,18c7.44,0,14.87,0,22.31,0a2.23,2.23,0,0,0,1.77-.72c1.48-1.55,3-3,4.53-4.56,1-1,1-1-.17-1.77-14.26-9.08-29-9.92-44.15-2.43a41,41,0,0,0-19,19.49A43.2,43.2,0,0,0,20.27,80.5c.4.58.63.67,1.16.12q2.33-2.45,4.78-4.78a2.55,2.55,0,0,0,.84-2.06Q27,51.87,27,30c0-2.51.4-2.9,3-2.9ZM53,48.78a1,1,0,0,0-.22-.08h-3.5c-1.82,0-2.4-.6-2.4-2.44,0-4.85,0-9.69,0-14.53,0-.82-.18-1.1-1-1.09q-7.1.07-14.19,0c-.9,0-1,.33-1,1.11q0,19.26,0,38.51c0,.28-.14.6.1.77Zm-2.52-11c0,2.1,0,4.2,0,6.3,0,.7.16,1,.93,1,1.61-.06,3.22,0,4.83,0a1.58,1.58,0,0,0,1.27-.56c1.07-1.1,2.17-2.18,3.26-3.26a1.49,1.49,0,0,0,.55-1.16q0-4.32,0-8.66c0-.65-.24-.82-.85-.81-3,0-6.07,0-9.11,0-.69,0-.91.2-.89.89C50.51,33.63,50.48,35.73,50.48,37.83Zm14.43-1.37,5.81-5.8c-1.53,0-3.32,0-5.12,0-.54,0-.7.21-.7.73C64.92,33.17,64.91,35,64.91,36.46Z"/><path class="cls-1" d="M52.78,102.73a45.18,45.18,0,0,1-25.63-9.8c-1.47-1.14-1.49-2.13-.08-3.54L58.46,58,89.22,27.24c1.69-1.69,2.52-1.63,4,.27a46.46,46.46,0,0,1,7.61,41.58c-4.55,14.9-14.24,25-28.62,30.75C66.84,102,61.21,102.9,52.78,102.73Zm32-42.54V82.05c0,2.21-.5,2.7-2.71,2.7q-22.1,0-44.18,0a2.23,2.23,0,0,0-1.78.71c-1.5,1.58-3,3.14-4.62,4.62-.77.72-.78,1.07.13,1.67A42.43,42.43,0,0,0,59.48,99,42,42,0,0,0,89.54,83c8-9.86,10.9-21.23,9.13-33.76A41.86,41.86,0,0,0,91.6,31.41c-.52-.77-.79-.7-1.38-.09-1.55,1.63-3.15,3.22-4.77,4.78a2.22,2.22,0,0,0-.72,1.78Q84.76,49,84.75,60.19ZM81.17,41,41,81.12a1.84,1.84,0,0,0,.32,0c13,0,25.9,0,38.85,0,1,0,1-.44,1-1.15q0-19.15,0-38.29C81.13,41.41,81.24,41.06,81.17,41Z"/><path class="cls-1" d="M68.4,77.54c-2.25,0-4.5,0-6.76,0A1.87,1.87,0,0,1,59.5,75.4q0-3.27,0-6.53c0-1.48.67-2.14,2.14-2.15q6.87,0,13.74,0c1.47,0,2.14.67,2.15,2.13q0,3.27,0,6.53c0,1.47-.67,2.14-2.14,2.15-2.32,0-4.65,0-7,0Zm0-3.61h2.93c2.65,0,2.61,0,2.62-2.65,0-.83-.3-1-1-1-2.36,0-4.72,0-7.09,0-2.89,0-2.87,0-2.72,2.87,0,.61.26.75.81.74C65.4,73.91,66.9,73.93,68.4,73.93Z"/></svg>