<svg id="Capa_1" data-name="Capa 1" xmlns="http://www.w3.org/2000/svg" viewBox="0 0 51.53 44.07"><defs><style>.cls-1{fill:#fff;}</style></defs><title>Sidebar-Carrito-2</title><path class="cls-1" d="M14.39,31.26H44a1.51,1.51,0,0,0,1.46-1.09l6-20.22a1.58,1.58,0,0,0-.24-1.35A1.56,1.56,0,0,0,50,8H11.15L9.1,1.09A1.53,1.53,0,0,0,7.63,0H1.53a1.53,1.53,0,1,0,0,3.05h5l2,6.87a.64.64,0,0,1,0,.07L14,28.22a6,6,0,0,0,.4,11.91h1.52a5.46,5.46,0,0,0,10.49,0h8.1a5.45,5.45,0,0,0,10.48,0h2a1.53,1.53,0,1,0,0-3.05H45a5.45,5.45,0,0,0-10.48,0H26.4a5.46,5.46,0,0,0-10.49,0H14.39a2.91,2.91,0,0,1,0-5.82ZM33.74,21.15v7.06H25.49V21.15Zm-8.25-3V11h8.25V18.1Zm-3,10.11H17.17l-2.1-7.06h7.37v7.06Zm20.4,0H36.79V21.15h8.15Zm3-10.11H36.79V11H48ZM22.44,11V18.1H14.16L12.06,11Zm-3.7,27.57A2.41,2.41,0,1,1,21.15,41,2.41,2.41,0,0,1,18.74,38.61Zm18.59,0A2.41,2.41,0,1,1,39.74,41,2.41,2.41,0,0,1,37.33,38.61Z"/></svg>