<svg id="Capa_1" data-name="Capa 1" xmlns="http://www.w3.org/2000/svg" viewBox="0 0 122.65 124.19"><defs><style>.cls-1{fill:#0da3ff;}.cls-2{fill:#81e86b;}</style></defs><title>page-confirmacion</title><path class="cls-1" d="M37.27,85.05a2,2,0,0,1-1.91-1.48L18.18,17.3,1,6.9A2,2,0,0,1,3,3.52L20.91,14.34a2,2,0,0,1,.89,1.2l17.38,67A2,2,0,0,1,37.77,85,2.2,2.2,0,0,1,37.27,85.05Z"/><path class="cls-1" d="M37.27,30.29h-14a2,2,0,1,1,0-3.95h14a2,2,0,1,1,0,3.95Z"/><path class="cls-1" d="M109.11,101.55H38.78a10.22,10.22,0,0,1,0-20.44h67.57l12.2-45.36a4.34,4.34,0,0,0-4.19-5.46H106.5a2,2,0,0,1,0-3.95h7.86a8.29,8.29,0,0,1,8,10.44L109.77,83.59a2,2,0,0,1-1.9,1.46H38.78a6.28,6.28,0,0,0,0,12.55h70.33a2,2,0,0,1,0,4Z"/><path class="cls-1" d="M92.6,124.19a9.57,9.57,0,1,1,9.57-9.57A9.58,9.58,0,0,1,92.6,124.19Zm0-15.52a6,6,0,1,0,6,6A6,6,0,0,0,92.6,108.67Z"/><path class="cls-1" d="M46.81,124.19a9.57,9.57,0,1,1,9.57-9.57A9.58,9.58,0,0,1,46.81,124.19Zm0-15.52a6,6,0,1,0,5.95,6A6,6,0,0,0,46.81,108.67Z"/><path class="cls-1" d="M76.56,116.43h-14a1.81,1.81,0,0,1,0-3.62h14a1.81,1.81,0,0,1,0,3.62Z"/><path class="cls-2" d="M72.35,54.25A27.13,27.13,0,1,1,99.47,27.12,27.15,27.15,0,0,1,72.35,54.25Zm0-50.3A23.18,23.18,0,1,0,95.53,27.12,23.2,23.2,0,0,0,72.35,4Z"/><path class="cls-2" d="M70.18,37.34h0a2,2,0,0,1-1.47-.67L61,27.89a2,2,0,1,1,3-2.61l6.26,7.13L82.82,18.6a2,2,0,0,1,2.91,2.66L71.63,36.7A2,2,0,0,1,70.18,37.34Z"/></svg>