<svg height="492pt" viewBox="-43 0 492 492.00501" width="492pt" xmlns="http://www.w3.org/2000/svg"><path d="m400.433594 328.949219c-9.152344-6.234375-26.417969-18.597657-39.210938-31.394531-13.589844-13.59375-28.589844-34.210938-34.40625-42.445313-1.863281-2.632813-4.722656-4.390625-7.910156-4.863281-3.191406-.476563-6.4375.378906-8.984375 2.359375l-66.113281 51.421875c-5.078125 3.90625-6.089844 11.167968-2.273438 16.316406 2.132813 2.898438 4.308594 5.785156 6.523438 8.648438l-40.367188-13.460938v-31.890625c24.105469-14.261719 40.929688-38.183594 46.191406-65.691406l4.09375-14.082031c15.507813-4.839844 24.582032-20.898438 20.722657-36.679688-1.988281-8.328125-8.195313-15-16.355469-17.585938v-45.203124c0-57.65625-46.742188-104.398438-104.398438-104.398438-57.660156 0-104.402343 46.742188-104.402343 104.398438v45.191406c-8.179688 2.574218-14.402344 9.257812-16.394531 17.601562-3.859376 15.777344 5.214843 31.839844 20.722656 36.679688l4.09375 14.078125c5.265625 27.507812 22.085937 51.433593 46.191406 65.691406v31.851563l-68.304688 22.148437c-18.714843 6.066406-32.90625 20.675781-37.960937 39.082031-.199219.714844-.382813 1.4375-.550781 2.164063-.921875 4.074219-1.371094 8.238281-1.33593775 12.414062v49.398438c0 3.316406 2.68749975 6 5.99999975 6h169.464844l-9.925781 9.929687c-1.421875 1.417969-2.035157 3.453125-1.640625 5.417969l4.1875 20.941406c.472656 2.378907 2.332031 4.238281 4.707031 4.710938l20.941406 4.191406c1.96875.390625 4-.226563 5.421875-1.644531l10.480469-10.480469 13.773437 1.488281c1.777344.191406 3.546876-.417968 4.828126-1.664062s1.941406-2.996094 1.796874-4.777344l-.832031-10.46875 11.46875.214844c1.78125.03125 3.484375-.726563 4.652344-2.074219 1.164063-1.347656 1.671875-3.140625 1.382813-4.898437l-2.101563-12.789063 57.574219-57.578125c10.667968 9.570312 21.835937 18.644531 33.261718 27.035156 5.148438 3.816406 12.40625 2.804688 16.316407-2.273437l51.335937-66.019531c2.003906-2.574219 2.851563-5.863282 2.347656-9.082032-.503906-3.222656-2.320312-6.09375-5.015624-7.929687zm-233.773438-223.386719c8.199219 8.824219 35.160156 33.519531 83.683594 38.3125v4.800781c-18.050781-.359375-74.832031-4.171875-119.328125-36.523437.789063-.101563 1.582031-.203125 2.378906-.300782 11.203125-1.433593 22.3125-3.535156 33.265625-6.289062zm-101.113281-1.164062c0-51.03125 41.367187-92.398438 92.398437-92.398438s92.398438 41.367188 92.398438 92.398438v27.394531c-36.757812-3.96875-59.921875-20.578125-70.375-30.039063 18.359375-5.902344 33.949219-13.730468 46.597656-23.433594 1.753906-1.285156 2.671875-3.417968 2.402344-5.574218-.265625-2.15625-1.679688-4-3.691406-4.820313-2.015625-.816406-4.3125-.484375-6.011719.875-25.5625 19.605469-61.53125 27.746094-87.203125 31.121094-16.804688 2.242187-33.765625 3.117187-50.710938 2.621094-1.59375-.082031-3.15625.476562-4.339843 1.550781-1.179688 1.074219-1.886719 2.574219-1.960938 4.171875l-1.625 35.726563c-.097656 1.96875-.992187 3.808593-2.480469 5.101562-1.488281 1.292969-3.4375 1.921875-5.402343 1.746094zm8.15625 111.042968c-.035156-.191406-.078125-.378906-.132813-.566406l-4.9375-16.984375c-.417968-2.511719-2.378906-4.488281-4.886718-4.925781-5.101563-.90625-9.601563-3.882813-12.433594-8.226563-2.832031-4.339843-3.738281-9.660156-2.507812-14.695312 1.070312-4.472657 4.511718-7.996094 8.957031-9.171875 5.808593 2.863281 12.667969 2.605468 18.246093-.6875 5.574219-3.292969 9.113282-9.175782 9.40625-15.644532l1.359376-29.847656c5.761718.070313 15.28125-.015625 27.039062-.863281 29.8125 25.660156 66.507812 37.039063 92.292969 42.066406 28.425781 5.542969 49.582031 4.804688 50.46875 4.769531.164062-.003906.328125-.019531.488281-.042968 4.894531.894531 8.804688 4.585937 9.980469 9.421875 1.230469 5.035156.320312 10.355469-2.507813 14.695312-2.832031 4.34375-7.332031 7.320313-12.4375 8.226563-2.507812.4375-4.464844 2.414062-4.882812 4.925781l-4.9375 16.984375c-.054688.1875-.101563.375-.136719.566406-7.625 40.503906-43.003906 69.839844-84.21875 69.839844s-76.59375-29.335938-84.21875-69.839844zm84.222656 81.859375c12.96875.007813 25.808594-2.578125 37.765625-7.601562v26.570312c-23.859375 11.515625-51.671875 11.515625-75.53125 0v-26.570312c11.957032 5.023437 24.796875 7.609375 37.765625 7.601562zm-145.921875 137.398438v-43.398438c-.035156-3.257812.308594-6.503906 1.023438-9.679687.132812-.574219.277344-1.148438.433594-1.714844 3.980468-14.5 15.230468-26.027344 30.09375-30.847656l69.960937-22.683594c27.929687 14.035156 60.855469 14.042969 88.789063.011719l59.925781 19.988281c2.089843 2.433594 4.199219 4.84375 6.339843 7.230469l-81.101562 81.101562zm330.394532-30.234375c-12.65625-9.308594-24.789063-19.304688-36.347657-29.949219-2.363281-2.179687-6.03125-2.105469-8.304687.171875l-63.800782 63.796875c-1.367187 1.367187-1.992187 3.308594-1.679687 5.214844l1.433594 8.726562-10.890625-.203125c-1.695313-.039062-3.328125.648438-4.480469 1.890625-1.160156 1.230469-1.746094 2.898438-1.613281 4.585938l.785156 9.851562-9.433594-1.019531c-1.804687-.191406-3.601562.441406-4.886718 1.722656l-10.238282 10.238282-13.871094-2.769532-2.773437-13.871094 104.800781-104.800781c2.273438-2.273437 2.347656-5.941406.167969-8.308593-10.644531-11.554688-20.640625-23.6875-29.949219-36.34375l65.816406-51.199219c7.480469 10.578125 21.945313 30.179687 35.605469 43.839843 13.402344 13.398438 31.222657 26.199219 40.769531 32.710938zm0 0"/><path d="m328.589844 301.199219-11.058594-12.636719c-2.09375-2.394531-5.691406-2.738281-8.199219-.789062l-15.078125 11.726562c-2.289062 1.78125-2.976562 4.949219-1.628906 7.519531l18.425781 35.179688c.566407 1.082031 1.449219 1.964843 2.53125 2.53125l35.179688 18.429687c2.570312 1.34375 5.738281.660156 7.519531-1.632812l11.726562-15.078125c1.953126-2.507813 1.609376-6.105469-.785156-8.199219l-12.636718-11.058594c-9.230469-8.078125-17.914063-16.761718-25.996094-25.992187zm26.46875 42.355469-5.171875 6.644531-29.074219-15.230469-15.230469-29.070312 6.648438-5.167969 7.328125 8.375c8.433594 9.632812 17.492187 18.691406 27.125 27.125zm0 0"/></svg>