<svg width="20" height="20" xmlns="http://www.w3.org/2000/svg">
 <style type="text/css">
  <![CDATA[
	.st0{fill:#01A601;}
]]>
 </style>

 <g>
  <title>background</title>
  <rect fill="none" id="canvas_background" height="22" width="22" y="-1" x="-1"/>
 </g>
 <g>
  <title>Layer 1</title>
  <g stroke="null" id="svg_1">
   <path stroke="null" id="svg_2" d="m9.978491,0.142028c1.53737,0 2.992231,0.350244 4.292176,0.974959c-0.532102,0.420967 -1.025475,0.825095 -1.48517,1.214068c-0.875611,-0.318251 -1.82026,-0.491689 -2.805322,-0.491689c-2.268168,0 -4.322485,0.919391 -5.807655,2.406245c-1.486854,1.486854 -2.406245,3.539487 -2.406245,5.807655c0,2.268168 0.919391,4.320801 2.406245,5.807655c1.486854,1.486854 3.539487,2.406245 5.807655,2.406245s4.322485,-0.919391 5.807655,-2.406245c1.486854,-1.486854 2.406245,-3.539487 2.406245,-5.807655c0,-0.538837 -0.0522,-1.067571 -0.151548,-1.577783c0.426018,-0.555676 0.86214,-1.109668 1.308364,-1.658608c0.350244,1.013688 0.540521,2.103149 0.540521,3.236391c0,2.736283 -1.109668,5.214934 -2.902986,7.008252c-1.793318,1.793318 -4.271969,2.902986 -7.008252,2.902986c-2.736283,0 -5.214934,-1.109668 -7.008252,-2.902986c-1.795002,-1.793318 -2.90467,-4.271969 -2.90467,-7.008252c0,-2.736283 1.109668,-5.214934 2.902986,-7.008252s4.271969,-2.902986 7.008252,-2.902986l0,0zm-4.617162,8.282939l2.418032,-0.031993l0.180174,0.047148c0.488321,0.281206 0.948017,0.602824 1.377403,0.966539c0.309831,0.262683 0.606192,0.54894 0.887398,0.858772c0.867191,-1.395925 1.791634,-2.677348 2.768276,-3.856054c1.069255,-1.291526 2.204181,-2.463497 3.396359,-3.532752l0.235741,-0.090929l2.638619,0l-0.532102,0.591037c-1.635034,1.816892 -3.118521,3.694403 -4.458878,5.630849c-1.340358,1.93813 -2.539271,3.938564 -3.605158,5.997932l-0.331722,0.639869l-0.30478,-0.651656c-0.562411,-1.207332 -1.235958,-2.315316 -2.039162,-3.30543c-0.803204,-0.990113 -1.73775,-1.869092 -2.827212,-2.616728l0.197012,-0.646605l0,0z" class="st0"/>
  </g>
 </g>
</svg>