<svg xmlns="http://www.w3.org/2000/svg" data-name="Layer 1" viewBox="0 0 100 125" x="0px" y="0px"><title>Artboard 39</title><path d="M61.94,50.08a19,19,0,0,0-4.88-2.24c-1-.31-2.21-.63-3.52-1-1.11-.31-2.31-.6-4.18-1a38.67,38.67,0,0,1-5.85-1.73,7,7,0,0,1-2.83-2,4.5,4.5,0,0,1-.91-3c0-.1,0-.19,0-.29a4.6,4.6,0,0,1,1-2.59,7.48,7.48,0,0,1,3.31-2.28A17.18,17.18,0,0,1,50.19,33a17.1,17.1,0,0,1,4.58.62,9.42,9.42,0,0,1,3,1.45,6,6,0,0,1,1.54,1.63l1.62,2.52L66,36l-1.62-2.52a11.93,11.93,0,0,0-3.08-3.25,15.36,15.36,0,0,0-4.84-2.36A22,22,0,0,0,53,27.17V20H47v7.16a23.3,23.3,0,0,0-4.88,1.08,13.53,13.53,0,0,0-6,4.12l-.08.1a10.66,10.66,0,0,0-2.29,6.26,10.51,10.51,0,0,0,2.11,7l.1.12a13,13,0,0,0,5.37,3.89,44.62,44.62,0,0,0,6.74,2c1.72.38,2.83.65,3.92,1,1.29.32,2.37.61,3.32.9a13,13,0,0,1,3.33,1.52,5.54,5.54,0,0,1,1.68,1.7A5.67,5.67,0,0,1,61,59.67s0,.09,0,.14a5.6,5.6,0,0,1-1,3.35,7.94,7.94,0,0,1-3.61,2.72A16.19,16.19,0,0,1,49.92,67h-.19a15,15,0,0,1-7-1.47,8.27,8.27,0,0,1-2.92-2.61l-1.71-2.46-4.93,3.42,1.71,2.46A14.38,14.38,0,0,0,40,70.89,21.24,21.24,0,0,0,48,73v7h6V72.71a21.32,21.32,0,0,0,4.59-1.24,13.91,13.91,0,0,0,6.29-4.79,11.57,11.57,0,0,0,2.12-7,10.84,10.84,0,0,0-5.06-9.61Z"/></svg>