<svg xmlns:dc="http://purl.org/dc/elements/1.1/" xmlns:cc="http://creativecommons.org/ns#" xmlns:rdf="http://www.w3.org/1999/02/22-rdf-syntax-ns#" xmlns:svg="http://www.w3.org/2000/svg" xmlns="http://www.w3.org/2000/svg" xmlns:sodipodi="http://sodipodi.sourceforge.net/DTD/sodipodi-0.dtd" xmlns:inkscape="http://www.inkscape.org/namespaces/inkscape" version="1.1" x="0px" y="0px" viewBox="0 0 100 125"><g transform="translate(0,-952.36218)"><path style="text-indent:0;text-transform:none;direction:ltr;block-progression:tb;baseline-shift:baseline;color:#000000;enable-background:accumulate;" d="m 13.118802,958.36217 c -3.91,0 -7.1188,3.22206 -7.1188,7.13406 l 0,25.94094 c 0,3.91201 3.2088,7.13406 7.1188,7.13406 l 25.8637,0 c 3.9101,0 7.1188,-3.2221 7.1188,-7.13406 l 0,-25.94094 c 0,-3.91195 -3.2087,-7.13406 -7.1188,-7.13406 l -25.8637,0 z m 0,4 25.8637,0 c 1.7287,0 3.1188,1.39052 3.1188,3.13406 l 0,25.94094 c 0,1.74355 -1.3901,3.13406 -3.1188,3.13406 l -25.8637,0 c -1.7286,0 -3.1188,-1.39056 -3.1188,-3.13406 l 0,-25.94094 c 0,-1.74349 1.3902,-3.13406 3.1188,-3.13406 z" fill="#000000" fill-opacity="1" fill-rule="evenodd" stroke="none" marker="none" visibility="visible" display="inline" overflow="visible"/><path style="text-indent:0;text-transform:none;direction:ltr;block-progression:tb;baseline-shift:baseline;color:#000000;enable-background:accumulate;" d="m 61.017202,958.36217 c -3.9039,0 -7.1187,3.21739 -7.1187,7.13406 l 0,25.94094 c 0,3.91667 3.2148,7.13406 7.1187,7.13406 l 25.873796,0 c 3.9039,0 7.109,-3.2221 7.109,-7.13406 l 0,-25.94094 c 0,-3.91195 -3.2051,-7.13406 -7.109,-7.13406 l -25.873796,0 z m 0,4 25.873796,0 c 1.7148,0 3.109,1.39052 3.109,3.13406 l 0,25.94094 c 0,1.74355 -1.3942,3.13406 -3.109,3.13406 l -25.873796,0 c -1.7148,0 -3.1187,-1.39523 -3.1187,-3.13406 l 0,-25.94094 c 0,-1.73882 1.4039,-3.13406 3.1187,-3.13406 z" fill="#000000" fill-opacity="1" fill-rule="evenodd" stroke="none" marker="none" visibility="visible" display="inline" overflow="visible"/><path style="text-indent:0;text-transform:none;direction:ltr;block-progression:tb;baseline-shift:baseline;color:#000000;enable-background:accumulate;" d="m 13.118802,1006.1431 c -3.9148,0 -7.1188,3.2283 -7.1188,7.1341 l 0,25.9509 c 0,3.9059 3.204,7.1341 7.1188,7.1341 l 25.8637,0 c 3.9149,0 7.1188,-3.2283 7.1188,-7.1341 l 0,-25.9509 c 0,-3.9058 -3.2039,-7.1341 -7.1188,-7.1341 l -25.8637,0 z m 0,4 25.8637,0 c 1.724,0 3.1188,1.4044 3.1188,3.1341 l 0,25.9509 c 0,1.7297 -1.3948,3.1341 -3.1188,3.1341 l -25.8637,0 c -1.7238,0 -3.1188,-1.4045 -3.1188,-3.1341 l 0,-25.9509 c 0,-1.7296 1.395,-3.1341 3.1188,-3.1341 z" fill="#000000" fill-opacity="1" fill-rule="evenodd" stroke="none" marker="none" visibility="visible" display="inline" overflow="visible"/><path style="text-indent:0;text-transform:none;direction:ltr;block-progression:tb;baseline-shift:baseline;color:#000000;enable-background:accumulate;" d="m 61.017202,1006.1431 c -3.9087,0 -7.1187,3.2236 -7.1187,7.1341 l 0,25.9509 c 0,3.9105 3.21,7.1341 7.1187,7.1341 l 25.873796,0 c 3.9087,0 7.109,-3.2283 7.109,-7.1341 l 0,-25.9509 c 0,-3.9058 -3.2003,-7.1341 -7.109,-7.1341 l -25.873796,0 z m 0,4 25.873796,0 c 1.71,0 3.109,1.4044 3.109,3.1341 l 0,25.9509 c 0,1.7297 -1.399,3.1341 -3.109,3.1341 l -25.873796,0 c -1.7101,0 -3.1187,-1.4092 -3.1187,-3.1341 l 0,-25.9509 c 0,-1.7249 1.4086,-3.1341 3.1187,-3.1341 z" fill="#000000" fill-opacity="1" fill-rule="evenodd" stroke="none" marker="none" visibility="visible" display="inline" overflow="visible"/></g></svg>