<svg xmlns="http://www.w3.org/2000/svg" xmlns:xlink="http://www.w3.org/1999/xlink" xml:space="preserve" version="1.1" style="shape-rendering:geometricPrecision;text-rendering:geometricPrecision;image-rendering:optimizeQuality;" viewBox="0 0 345 393.75" x="0px" y="0px" fill-rule="evenodd" clip-rule="evenodd"><defs><style type="text/css">
   
    .fil0 {fill:#000000;}
   
  </style></defs><g><path class="fil0" d="M181 3c-5,-4 -12,-4 -17,0 -53,54 -107,107 -160,161 -11,11 5,28 16,17l9 -9 0 132c0,6 6,11 12,11l102 0c7,0 12,-5 12,-11l0 -76 35 0 0 76c0,6 5,11 12,11l102 0c6,0 11,-5 11,-11l0 -132 9 9c11,10 28,-6 17,-17 -53,-54 -107,-107 -160,-161zm111 289l-79 0 0 -76c0,-7 -5,-12 -11,-12l-59 0c-6,0 -12,5 -12,12l0 76 -78 0 0 -144 119 -119 120 119 0 144z"/></g></svg>